<svg width="32" height="32" viewBox="0 0 32 32" fill="none" xmlns="http://www.w3.org/2000/svg">
<circle cx="16" cy="16" r="16" fill="#518FF5" fill-opacity="0.7"/>
<path d="M11.5 7C10.8812 7 10.375 7.50625 10.375 8.125V23.875C10.375 24.4938 10.8812 25 11.5 25H22.75C23.3688 25 23.875 24.4938 23.875 23.875V11.5L19.375 7H11.5Z" fill="#E2E5E7"/>
<path d="M20.5 11.5H23.875L19.375 7V10.375C19.375 10.9938 19.8812 11.5 20.5 11.5Z" fill="#B0B7BD"/>
<path d="M23.875 14.875L20.5 11.5H23.875V14.875Z" fill="#CAD1D8"/>
<path d="M21.625 21.625C21.625 21.9344 21.3719 22.1875 21.0625 22.1875H8.6875C8.37812 22.1875 8.125 21.9344 8.125 21.625V16C8.125 15.6906 8.37812 15.4375 8.6875 15.4375H21.0625C21.3719 15.4375 21.625 15.6906 21.625 16V21.625Z" fill="#518FF5"/>
<path d="M10.2543 20.5C10.1058 20.5 9.94385 20.4184 9.94385 20.221V17.6667C9.94385 17.5047 10.1058 17.3877 10.2543 17.3877H11.2843C13.3397 17.3877 13.2941 20.5 11.3242 20.5H10.2543V20.5ZM10.5378 17.9361V19.951H11.2843C12.4987 19.951 12.5522 17.9361 11.2843 17.9361H10.5378Z" fill="white"/>
<path d="M15.0153 20.5452C14.1833 20.5812 13.3193 20.0277 13.3193 18.9258C13.3193 17.8193 14.1828 17.2754 15.0153 17.2754C15.8022 17.3153 16.6252 17.8598 16.6252 18.9258C16.6252 19.9923 15.8022 20.5452 15.0153 20.5452ZM14.9658 17.8604C14.4618 17.8604 13.9133 18.2159 13.9133 18.9263C13.9133 19.6328 14.4623 19.9928 14.9658 19.9928C15.4833 19.9928 16.0362 19.6328 16.0362 18.9263C16.0362 18.2153 15.4833 17.8604 14.9658 17.8604Z" fill="white"/>
<path d="M17.1543 18.9215C17.1543 18.0536 17.6988 17.3071 18.7332 17.3071C19.1247 17.3071 19.4352 17.4241 19.7632 17.7076C19.8847 17.8196 19.8982 18.0176 19.7767 18.1436C19.6552 18.251 19.4707 18.2381 19.3627 18.1301C19.1787 17.9366 18.9897 17.8831 18.7332 17.8831C18.0408 17.8831 17.7084 18.3736 17.7084 18.9221C17.7084 19.4801 18.0363 19.9925 18.7332 19.9925C18.9897 19.9925 19.2282 19.8884 19.4352 19.7045C19.5742 19.5965 19.7677 19.6499 19.8487 19.7585C19.9207 19.8575 19.9561 20.024 19.7992 20.1809C19.4842 20.474 19.1067 20.5325 18.7327 20.5325C17.6448 20.5325 17.1543 19.7894 17.1543 18.9215Z" fill="white"/>
<path d="M21.0625 22.1875H10.375V22.75H21.0625C21.3719 22.75 21.625 22.4969 21.625 22.1875V21.625C21.625 21.9344 21.3719 22.1875 21.0625 22.1875Z" fill="#CAD1D8"/>
</svg>
