<svg width="32" height="32" viewBox="0 0 32 32" fill="none" xmlns="http://www.w3.org/2000/svg">
<circle cx="16" cy="16" r="16" fill="#89C429" fill-opacity="0.7"/>
<path d="M11.5 7C10.8812 7 10.375 7.50625 10.375 8.125V23.875C10.375 24.4938 10.8812 25 11.5 25H22.75C23.3688 25 23.875 24.4938 23.875 23.875V11.5L19.375 7H11.5Z" fill="#E2E5E7"/>
<path d="M20.5 11.5H23.875L19.375 7V10.375C19.375 10.9938 19.8812 11.5 20.5 11.5Z" fill="#B0B7BD"/>
<path d="M23.875 14.875L20.5 11.5H23.875V14.875Z" fill="#CAD1D8"/>
<path d="M21.625 21.625C21.625 21.9344 21.3719 22.1875 21.0625 22.1875H8.6875C8.37812 22.1875 8.125 21.9344 8.125 21.625V16C8.125 15.6906 8.37812 15.4375 8.6875 15.4375H21.0625C21.3719 15.4375 21.625 15.6906 21.625 16V21.625Z" fill="#89C429"/>
<path d="M21.0625 22.1875H10.375V22.75H21.0625C21.3719 22.75 21.625 22.4969 21.625 22.1875V21.625C21.625 21.9344 21.3719 22.1875 21.0625 22.1875Z" fill="#CAD1D8"/>
<path d="M12.0625 19.4508C11.9675 19.6148 11.839 19.7473 11.6769 19.8484C11.5176 19.9495 11.3219 20 11.09 20C10.9335 20 10.7881 19.974 10.654 19.9221C10.5226 19.8675 10.408 19.7923 10.3102 19.6967C10.2124 19.6011 10.1355 19.4891 10.0797 19.3607C10.0266 19.2295 10 19.0861 10 18.9303C10 18.7855 10.0266 18.6489 10.0797 18.5205C10.1328 18.3893 10.2068 18.276 10.3018 18.1803C10.3969 18.082 10.5086 18.0041 10.6372 17.9467C10.7686 17.8893 10.9125 17.8607 11.069 17.8607C11.2339 17.8607 11.3806 17.888 11.5092 17.9426C11.6377 17.9945 11.7453 18.0683 11.832 18.1639C11.9186 18.2568 11.9843 18.3675 12.029 18.4959C12.0737 18.6243 12.0961 18.7637 12.0961 18.9139C12.0961 18.9331 12.0961 18.9495 12.0961 18.9631C12.0933 18.9795 12.0919 18.9945 12.0919 19.0082C12.0891 19.0219 12.0877 19.0369 12.0877 19.0533H10.5408C10.552 19.1352 10.5743 19.2063 10.6079 19.2664C10.6442 19.3238 10.6875 19.373 10.7378 19.4139C10.7909 19.4522 10.8482 19.4809 10.9097 19.5C10.9712 19.5164 11.0341 19.5246 11.0983 19.5246C11.2241 19.5246 11.3275 19.4973 11.4086 19.4426C11.4924 19.3852 11.5581 19.3142 11.6056 19.2295L12.0625 19.4508ZM11.5637 18.6721C11.5609 18.6366 11.5483 18.597 11.5259 18.5533C11.5064 18.5096 11.4756 18.4686 11.4337 18.4303C11.3946 18.3921 11.3443 18.3607 11.2828 18.3361C11.2241 18.3115 11.1528 18.2992 11.069 18.2992C10.9516 18.2992 10.8482 18.332 10.7588 18.3975C10.6693 18.4631 10.6065 18.5546 10.5701 18.6721H11.5637Z" fill="white"/>
<path d="M12.5139 19.9344V17H13.5703C13.7128 17 13.8456 17.0232 13.9686 17.0697C14.0943 17.1134 14.2033 17.1762 14.2956 17.2582C14.3878 17.3402 14.4604 17.4385 14.5135 17.5533C14.5666 17.6653 14.5932 17.7896 14.5932 17.9262C14.5932 18.0656 14.5666 18.1926 14.5135 18.3074C14.4604 18.4194 14.3878 18.5164 14.2956 18.5984C14.2033 18.6803 14.0943 18.7445 13.9686 18.791C13.8456 18.8347 13.7128 18.8566 13.5703 18.8566H13.0798V19.9344H12.5139ZM13.5787 18.332C13.7268 18.332 13.8386 18.291 13.9141 18.209C13.9895 18.127 14.0273 18.0328 14.0273 17.9262C14.0273 17.8743 14.0175 17.8238 13.9979 17.7746C13.9811 17.7254 13.9532 17.6831 13.9141 17.6475C13.8777 17.6093 13.8316 17.5792 13.7757 17.5574C13.7198 17.5355 13.6542 17.5246 13.5787 17.5246H13.0798V18.332H13.5787Z" fill="white"/>
<path d="M16.0931 20C15.9171 20 15.7564 19.9727 15.611 19.918C15.4685 19.8607 15.3469 19.7787 15.2463 19.6721C15.1457 19.5656 15.0675 19.4372 15.0116 19.2869C14.9557 19.1339 14.9277 18.9604 14.9277 18.7664V17H15.4937V18.7992C15.4937 18.8975 15.5062 18.9877 15.5314 19.0697C15.5565 19.1516 15.5943 19.2227 15.6446 19.2828C15.6949 19.3429 15.7578 19.3907 15.8332 19.4262C15.9087 19.459 15.9953 19.4754 16.0931 19.4754C16.1937 19.4754 16.2818 19.459 16.3572 19.4262C16.4327 19.3907 16.4956 19.3429 16.5459 19.2828C16.5962 19.2227 16.6339 19.1516 16.6591 19.0697C16.6842 18.9877 16.6968 18.8975 16.6968 18.7992V17H17.2627V18.7664C17.2627 18.9495 17.2348 19.1175 17.1789 19.2705C17.1258 19.4208 17.0476 19.5505 16.9441 19.6598C16.8435 19.7664 16.7206 19.8497 16.5752 19.9098C16.4327 19.9699 16.272 20 16.0931 20Z" fill="white"/>
<path d="M17.7991 17H18.9729C19.1015 17 19.2217 17.0205 19.3334 17.0615C19.4452 17.0997 19.5417 17.1544 19.6227 17.2254C19.7065 17.2937 19.7722 17.3743 19.8197 17.4672C19.8672 17.5601 19.891 17.6598 19.891 17.7664C19.891 17.9221 19.8519 18.0533 19.7736 18.1598C19.6982 18.2637 19.6031 18.3429 19.4886 18.3975V18.4303C19.6423 18.485 19.7652 18.571 19.8575 18.6885C19.9525 18.8033 20 18.9467 20 19.1189C20 19.2445 19.9734 19.3579 19.9203 19.459C19.87 19.5574 19.8002 19.6421 19.7107 19.7131C19.6213 19.7842 19.5165 19.8388 19.3963 19.877C19.2789 19.9153 19.1518 19.9344 19.0148 19.9344H17.7991V17ZM18.931 18.1967C19.0624 18.1967 19.163 18.1626 19.2328 18.0943C19.3055 18.0232 19.3418 17.9399 19.3418 17.8443C19.3418 17.7486 19.3069 17.6667 19.237 17.5984C19.1672 17.5301 19.0707 17.4959 18.9478 17.4959H18.3651V18.1967H18.931ZM18.9939 19.4262C19.1364 19.4262 19.2454 19.3921 19.3209 19.3238C19.3963 19.2527 19.4341 19.1626 19.4341 19.0533C19.4341 18.944 19.3949 18.8538 19.3167 18.7828C19.2412 18.709 19.128 18.6721 18.9771 18.6721H18.3651V19.4262H18.9939Z" fill="white"/>
</svg>
