<svg width="32" height="32" viewBox="0 0 32 32" fill="none" xmlns="http://www.w3.org/2000/svg">
<circle cx="16" cy="16" r="16" fill="#3AA3F2" fill-opacity="0.7"/>
<path d="M11.5 7C10.8812 7 10.375 7.50625 10.375 8.125V23.875C10.375 24.4938 10.8812 25 11.5 25H22.75C23.3688 25 23.875 24.4938 23.875 23.875V11.5L19.375 7H11.5Z" fill="#E2E5E7"/>
<path d="M20.5 11.5H23.875L19.375 7V10.375C19.375 10.9938 19.8812 11.5 20.5 11.5Z" fill="#B0B7BD"/>
<path d="M23.875 14.875L20.5 11.5H23.875V14.875Z" fill="#CAD1D8"/>
<path d="M21.625 21.625C21.625 21.9344 21.3719 22.1875 21.0625 22.1875H8.6875C8.37812 22.1875 8.125 21.9344 8.125 21.625V16C8.125 15.6906 8.37812 15.4375 8.6875 15.4375H21.0625C21.3719 15.4375 21.625 15.6906 21.625 16V21.625Z" fill="#3AA3F2"/>
<path d="M11.9909 17.6575C11.9909 17.2795 12.5849 17.2795 12.5849 17.6575V19.4339C12.5849 20.1404 12.2474 20.5679 11.4695 20.5679C11.087 20.5679 10.768 20.4638 10.489 20.1044C10.2595 19.8299 10.6915 19.4345 10.9255 19.7219C11.1145 19.9559 11.317 20.0099 11.5145 20.0009C11.7659 19.9919 11.987 19.8788 11.9915 19.4339V17.6575H11.9909Z" fill="white"/>
<path d="M13.375 17.6572C13.375 17.5087 13.492 17.3467 13.681 17.3467H14.7199C15.3049 17.3467 15.8314 17.7382 15.8314 18.4886C15.8314 19.1996 15.3049 19.5956 14.7199 19.5956H13.969V20.1896C13.969 20.3876 13.843 20.4995 13.681 20.4995C13.5325 20.4995 13.375 20.3876 13.375 20.1896V17.6572ZM13.969 17.9131V19.0336H14.7199C15.0214 19.0336 15.2599 18.7676 15.2599 18.4886C15.2599 18.1741 15.0214 17.9131 14.7199 17.9131H13.969Z" fill="white"/>
<path d="M19.0436 20.1539C18.7241 20.4194 18.3326 20.5319 17.9372 20.5319C16.9922 20.5319 16.3223 19.9924 16.3223 18.9214C16.3223 18.0136 17.0288 17.3076 17.9771 17.3076C18.3326 17.3076 18.7236 17.4286 19.0026 17.7031C19.2765 17.9725 18.8811 18.373 18.6116 18.1351C18.4451 17.9731 18.2111 17.8516 17.9771 17.8516C17.4332 17.8516 16.9073 18.2875 16.9073 18.9214C16.9073 19.5874 17.3477 19.9924 17.9372 19.9924C18.2111 19.9924 18.4451 19.9109 18.6116 19.7899V19.237H17.9372C17.5367 19.237 17.5772 18.688 17.9372 18.688H18.8366C19.0031 18.688 19.1556 18.814 19.1556 18.9535V19.9114C19.1556 19.9924 19.1201 20.0678 19.0436 20.1539Z" fill="white"/>
<path d="M21.0625 22.1875H10.375V22.75H21.0625C21.3719 22.75 21.625 22.4969 21.625 22.1875V21.625C21.625 21.9344 21.3719 22.1875 21.0625 22.1875Z" fill="#CAD1D8"/>
</svg>
