<svg width="32" height="32" viewBox="0 0 32 32" fill="none" xmlns="http://www.w3.org/2000/svg">
<circle cx="16" cy="16" r="16" fill="#F15642" fill-opacity="0.7"/>
<path d="M11.5 7C10.8812 7 10.375 7.50625 10.375 8.125V23.875C10.375 24.4938 10.8812 25 11.5 25H22.75C23.3688 25 23.875 24.4938 23.875 23.875V11.5L19.375 7H11.5Z" fill="#E2E5E7"/>
<path d="M20.5 11.5H23.875L19.375 7V10.375C19.375 10.9938 19.8812 11.5 20.5 11.5Z" fill="#B0B7BD"/>
<path d="M23.875 14.875L20.5 11.5H23.875V14.875Z" fill="#CAD1D8"/>
<path d="M21.625 21.625C21.625 21.9344 21.3719 22.1875 21.0625 22.1875H8.6875C8.37812 22.1875 8.125 21.9344 8.125 21.625V16C8.125 15.6906 8.37812 15.4375 8.6875 15.4375H21.0625C21.3719 15.4375 21.625 15.6906 21.625 16V21.625Z" fill="#F15642"/>
<path d="M10.5767 17.6577C10.5767 17.5092 10.6937 17.3472 10.8821 17.3472H11.921C12.506 17.3472 13.0325 17.7387 13.0325 18.489C13.0325 19.2 12.506 19.596 11.921 19.596H11.1701V20.19C11.1701 20.388 11.0441 20.5 10.8821 20.5C10.7336 20.5 10.5767 20.388 10.5767 20.19V17.6577V17.6577ZM11.1701 17.9136V19.0341H11.921C12.2225 19.0341 12.461 18.768 12.461 18.489C12.461 18.1746 12.2225 17.9136 11.921 17.9136H11.1701Z" fill="white"/>
<path d="M13.9135 20.5C13.765 20.5 13.603 20.419 13.603 20.2216V17.6667C13.603 17.5053 13.765 17.3877 13.9135 17.3877H14.9435C16.9988 17.3877 16.9538 20.5 14.984 20.5H13.9135V20.5ZM14.197 17.9367V19.9516H14.9435C16.1579 19.9516 16.2119 17.9367 14.9435 17.9367H14.197V17.9367Z" fill="white"/>
<path d="M17.6826 17.9723V18.6872H18.8296C18.9916 18.6872 19.1536 18.8492 19.1536 19.0062C19.1536 19.1547 18.9916 19.2762 18.8296 19.2762H17.6826V20.2206C17.6826 20.3781 17.5707 20.499 17.4132 20.499C17.2152 20.499 17.0942 20.3781 17.0942 20.2206V17.6657C17.0942 17.5043 17.2157 17.3867 17.4132 17.3867H18.9921C19.1901 17.3867 19.3071 17.5043 19.3071 17.6657C19.3071 17.8097 19.1901 17.9717 18.9921 17.9717H17.6826V17.9723Z" fill="white"/>
<path d="M21.0625 22.1875H10.375V22.75H21.0625C21.3719 22.75 21.625 22.4969 21.625 22.1875V21.625C21.625 21.9344 21.3719 22.1875 21.0625 22.1875Z" fill="#CAD1D8"/>
</svg>
