<svg width="32" height="32" viewBox="0 0 32 32" fill="none" xmlns="http://www.w3.org/2000/svg">
<circle cx="16" cy="16" r="16" fill="#F6712E" fill-opacity="0.7"/>
<path d="M11.5 7C10.8812 7 10.375 7.50625 10.375 8.125V23.875C10.375 24.4938 10.8812 25 11.5 25H22.75C23.3688 25 23.875 24.4938 23.875 23.875V11.5L19.375 7H11.5Z" fill="#E2E5E7"/>
<path d="M20.5 11.5H23.875L19.375 7V10.375C19.375 10.9938 19.8812 11.5 20.5 11.5Z" fill="#B0B7BD"/>
<path d="M23.875 14.875L20.5 11.5H23.875V14.875Z" fill="#CAD1D8"/>
<path d="M21.625 21.625C21.625 21.9344 21.3719 22.1875 21.0625 22.1875H8.6875C8.37812 22.1875 8.125 21.9344 8.125 21.625V16C8.125 15.6906 8.37812 15.4375 8.6875 15.4375H21.0625C21.3719 15.4375 21.625 15.6906 21.625 16V21.625Z" fill="#F6712E"/>
<path d="M10.7075 17.6577C10.7075 17.5092 10.8245 17.3472 11.013 17.3472H12.0519C12.6369 17.3472 13.1634 17.7387 13.1634 18.489C13.1634 19.2 12.6369 19.596 12.0519 19.596H11.301V20.19C11.301 20.388 11.1755 20.5 11.0135 20.5C10.865 20.5 10.7081 20.388 10.7081 20.19V17.6577H10.7075V17.6577ZM11.301 17.9136V19.0341H12.0519C12.3534 19.0341 12.5919 18.768 12.5919 18.489C12.5919 18.1746 12.3534 17.9136 12.0519 17.9136H11.301Z" fill="white"/>
<path d="M13.7363 17.6577C13.7363 17.5092 13.8533 17.3472 14.0423 17.3472H15.0813C15.6663 17.3472 16.1928 17.7387 16.1928 18.489C16.1928 19.2 15.6663 19.596 15.0813 19.596H14.3303V20.19C14.3303 20.388 14.2043 20.5 14.0423 20.5C13.8938 20.5 13.7363 20.388 13.7363 20.19V17.6577V17.6577ZM14.3298 17.9136V19.0341H15.0807C15.3822 19.0341 15.6207 18.768 15.6207 18.489C15.6207 18.1746 15.3822 17.9136 15.0807 17.9136H14.3298Z" fill="white"/>
<path d="M17.6064 17.95H16.82C16.4285 17.95 16.4285 17.3745 16.82 17.3745H18.9468C19.3473 17.3745 19.3473 17.95 18.9468 17.95H18.2004V20.2213C18.2004 20.6123 17.6064 20.6218 17.6064 20.2213V17.95Z" fill="white"/>
<path d="M21.0625 22.1875H10.375V22.75H21.0625C21.3719 22.75 21.625 22.4969 21.625 22.1875V21.625C21.625 21.9344 21.3719 22.1875 21.0625 22.1875Z" fill="#CAD1D8"/>
</svg>
