<svg width="32" height="32" viewBox="0 0 32 32" fill="none" xmlns="http://www.w3.org/2000/svg">
<circle cx="16" cy="16" r="16" fill="#178F3C" fill-opacity="0.7"/>
<path d="M11.5 7C10.8812 7 10.375 7.50625 10.375 8.125V23.875C10.375 24.4938 10.8812 25 11.5 25H22.75C23.3688 25 23.875 24.4938 23.875 23.875V11.5L19.375 7H11.5Z" fill="#E2E5E7"/>
<path d="M20.5 11.5H23.875L19.375 7V10.375C19.375 10.9938 19.8812 11.5 20.5 11.5Z" fill="#B0B7BD"/>
<path d="M23.875 14.875L20.5 11.5H23.875V14.875Z" fill="#CAD1D8"/>
<path d="M21.625 21.625C21.625 21.9344 21.3719 22.1875 21.0625 22.1875H8.6875C8.37812 22.1875 8.125 21.9344 8.125 21.625V16C8.125 15.6906 8.37812 15.4375 8.6875 15.4375H21.0625C21.3719 15.4375 21.625 15.6906 21.625 16V21.625Z" fill="#178F3C"/>
<path d="M12.0747 18.4676L12.8571 17.4872C13.0911 17.1812 13.5456 17.5721 13.2891 17.8646C13.0197 18.1841 12.7362 18.5306 12.4662 18.8856L13.3836 20.028C13.6311 20.3655 13.1367 20.6889 12.8937 20.3559L12.0657 19.2945L11.2517 20.379C11.0222 20.7069 10.5137 20.3385 10.7702 20.0325L11.6742 18.8856C11.3907 18.5301 11.1162 18.1841 10.8422 17.8646C10.5593 17.5271 11.0852 17.1812 11.2922 17.4968L12.0747 18.4676Z" fill="white"/>
<path d="M13.939 17.6578C13.939 17.5093 14.065 17.3833 14.2225 17.3833C14.3665 17.3833 14.488 17.5099 14.488 17.6578V19.9112H15.7114C16.1518 19.9112 16.1614 20.5001 15.7114 20.5001H14.223C14.0655 20.5001 13.9395 20.3882 13.9395 20.2262V17.6578H13.939V17.6578Z" fill="white"/>
<path d="M16.5639 18.0625C16.6674 17.1895 17.9848 17.0326 18.6058 17.5096C18.9118 17.7565 18.5878 18.148 18.3178 17.95C17.9848 17.7391 17.2294 17.6401 17.1349 18.107C17.0134 18.845 18.9698 18.4225 18.9383 19.619C18.9068 20.7614 17.2519 20.7878 16.6309 20.2754C16.4818 20.1539 16.4869 19.9565 16.5679 19.8344C16.6849 19.718 16.8148 19.6775 16.9684 19.8035C17.3368 20.0549 18.2863 20.2439 18.3533 19.6049C18.2953 18.94 16.4244 19.34 16.5639 18.0625Z" fill="white"/>
<path d="M21.0625 22.1875H10.375V22.75H21.0625C21.3719 22.75 21.625 22.4969 21.625 22.1875V21.625C21.625 21.9344 21.3719 22.1875 21.0625 22.1875Z" fill="#CAD1D8"/>
</svg>
