<svg width="21" height="20" viewBox="0 0 21 20" fill="none" xmlns="http://www.w3.org/2000/svg">
<path d="M0.0166016 9.99863C0.0177651 14.918 3.595 19.1067 8.4536 19.8776V12.8886H5.9166V9.99863H8.4566V7.79863C8.34305 6.75617 8.69912 5.71722 9.42824 4.96356C10.1574 4.2099 11.184 3.81964 12.2296 3.89863C12.9801 3.91075 13.7288 3.97759 14.4696 4.09863V6.55763H13.2056C12.7704 6.50063 12.333 6.64435 12.0164 6.94829C11.6998 7.25224 11.5384 7.68351 11.5776 8.12063V9.99863H14.3486L13.9056 12.8896H11.5776V19.8776C16.8321 19.0472 20.5167 14.2484 19.9621 8.9577C19.4075 3.667 14.8079 -0.263445 9.49543 0.0138048C4.18296 0.291054 0.017446 4.67893 0.0166016 9.99863Z" fill="#0A81ED"/>
</svg>
