<svg width="19" height="19" viewBox="0 0 19 19" fill="none" xmlns="http://www.w3.org/2000/svg">
<path d="M9.0166 18.0375C6.5566 18.0375 6.2666 18.0245 5.3066 17.9825C4.55797 17.9578 3.81904 17.8057 3.1216 17.5325C1.91491 17.0629 0.960742 16.1083 0.491602 14.9015C0.228908 14.2015 0.0872194 13.462 0.0726016 12.7145C0.0166016 11.7565 0.0166016 11.4425 0.0166016 9.00146C0.0166016 6.53446 0.0296016 6.24646 0.0726016 5.29146C0.0875392 4.54499 0.229223 3.80647 0.491602 3.10746C0.960233 1.89899 1.91595 0.943637 3.1246 0.475465C3.82325 0.211667 4.56195 0.0696091 5.3086 0.0554648C6.2636 0.00146484 6.5776 0.00146484 9.0166 0.00146484C11.4966 0.00146484 11.7816 0.0144648 12.7266 0.0554648C13.4752 0.0697315 14.2158 0.211774 14.9166 0.475465C16.1249 0.944168 17.0804 1.89934 17.5496 3.10746C17.8167 3.81666 17.9592 4.56672 17.9706 5.32446C18.0266 6.28246 18.0266 6.59547 18.0266 9.03547C18.0266 11.4755 18.0126 11.7955 17.9706 12.7425C17.9557 13.4907 17.8137 14.2309 17.5506 14.9315C17.0803 16.1392 16.1247 17.094 14.9166 17.5635C14.2168 17.8257 13.4777 17.9673 12.7306 17.9825C11.7756 18.0375 11.4626 18.0375 9.0166 18.0375ZM8.9826 1.58446C6.5366 1.58446 6.2826 1.59646 5.3276 1.63946C4.75759 1.64702 4.19308 1.75221 3.6586 1.95046C2.86935 2.25247 2.24483 2.87446 1.9396 3.66246C1.73981 4.20276 1.63461 4.77344 1.6286 5.34946C1.5756 6.31846 1.5756 6.57246 1.5756 9.00146C1.5756 11.4015 1.5846 11.6925 1.6286 12.6555C1.63755 13.2257 1.7427 13.7903 1.9396 14.3255C2.24528 15.113 2.8697 15.7345 3.6586 16.0365C4.19272 16.236 4.75745 16.3413 5.3276 16.3475C6.2956 16.4035 6.5506 16.4035 8.9826 16.4035C11.4356 16.4035 11.6896 16.3915 12.6366 16.3475C13.207 16.3405 13.7719 16.2353 14.3066 16.0365C15.0911 15.7319 15.7115 15.1118 16.0166 14.3275C16.216 13.7867 16.3212 13.2158 16.3276 12.6395H16.3386C16.3816 11.6835 16.3816 11.4285 16.3816 8.98547C16.3816 6.54246 16.3706 6.28546 16.3276 5.33046C16.3186 4.76092 16.2135 4.19698 16.0166 3.66246C15.7122 2.87704 15.0917 2.25576 14.3066 1.95046C13.7721 1.75121 13.207 1.64599 12.6366 1.63946C11.6696 1.58446 11.4166 1.58446 8.9826 1.58446ZM9.0166 13.6205C7.14659 13.6217 5.46002 12.4962 4.74346 10.7689C4.02691 9.04164 4.42151 7.0528 5.74323 5.72993C7.06496 4.40706 9.05346 4.01074 10.7814 4.7258C12.5093 5.44086 13.6362 7.12645 13.6366 8.99646C13.6339 11.5475 11.5677 13.6155 9.0166 13.6205ZM9.0166 5.99446C7.35975 5.99446 6.0166 7.33761 6.0166 8.99446C6.0166 10.6513 7.35975 11.9945 9.0166 11.9945C10.6735 11.9945 12.0166 10.6513 12.0166 8.99446C12.0128 7.33921 10.6719 5.99831 9.0166 5.99446ZM13.8166 5.28147C13.222 5.27926 12.7415 4.79605 12.7426 4.20147C12.7437 3.60689 13.226 3.12547 13.8206 3.12547C14.4152 3.12547 14.8975 3.60688 14.8986 4.20146C14.8989 4.48833 14.7849 4.76349 14.5819 4.96614C14.3788 5.1688 14.1035 5.28226 13.8166 5.28147Z" fill="url(#paint0_linear_744:1615)"/>
<defs>
<linearGradient id="paint0_linear_744:1615" x1="0.999999" y1="-3" x2="25.5" y2="28.5" gradientUnits="userSpaceOnUse">
<stop stop-color="#2400FF"/>
<stop offset="0.478443" stop-color="#FF007A" stop-opacity="0.5"/>
<stop offset="0.705154" stop-color="#FF4D00" stop-opacity="0.5"/>
<stop offset="0.901042" stop-color="#FFE600" stop-opacity="0.5"/>
</linearGradient>
</defs>
</svg>
