<svg width="22" height="17" viewBox="0 0 22 17" fill="none" xmlns="http://www.w3.org/2000/svg">
<path d="M19.0097 2.68457C19.9061 2.14866 20.5768 1.30481 20.8967 0.310571C20.0543 0.810373 19.1327 1.16245 18.1717 1.35157C16.8392 -0.0579019 14.7282 -0.400903 13.0181 0.514227C11.308 1.42936 10.4222 3.37606 10.8557 5.26657C7.40527 5.09334 4.19063 3.46349 2.01166 0.782571C0.874504 2.74399 1.45562 5.25135 3.33966 6.51257C2.65837 6.49067 1.99219 6.30621 1.39666 5.97457C1.39666 5.99257 1.39666 6.01057 1.39666 6.02857C1.39706 8.07172 2.83704 9.83165 4.83966 10.2366C4.20773 10.4085 3.54487 10.4338 2.90166 10.3106C3.46486 12.0578 5.07522 13.2549 6.91066 13.2906C5.3905 14.4837 3.51314 15.1307 1.58066 15.1276C1.23813 15.1281 0.895874 15.1084 0.555664 15.0686C2.51805 16.3296 4.80203 16.9989 7.13466 16.9966C10.3799 17.0189 13.4987 15.7395 15.7934 13.4446C18.0881 11.1497 19.3672 8.03082 19.3447 4.78557C19.3447 4.59957 19.3403 4.41457 19.3317 4.23057C20.1721 3.62317 20.8975 2.87072 21.4737 2.00857C20.6907 2.35563 19.8601 2.58349 19.0097 2.68457Z" fill="#1A8CD8"/>
</svg>
