<svg width="21" height="16" viewBox="0 0 21 16" fill="none" xmlns="http://www.w3.org/2000/svg">
<path d="M10.0207 15.0086H10.0007C9.93865 15.0086 3.73565 14.9966 2.17065 14.5716C1.31007 14.3397 0.638002 13.6673 0.406653 12.8066C0.125231 11.2189 -0.0106662 9.60893 0.000652814 7.99658C-0.00661805 6.3816 0.132956 4.76929 0.417653 3.17958C0.65536 2.31809 1.32448 1.64253 2.18365 1.39658C3.70565 0.996582 9.73765 0.996582 9.99365 0.996582H10.0147C10.0777 0.996582 16.2967 1.00858 17.8457 1.43358C18.7044 1.66659 19.3751 2.33768 19.6077 3.19658C19.898 4.79012 20.0343 6.40792 20.0147 8.02758C20.0217 9.64061 19.8818 11.2509 19.5967 12.8386C19.3623 13.6982 18.6898 14.3692 17.8297 14.6016C16.3097 15.0046 10.2767 15.0086 10.0207 15.0086ZM8.02065 5.00158L8.01565 11.0016L13.2277 8.00158L8.02065 5.00158Z" fill="#FF0000"/>
</svg>
