<svg width="22" height="22" viewBox="0 0 22 22" fill="none" xmlns="http://www.w3.org/2000/svg">
<path d="M17.4167 20.1666H4.58333C3.57081 20.1666 2.75 19.3458 2.75 18.3333V5.49998C2.75 4.48746 3.57081 3.66665 4.58333 3.66665H6.41667V1.83331H8.25V3.66665H13.75V1.83331H15.5833V3.66665H17.4167C18.4292 3.66665 19.25 4.48746 19.25 5.49998V18.3333C19.25 19.3458 18.4292 20.1666 17.4167 20.1666ZM4.58333 9.16665V18.3333H17.4167V9.16665H4.58333ZM4.58333 5.49998V7.33331H17.4167V5.49998H4.58333ZM15.5833 16.5H13.75V14.6666H15.5833V16.5ZM11.9167 16.5H10.0833V14.6666H11.9167V16.5ZM8.25 16.5H6.41667V14.6666H8.25V16.5ZM15.5833 12.8333H13.75V11H15.5833V12.8333ZM11.9167 12.8333H10.0833V11H11.9167V12.8333ZM8.25 12.8333H6.41667V11H8.25V12.8333Z" fill="#96A3AB"/>
</svg>
