<svg width="22" height="22" viewBox="0 0 22 22" fill="none" xmlns="http://www.w3.org/2000/svg">
<path d="M18.3333 18.3334H3.66665C2.65412 18.3334 1.83331 17.5125 1.83331 16.5V5.50002C1.83331 4.4875 2.65412 3.66669 3.66665 3.66669H18.3333C19.3458 3.66669 20.1666 4.4875 20.1666 5.50002V16.5C20.1666 17.5125 19.3458 18.3334 18.3333 18.3334ZM3.66665 5.50002V16.5H18.3333V5.50002H3.66665ZM14.2083 14.6667C12.9427 14.6667 11.9166 13.6407 11.9166 12.375C11.9166 11.1094 12.9427 10.0834 14.2083 10.0834C15.474 10.0834 16.5 11.1094 16.5 12.375C16.5 12.9828 16.2585 13.5657 15.8288 13.9955C15.399 14.4252 14.8161 14.6667 14.2083 14.6667ZM10.5416 14.6667C9.27599 14.6667 8.24998 13.6407 8.24998 12.375C8.24998 11.1094 9.27599 10.0834 10.5416 10.0834C11.0392 10.0837 11.5227 10.2488 11.9166 10.5527C11.3403 10.9809 11.0006 11.6566 11.0006 12.3746C11.0006 13.0926 11.3403 13.7682 11.9166 14.1964C11.5228 14.5007 11.0393 14.666 10.5416 14.6667Z" fill="#96A3AB"/>
</svg>
