<svg width="32" height="32" viewBox="0 0 32 32" fill="none" xmlns="http://www.w3.org/2000/svg">
<g clip-path="url(#clip0_411:2685)">
<path d="M31.7637 12.2824C31.0077 7.76277 26.009 -1.44835 20.8039 3.35315C18.9336 5.07834 18.7739 15.5702 15.1464 11.2007C10.8436 6.01784 9.30437 11.9026 4.80149 12.0236C3.75043 12.0519 1.55606 10.8817 0.771494 11.4238C-2.13669 13.433 3.85106 18.7433 7.54637 19.2264C13.7115 20.0324 19.5004 22.5187 23.1827 27.7778C23.8252 28.6955 24.5192 29.801 25.6248 29.9827C31.7393 30.9873 32.5129 16.761 31.7637 12.2824Z" fill="url(#paint0_linear_411:2685)"/>
<path d="M15.3269 5.21753C9.18492 5.21753 4.2063 10.1969 4.2063 16.3389C4.2063 22.4809 9.18492 27.4603 15.3269 27.4603C21.4697 27.4603 26.4483 22.4809 26.4483 16.3389C26.4483 10.1969 21.4697 5.21753 15.3269 5.21753Z" fill="#FF6C6C"/>
<path d="M15.3273 25.6487C20.4687 25.6487 24.6367 21.4807 24.6367 16.3392C24.6367 11.1978 20.4687 7.02979 15.3273 7.02979C10.1858 7.02979 6.01782 11.1978 6.01782 16.3392C6.01782 21.4807 10.1858 25.6487 15.3273 25.6487Z" fill="#B2B2FF"/>
<path d="M15.3272 24.8565C20.0314 24.8565 23.8448 21.0431 23.8448 16.3389C23.8448 11.6348 20.0314 7.82129 15.3272 7.82129C10.623 7.82129 6.80957 11.6348 6.80957 16.3389C6.80957 21.0431 10.623 24.8565 15.3272 24.8565Z" fill="white"/>
<path d="M26.4483 16.3389C26.4483 10.1969 21.4697 5.21753 15.3269 5.21753L15.327 7.02959L24.6367 16.3389H26.4483Z" fill="#6C6CFF"/>
<path d="M18.3025 5.61963V14.5015C18.3025 14.7015 18.4644 14.8634 18.6644 14.8634H26.3506C25.7612 10.4128 22.54 6.79344 18.3025 5.61963Z" fill="#4D4DFF"/>
<path d="M15.3271 7.02979C20.4686 7.02979 24.6366 11.1978 24.6366 16.3392H23.8448L15.3271 7.82166V7.02979Z" fill="#8282FF"/>
<path d="M18.3025 7.51611V14.5017C18.3025 14.7017 18.4644 14.8636 18.6644 14.8636H24.5194C23.9712 11.4192 21.5344 8.6048 18.3025 7.51611Z" fill="#6C6CFF"/>
<path d="M23.8448 16.3389C23.8448 11.6348 20.0313 7.82129 15.3271 7.82129V16.3389H23.8448Z" fill="#B2B2FF"/>
<path d="M18.3025 8.35596V14.5016C18.3025 14.7016 18.4644 14.8635 18.6644 14.8635H23.7175C23.1925 11.8591 21.0944 9.39652 18.3025 8.35596Z" fill="#9393FF"/>
<path d="M19.4827 16.6514H16.0037C15.8311 16.6514 15.6912 16.5114 15.6912 16.3389C15.6912 16.1663 15.8311 16.0264 16.0037 16.0264H19.4827C19.6552 16.0264 19.7952 16.1663 19.7952 16.3389C19.7952 16.5114 19.6552 16.6514 19.4827 16.6514Z" fill="#9393FF"/>
<path d="M16.3187 16.3389C16.3187 15.9015 16.0336 15.53 15.6397 15.3987V11.6309C15.6397 11.4583 15.4998 11.3184 15.3272 11.3184C15.1546 11.3184 15.0147 11.4583 15.0147 11.6309V15.3987C14.6208 15.53 14.3357 15.9015 14.3357 16.3389C14.3357 16.7764 14.6208 17.1479 15.0147 17.2791V17.8565C15.0147 18.029 15.1546 18.169 15.3272 18.169C15.4998 18.169 15.6397 18.029 15.6397 17.8565V17.2791C16.0336 17.1479 16.3187 16.7764 16.3187 16.3389ZM15.3272 16.7054C15.1251 16.7054 14.9607 16.541 14.9607 16.339C14.9607 16.1369 15.1251 15.9725 15.3272 15.9725C15.5293 15.9725 15.6937 16.1369 15.6937 16.339C15.6937 16.541 15.5293 16.7054 15.3272 16.7054Z" fill="#FF2C2C"/>
<path d="M14.2288 20.2433C14.0562 20.2433 13.9163 20.1033 13.9163 19.9308V19.9236C13.9163 19.751 14.0562 19.6111 14.2288 19.6111C14.4013 19.6111 14.5413 19.751 14.5413 19.9236V19.9308C14.5413 20.1034 14.4013 20.2433 14.2288 20.2433Z" fill="#9393FF"/>
<path d="M15.2725 20.2433C15.0999 20.2433 14.96 20.1033 14.96 19.9308V19.9236C14.96 19.751 15.0999 19.6111 15.2725 19.6111C15.445 19.6111 15.585 19.751 15.585 19.9236V19.9308C15.585 20.1034 15.445 20.2433 15.2725 20.2433Z" fill="#9393FF"/>
<path d="M16.3159 20.2433C16.1434 20.2433 16.0034 20.1033 16.0034 19.9308V19.9236C16.0034 19.751 16.1434 19.6111 16.3159 19.6111C16.4885 19.6111 16.6284 19.751 16.6284 19.9236V19.9308C16.6284 20.1034 16.4885 20.2433 16.3159 20.2433Z" fill="#9393FF"/>
<path d="M22.3577 16.6514H21.7344C21.5618 16.6514 21.4219 16.5114 21.4219 16.3389C21.4219 16.1663 21.5618 16.0264 21.7344 16.0264H22.3577C22.5302 16.0264 22.6702 16.1663 22.6702 16.3389C22.6702 16.5115 22.5303 16.6514 22.3577 16.6514Z" fill="#FF6C6C"/>
<path d="M8.92043 16.6514H8.29712C8.12456 16.6514 7.98462 16.5114 7.98462 16.3389C7.98462 16.1663 8.12456 16.0264 8.29712 16.0264H8.92043C9.09299 16.0264 9.23293 16.1663 9.23293 16.3389C9.23293 16.5115 9.09306 16.6514 8.92043 16.6514Z" fill="#FF6C6C"/>
<path d="M15.0146 23.4944V22.8711C15.0146 22.6985 15.1546 22.5586 15.3271 22.5586C15.4997 22.5586 15.6396 22.6985 15.6396 22.8711V23.4944C15.6396 23.667 15.4997 23.8069 15.3271 23.8069C15.1546 23.8069 15.0146 23.667 15.0146 23.4944Z" fill="#FF6C6C"/>
<path d="M15.0146 9.93239V9.30908C15.0146 9.13652 15.1546 8.99658 15.3271 8.99658C15.4997 8.99658 15.6396 9.13652 15.6396 9.30908V9.93239C15.6396 10.105 15.4997 10.2449 15.3271 10.2449C15.1546 10.2449 15.0146 10.105 15.0146 9.93239Z" fill="#FF6C6C"/>
<path d="M15.3272 16.7054C15.5296 16.7054 15.6937 16.5413 15.6937 16.3389C15.6937 16.1365 15.5296 15.9724 15.3272 15.9724C15.1248 15.9724 14.9607 16.1365 14.9607 16.3389C14.9607 16.5413 15.1248 16.7054 15.3272 16.7054Z" fill="white"/>
<path d="M29.5629 12.9905C29.3702 7.06467 24.6017 2.29548 18.6752 2.10273C18.4712 2.09611 18.3022 2.26079 18.3022 2.46492L18.3023 3.93242L27.7337 13.3635H29.2007C29.4049 13.3635 29.5696 13.1946 29.5629 12.9905Z" fill="#FF9C33"/>
<path d="M18.3025 3.93262C23.5112 3.93262 27.7337 8.15512 27.7337 13.3638H26.9315L18.3025 4.73487V3.93262Z" fill="#FFC498"/>
<path d="M26.9315 13.3639C26.9315 8.59818 23.0682 4.73486 18.3025 4.73486V13.0021C18.3025 13.2019 18.4645 13.3639 18.6643 13.3639H26.9315Z" fill="#FFE7DB"/>
<path d="M20.4477 9.30371H20.1074C19.9348 9.30371 19.7949 9.44365 19.7949 9.61621C19.7949 9.78877 19.9348 9.92871 20.1074 9.92871H20.1352V11.4951C20.1352 11.6676 20.275 11.8076 20.4477 11.8076C20.6203 11.8076 20.7602 11.6676 20.7602 11.4951V9.61621C20.7602 9.44365 20.6203 9.30371 20.4477 9.30371Z" fill="#FF9C33"/>
<path d="M23.1853 9.2456V9.34885C23.1853 9.5121 23.3047 9.65785 23.4672 9.67329C23.6536 9.69104 23.8103 9.54492 23.8103 9.36223V9.2456C23.8103 9.07304 23.6704 8.93311 23.4978 8.93311C23.3252 8.93311 23.1853 9.07298 23.1853 9.2456Z" fill="#FF9C33"/>
<path d="M22.1775 10.2431H21.9028V9.92871H22.5802C22.7528 9.92871 22.8927 9.78877 22.8927 9.61621C22.8927 9.44365 22.7528 9.30371 22.5802 9.30371H21.5903C21.4177 9.30371 21.2778 9.44365 21.2778 9.61621V10.5556C21.2778 10.7282 21.4177 10.8681 21.5903 10.8681H22.1775C22.2642 10.8681 22.3348 10.9386 22.3348 11.0254C22.3348 11.1121 22.2642 11.1826 22.1775 11.1826H21.5903C21.4177 11.1826 21.2778 11.3225 21.2778 11.4951C21.2778 11.6676 21.4177 11.8076 21.5903 11.8076H22.1775C22.6088 11.8076 22.9598 11.4567 22.9598 11.0254C22.9598 10.594 22.6088 10.2431 22.1775 10.2431Z" fill="#FF9C33"/>
<path d="M29.5632 12.9905C29.3705 7.06467 24.6019 2.29548 18.6754 2.10273C18.4714 2.09611 18.3025 2.26079 18.3025 2.46492L18.3025 5.62054C17.3554 5.35817 16.3577 5.21736 15.3269 5.21736C9.18492 5.21736 4.2063 10.1967 4.2063 16.3387C4.2063 22.4807 9.18492 27.4601 15.3269 27.4601C21.4697 27.4601 26.4483 22.4807 26.4483 16.3387C26.4483 15.3082 26.3075 14.3105 26.0452 13.3635L29.2009 13.3634C29.4051 13.3635 29.5698 13.1946 29.5632 12.9905Z" fill="url(#paint1_linear_411:2685)"/>
<path d="M11.3805 23.8284H5.37198C3.96167 23.8284 2.81836 24.9717 2.81836 26.382C2.81836 27.7923 3.96167 28.9356 5.37198 28.9356H9.19473C10.605 28.9356 11.7484 27.7923 11.7484 26.382V24.1962C11.7484 23.9931 11.5837 23.8284 11.3805 23.8284Z" fill="#8282FF"/>
<path d="M5.29972 27.6338C5.12716 27.6338 4.98722 27.4938 4.98722 27.3213V25.7549H4.95947C4.78691 25.7549 4.64697 25.6149 4.64697 25.4424C4.64697 25.2698 4.78691 25.1299 4.95947 25.1299H5.29972C5.47229 25.1299 5.61222 25.2698 5.61222 25.4424V27.3213C5.61222 27.4938 5.47229 27.6338 5.29972 27.6338Z" fill="white"/>
<path d="M7.02951 27.6338H6.44238C6.26982 27.6338 6.12988 27.4938 6.12988 27.3213C6.12988 27.1487 6.26982 27.0088 6.44238 27.0088H7.02951C7.1162 27.0088 7.18676 26.9383 7.18676 26.8515C7.18676 26.7648 7.11626 26.6943 7.02951 26.6943H6.44238C6.26982 26.6943 6.12988 26.5544 6.12988 26.3818V25.4424C6.12988 25.2698 6.26982 25.1299 6.44238 25.1299H7.4322C7.60476 25.1299 7.7447 25.2698 7.7447 25.4424C7.7447 25.6149 7.60476 25.7549 7.4322 25.7549H6.75488V26.0693H7.02951C7.46082 26.0693 7.81176 26.4202 7.81176 26.8515C7.81176 27.2829 7.46088 27.6338 7.02951 27.6338Z" fill="white"/>
<path d="M9.50196 26.6284H8.76709C8.59453 26.6284 8.45459 26.7684 8.45459 26.9409C8.45459 27.1135 8.59453 27.2534 8.76709 27.2534H9.50196C9.67453 27.2534 9.81446 27.1135 9.81446 26.9409C9.81446 26.7684 9.67453 26.6284 9.50196 26.6284Z" fill="#B2B2FF"/>
<path d="M10.1412 25.3857H8.76709C8.59453 25.3857 8.45459 25.5257 8.45459 25.6982C8.45459 25.8708 8.59453 26.0107 8.76709 26.0107H10.1412C10.3138 26.0107 10.4537 25.8708 10.4537 25.6982C10.4537 25.5257 10.3138 25.3857 10.1412 25.3857Z" fill="#B2B2FF"/>
<path d="M23.9329 28.5022C23.9041 28.5022 23.8754 28.4982 23.8474 28.4903C23.028 28.2573 22.9667 27.0817 22.9644 27.0318C22.9581 26.8899 23.0484 26.7615 23.1842 26.7194L23.8404 26.5162C23.9006 26.4975 23.9651 26.4975 24.0253 26.5162L24.6816 26.7194C24.8173 26.7615 24.9076 26.8898 24.9013 27.0318C24.8991 27.0817 24.8377 28.2573 24.0183 28.4903C23.9904 28.4982 23.9616 28.5022 23.9329 28.5022ZM23.6199 27.2387C23.6635 27.4587 23.757 27.7375 23.9329 27.8502C24.1087 27.7376 24.2022 27.4588 24.2458 27.2387L23.9329 27.1418L23.6199 27.2387Z" fill="#FF6C6C"/>
<path d="M10.4536 4.59177C10.4249 4.59177 10.3961 4.58783 10.3682 4.57989C9.5488 4.34696 9.48742 3.17133 9.48517 3.12139C9.47886 2.97945 9.56917 2.85108 9.70492 2.80902L10.3612 2.60577C10.4214 2.58714 10.4859 2.58714 10.5461 2.60577L11.2023 2.80902C11.3381 2.85108 11.4284 2.97939 11.4221 3.12139C11.4198 3.17133 11.3584 4.34696 10.5391 4.57989C10.5111 4.58777 10.4824 4.59177 10.4536 4.59177ZM10.1407 3.32833C10.1842 3.54827 10.2777 3.82714 10.4536 3.93977C10.6294 3.82721 10.7229 3.54845 10.7666 3.32833L10.4536 3.23139L10.1407 3.32833Z" fill="#6C6CFF"/>
<path d="M28.1241 16.9118C28.0441 16.9118 27.9641 16.8813 27.9031 16.8203C27.781 16.6983 27.781 16.5004 27.9031 16.3784L28.5281 15.7534C28.6501 15.6314 28.8479 15.6314 28.97 15.7534C29.0921 15.8754 29.0921 16.0733 28.97 16.1953L28.345 16.8203C28.284 16.8813 28.2041 16.9118 28.1241 16.9118Z" fill="#6C6CFF"/>
<path d="M14.2288 3.21673C14.1488 3.21673 14.0689 3.18623 14.0078 3.12523C13.8857 3.00317 13.8857 2.8053 14.0078 2.6833L14.6328 2.0583C14.7549 1.9363 14.9527 1.9363 15.0747 2.0583C15.1968 2.18036 15.1968 2.37823 15.0747 2.50023L14.4497 3.12523C14.3887 3.18623 14.3088 3.21673 14.2288 3.21673Z" fill="#FF9C33"/>
<path d="M2.50591 21.9794C2.42591 21.9794 2.34597 21.9489 2.28491 21.8879C2.16284 21.7659 2.16284 21.568 2.28491 21.446L2.90991 20.821C3.03197 20.699 3.22978 20.699 3.35184 20.821C3.47391 20.9431 3.47391 21.1409 3.35184 21.2629L2.72684 21.8879C2.66584 21.9489 2.58591 21.9794 2.50591 21.9794Z" fill="#FF9C33"/>
</g>
<defs>
<linearGradient id="paint0_linear_411:2685" x1="10.3382" y1="24.5545" x2="29.2771" y2="5.61565" gradientUnits="userSpaceOnUse">
<stop stop-color="white" stop-opacity="0"/>
<stop offset="0.2617" stop-color="#EDEDFF" stop-opacity="0.416"/>
<stop offset="0.629" stop-color="#D8D8FF"/>
</linearGradient>
<linearGradient id="paint1_linear_411:2685" x1="16.8849" y1="27.4602" x2="16.8849" y2="2.10261" gradientUnits="userSpaceOnUse">
<stop stop-color="#FF4D4D" stop-opacity="0.4"/>
<stop offset="0.1463" stop-color="#FF4D4D" stop-opacity="0.342"/>
<stop offset="1" stop-color="#FF4D4D" stop-opacity="0"/>
</linearGradient>
<clipPath id="clip0_411:2685">
<rect width="32" height="32" fill="white"/>
</clipPath>
</defs>
</svg>
