<svg width="22" height="22" viewBox="0 0 22 22" fill="none" xmlns="http://www.w3.org/2000/svg">
<path d="M3.66699 18.3334V11.9167H10.0837L7.13474 14.8684C8.1522 15.9088 9.54508 16.4967 11.0003 16.5C13.3282 16.4966 15.4017 15.0281 16.1777 12.8334H16.1942C16.2992 12.5351 16.3786 12.2284 16.4316 11.9167H18.2759C17.814 15.5833 14.6959 18.3333 11.0003 18.3334H10.9912C9.04669 18.3392 7.18072 17.5668 5.80924 16.1884L3.66699 18.3334ZM5.56816 10.0834H3.72383C4.1856 6.41817 7.30157 3.66867 10.9957 3.66666H11.0003C12.9452 3.66044 14.8116 4.43289 16.1832 5.8117L18.3337 3.66666V10.0834H11.917L14.8705 7.1317C13.852 6.09004 12.4572 5.502 11.0003 5.50003C8.6725 5.50347 6.59893 6.972 5.82299 9.1667H5.80649C5.70067 9.46472 5.62122 9.77145 5.56908 10.0834H5.56816Z" fill="white"/>
</svg>
