<svg width="52" height="52" viewBox="0 0 52 52" fill="none" xmlns="http://www.w3.org/2000/svg">
<circle cx="26" cy="26" r="26" fill="#1982C4"/>
<g clip-path="url(#clip0_590:1426)">
<path d="M13.7008 23.4587L12.0127 25.1519H13.7008V23.4587Z" fill="#088FAF"/>
<path d="M38.2957 23.4587L39.9844 25.1519H38.2957V23.4587Z" fill="#088FAF"/>
<path d="M38.3162 16.8306C38.3161 16.6648 38.2503 16.5059 38.133 16.3887L31.9193 10.1749C31.8021 10.0577 31.6432 9.99186 31.4774 9.99182H14.3262C14.1604 9.99182 14.0014 10.0577 13.8842 10.1749C13.767 10.2921 13.7012 10.4511 13.7012 10.6168V41.3668C13.7012 41.5326 13.767 41.6916 13.8842 41.8088C14.0014 41.926 14.1604 41.9918 14.3262 41.9918H37.6912C37.8569 41.9918 38.0159 41.926 38.1331 41.8088C38.2503 41.6916 38.3162 41.5326 38.3162 41.3668V16.8306Z" fill="#F1F1F1"/>
<path d="M38.2954 16.6749C38.2682 16.5666 38.212 16.4677 38.1329 16.3887L31.9192 10.1749C31.802 10.0577 31.643 9.99186 31.4773 9.99182V15.9243C31.4773 16.1232 31.5563 16.314 31.697 16.4547C31.8376 16.5953 32.0284 16.6743 32.2273 16.6743L38.2954 16.6749Z" fill="#CCCCCC"/>
<path d="M38.2958 16.675H32.2283C32.0294 16.675 31.8386 16.596 31.6979 16.4554C31.5573 16.3147 31.4783 16.124 31.4783 15.925V16.5594C31.4783 16.9738 31.7358 17.4969 32.252 17.4969H38.3145V16.8307C38.3185 16.7781 38.3121 16.7252 38.2958 16.675Z" fill="#E8E8E8"/>
<path d="M39.5069 35.7606H12.4932C12.3274 35.7606 12.1684 35.6948 12.0512 35.5776C11.934 35.4603 11.8682 35.3014 11.8682 35.1356V25.5519C11.8682 25.3861 11.934 25.2271 12.0512 25.1099C12.1684 24.9927 12.3274 24.9269 12.4932 24.9269H39.5069C39.6727 24.9269 39.8316 24.9927 39.9489 25.1099C40.0661 25.2271 40.1319 25.3861 40.1319 25.5519V35.135C40.132 35.2171 40.1159 35.2985 40.0845 35.3744C40.0531 35.4503 40.0071 35.5192 39.9491 35.5773C39.891 35.6354 39.8221 35.6815 39.7462 35.713C39.6704 35.7444 39.589 35.7606 39.5069 35.7606Z" fill="#29ABE1"/>
<path d="M13.7007 35.7606H38.3163V36.5712H13.7007V35.7606Z" fill="#E0E0E0"/>
<path d="M17.4675 32.7657C17.4192 32.7127 17.3821 32.6505 17.3584 32.5829C17.3348 32.5152 17.3251 32.4434 17.33 32.3719V29.0263C17.3218 28.9545 17.3299 28.8819 17.3537 28.8137C17.3775 28.7455 17.4164 28.6836 17.4675 28.6325C17.5186 28.5815 17.5805 28.5426 17.6487 28.5188C17.7168 28.495 17.7895 28.4869 17.8612 28.495H19.125C19.6133 28.495 20.0333 28.5836 20.385 28.7607C20.7263 28.9262 21.0095 29.1912 21.1975 29.5207C21.385 29.8502 21.4787 30.2421 21.4787 30.6963C21.4787 31.1505 21.386 31.5463 21.2006 31.8838C21.0163 32.214 20.7345 32.4792 20.3937 32.6432C20.0421 32.8182 19.62 32.9057 19.1275 32.9057H17.8612C17.7896 32.9101 17.7177 32.9 17.6501 32.8759C17.5824 32.8519 17.5203 32.8144 17.4675 32.7657ZM19.0431 31.9782C19.4727 31.9782 19.7948 31.8728 20.0094 31.6619C20.2239 31.4511 20.3312 31.1292 20.3312 30.6963C20.3312 30.2625 20.2239 29.9415 20.0094 29.7332C19.7948 29.5248 19.4727 29.4207 19.0431 29.4207H18.4806V31.9782H19.0431Z" fill="white"/>
<path d="M23.0865 32.6812C22.7589 32.5001 22.4923 32.2261 22.3202 31.8937C22.1433 31.5193 22.0515 31.1104 22.0515 30.6962C22.0515 30.2821 22.1433 29.8732 22.3202 29.4987C22.4919 29.1667 22.7587 28.8934 23.0865 28.7137C23.4509 28.5329 23.8522 28.4387 24.259 28.4387C24.6658 28.4387 25.0671 28.5329 25.4315 28.7137C25.7589 28.8933 26.0246 29.1673 26.194 29.5C26.3695 29.8749 26.4602 30.2839 26.4597 30.6978C26.4591 31.1118 26.3673 31.5205 26.1909 31.895C26.0188 32.2274 25.7522 32.5014 25.4246 32.6825C25.0622 32.8658 24.6617 32.9613 24.2556 32.9613C23.8494 32.9613 23.4489 32.8658 23.0865 32.6825V32.6812ZM25.0402 31.725C25.2277 31.4892 25.3215 31.1462 25.3215 30.6962C25.3215 30.2462 25.2267 29.9044 25.0371 29.6706C24.848 29.4369 24.5886 29.3202 24.259 29.3206C23.9294 29.321 23.6688 29.4367 23.4771 29.6675C23.2896 29.8987 23.1959 30.2417 23.1959 30.6962C23.1959 31.1508 23.2896 31.4948 23.4771 31.7281C23.6646 31.9615 23.9252 32.0781 24.259 32.0781C24.5927 32.0781 24.8532 31.9604 25.0402 31.725Z" fill="white"/>
<path d="M28.0701 32.6875C27.7411 32.5072 27.4733 32.2331 27.3007 31.9C27.1217 31.5262 27.0288 31.117 27.0288 30.7025C27.0288 30.288 27.1217 29.8789 27.3007 29.505C27.4734 29.1719 27.7412 28.8976 28.0701 28.7169C28.4709 28.5142 28.9181 28.4207 29.3666 28.4459C29.815 28.4712 30.2489 28.6142 30.6244 28.8606C30.6873 28.9023 30.7397 28.9579 30.7776 29.0231C30.8113 29.0932 30.8274 29.1704 30.8244 29.2481C30.8278 29.3672 30.7891 29.4836 30.7151 29.5769C30.6842 29.6184 30.644 29.6522 30.5978 29.6755C30.5516 29.6989 30.5006 29.7111 30.4488 29.7113C30.3913 29.7121 30.3342 29.7026 30.2801 29.6831C30.2189 29.6587 30.1603 29.6284 30.1051 29.5925C29.9762 29.5126 29.8376 29.4495 29.6926 29.405C29.5626 29.3674 29.4279 29.3485 29.2926 29.3488C28.9213 29.3488 28.6451 29.4602 28.4638 29.6831C28.2826 29.9061 28.1919 30.2448 28.1919 30.6994C28.1919 31.1577 28.2826 31.4986 28.4638 31.7219C28.6451 31.9452 28.9213 32.0567 29.2926 32.0563C29.416 32.0555 29.5385 32.0343 29.6551 31.9938C29.7719 31.9544 29.9219 31.8925 30.1051 31.8094C30.1926 31.7631 30.2576 31.7319 30.2988 31.715C30.3469 31.6977 30.3977 31.6894 30.4488 31.6906C30.5006 31.6907 30.5517 31.7028 30.5979 31.7262C30.6442 31.7495 30.6843 31.7834 30.7151 31.825C30.7891 31.9181 30.8278 32.0343 30.8244 32.1531C30.8268 32.2298 30.8107 32.3059 30.7776 32.375C30.7406 32.4417 30.6881 32.4985 30.6244 32.5406C30.2149 32.8231 29.7269 32.9698 29.2294 32.96C28.826 32.9702 28.4267 32.8763 28.0701 32.6875Z" fill="white"/>
<path d="M35.0388 32.4157C35.0392 32.4863 35.0247 32.5563 34.9962 32.6209C34.9676 32.6856 34.9257 32.7434 34.8732 32.7907C34.8246 32.8411 34.7664 32.8813 34.7019 32.9088C34.6375 32.9363 34.5682 32.9505 34.4982 32.9507C34.4246 32.9501 34.3521 32.933 34.2861 32.9005C34.2201 32.868 34.1622 32.8211 34.1169 32.7632L33.0413 31.475L31.95 32.7594C31.9055 32.8167 31.8488 32.8633 31.7839 32.8958C31.719 32.9282 31.6476 32.9457 31.575 32.9469C31.5047 32.9466 31.4352 32.932 31.3708 32.9039C31.3063 32.8759 31.2482 32.835 31.2 32.7838C31.148 32.7362 31.1064 32.6782 31.0778 32.6137C31.0493 32.5491 31.0345 32.4794 31.0344 32.4088C31.0359 32.2841 31.0826 32.1642 31.1657 32.0713L32.3663 30.6832L31.1969 29.3263C31.1116 29.234 31.0628 29.1138 31.0594 28.9882C31.0594 28.918 31.0741 28.8487 31.1027 28.7846C31.1312 28.7205 31.1729 28.6632 31.225 28.6163C31.2745 28.5659 31.3334 28.5259 31.3984 28.4985C31.4634 28.4712 31.5333 28.457 31.6038 28.4569C31.6773 28.4577 31.7497 28.4749 31.8157 28.5074C31.8817 28.5398 31.9396 28.5866 31.985 28.6444L33.0419 29.8944L34.0925 28.6444C34.1348 28.5863 34.1903 28.539 34.2544 28.5064C34.3185 28.4738 34.3894 28.4569 34.4613 28.4569C34.5317 28.457 34.6015 28.4712 34.6664 28.4986C34.7313 28.5259 34.7901 28.5659 34.8394 28.6163C34.8915 28.6632 34.9332 28.7205 34.9618 28.7846C34.9903 28.8487 35.005 28.918 35.005 28.9882C35.0036 29.113 34.957 29.2332 34.8738 29.3263L33.7044 30.6832L34.8988 32.0713C34.9872 32.1643 35.0372 32.2873 35.0388 32.4157Z" fill="white"/>
</g>
<defs>
<clipPath id="clip0_590:1426">
<rect width="32" height="32" fill="white" transform="translate(10 10)"/>
</clipPath>
</defs>
</svg>
