<svg width="52" height="52" viewBox="0 0 52 52" fill="none" xmlns="http://www.w3.org/2000/svg">
<circle cx="26" cy="26" r="26" fill="#00C9BB"/>
<g clip-path="url(#clip0_590:1427)">
<path d="M38.3164 16.8306C38.3164 16.6648 38.2505 16.5059 38.1333 16.3887L31.9195 10.1749C31.8024 10.0577 31.6434 9.99186 31.4777 9.99182H14.3264C14.1607 9.99182 14.0017 10.0577 13.8845 10.1749C13.7673 10.2921 13.7014 10.4511 13.7014 10.6168V41.3668C13.7014 41.5326 13.7673 41.6916 13.8845 41.8088C14.0017 41.926 14.1607 41.9918 14.3264 41.9918H37.6914C37.8572 41.9918 38.0161 41.926 38.1334 41.8088C38.2506 41.6916 38.3164 41.5326 38.3164 41.3668V16.8306Z" fill="#F1F1F1"/>
<path d="M38.2957 16.6749C38.2684 16.5666 38.2122 16.4677 38.1332 16.3887L31.9194 10.1749C31.8022 10.0577 31.6433 9.99186 31.4775 9.99182V15.9243C31.4775 16.1232 31.5566 16.314 31.6972 16.4547C31.8379 16.5953 32.0286 16.6743 32.2275 16.6743L38.2957 16.6749Z" fill="#CCCCCC"/>
<path d="M38.2958 16.675H32.2283C32.0294 16.675 31.8386 16.596 31.6979 16.4554C31.5573 16.3147 31.4783 16.124 31.4783 15.925V16.5594C31.4783 16.9738 31.7358 17.4969 32.252 17.4969H38.3145V16.8307C38.3185 16.7781 38.3121 16.7252 38.2958 16.675Z" fill="#E8E8E8"/>
<path d="M13.7006 23.4587L12.0125 25.1519H13.7006V23.4587Z" fill="#008275"/>
<path d="M38.2957 23.4587L39.9844 25.1519H38.2957V23.4587Z" fill="#008275"/>
<path d="M39.5069 35.7606H12.4932C12.3274 35.7606 12.1684 35.6948 12.0512 35.5776C11.934 35.4604 11.8682 35.3014 11.8682 35.1356V25.5519C11.8682 25.3861 11.934 25.2271 12.0512 25.1099C12.1684 24.9927 12.3274 24.9269 12.4932 24.9269H39.5069C39.6727 24.9269 39.8316 24.9927 39.9489 25.1099C40.0661 25.2271 40.1319 25.3861 40.1319 25.5519V35.135C40.132 35.2171 40.1159 35.2985 40.0845 35.3744C40.0532 35.4503 40.0071 35.5192 39.9491 35.5773C39.891 35.6355 39.8221 35.6815 39.7462 35.713C39.6704 35.7444 39.589 35.7606 39.5069 35.7606Z" fill="#00A99D"/>
<path d="M13.7007 35.7606H38.3163V36.5712H13.7007V35.7606Z" fill="#E0E0E0"/>
<path d="M24.2181 32.4157C24.2184 32.4864 24.2038 32.5564 24.1752 32.621C24.1465 32.6857 24.1045 32.7435 24.0518 32.7907C24.0033 32.8412 23.945 32.8814 23.8806 32.9089C23.8162 32.9364 23.7469 32.9506 23.6768 32.9507C23.6033 32.9501 23.5308 32.9329 23.4648 32.9004C23.3988 32.868 23.341 32.8211 23.2956 32.7632L22.2199 31.4751L21.1256 32.7632C21.0811 32.8205 21.0243 32.8672 20.9594 32.8996C20.8945 32.9321 20.8231 32.9495 20.7506 32.9507C20.6803 32.9503 20.6108 32.9356 20.5463 32.9076C20.4819 32.8796 20.4238 32.8387 20.3756 32.7876C20.3265 32.7431 20.2866 32.6894 20.2583 32.6294C20.23 32.5695 20.2137 32.5046 20.2105 32.4385C20.2074 32.3723 20.2172 32.3061 20.2397 32.2437C20.2621 32.1814 20.2966 32.1241 20.3412 32.0751L21.5418 30.6869L20.3724 29.3301C20.2874 29.2376 20.2386 29.1175 20.2349 28.9919C20.2349 28.9218 20.2497 28.8525 20.2782 28.7884C20.3067 28.7243 20.3484 28.667 20.4006 28.6201C20.45 28.5697 20.5089 28.5297 20.5739 28.5023C20.639 28.475 20.7088 28.4608 20.7793 28.4607C20.8528 28.4614 20.9253 28.4786 20.9913 28.5111C21.0572 28.5435 21.1151 28.5904 21.1606 28.6482L22.2174 29.8982L23.2681 28.6482C23.3104 28.5901 23.3659 28.5428 23.43 28.5103C23.4941 28.4777 23.5649 28.4607 23.6368 28.4607C23.7073 28.4608 23.777 28.4749 23.8419 28.5023C23.9069 28.5296 23.9657 28.5697 24.0149 28.6201C24.0671 28.667 24.1088 28.7243 24.1373 28.7884C24.1658 28.8525 24.1806 28.9218 24.1806 28.9919C24.1794 29.1169 24.1328 29.2371 24.0493 29.3301L22.8806 30.6869L24.0743 32.0751C24.1632 32.1666 24.2145 32.2882 24.2181 32.4157Z" fill="white"/>
<path d="M24.8993 32.7657C24.8075 32.6745 24.7618 32.5407 24.7618 32.3657V29.0263C24.7583 28.9513 24.7701 28.8763 24.7964 28.8059C24.8227 28.7356 24.8631 28.6713 24.915 28.617C24.9703 28.5646 25.0356 28.5241 25.1071 28.4978C25.1785 28.4714 25.2546 28.4599 25.3306 28.4638C25.4082 28.4597 25.4858 28.4711 25.5589 28.4974C25.6319 28.5237 25.699 28.5644 25.7562 28.617C25.809 28.6708 25.85 28.735 25.8769 28.8054C25.9038 28.8758 25.9159 28.951 25.9125 29.0263V31.972H27.35C27.7125 31.972 27.8939 32.1282 27.8943 32.4407C27.8943 32.5995 27.8493 32.7157 27.7593 32.7907C27.6693 32.8657 27.5337 32.9038 27.35 32.9038H25.2931C25.2215 32.9085 25.1498 32.8986 25.0821 32.8749C25.0145 32.8512 24.9523 32.814 24.8993 32.7657Z" fill="white"/>
<path d="M29.0168 32.8501C28.7655 32.7928 28.5268 32.6901 28.3124 32.5469C28.2497 32.5025 28.1975 32.4449 28.1593 32.3782C28.1254 32.3082 28.1093 32.2309 28.1124 32.1532C28.1103 32.035 28.1502 31.9198 28.2249 31.8282C28.255 31.7865 28.2944 31.7523 28.34 31.7284C28.3855 31.7046 28.436 31.6916 28.4874 31.6907C28.5405 31.6904 28.5933 31.6988 28.6437 31.7157C28.7095 31.7397 28.7724 31.7712 28.8312 31.8094C28.9912 31.9006 29.1627 31.97 29.3412 32.0157C29.5286 32.0595 29.7206 32.0805 29.9131 32.0782C30.1593 32.0782 30.3456 32.0419 30.4756 31.9688C30.5345 31.9385 30.5837 31.8922 30.6175 31.8351C30.6512 31.778 30.6681 31.7126 30.6662 31.6463C30.6662 31.5509 30.6068 31.4686 30.4881 31.3994C30.3693 31.3303 30.1431 31.2626 29.8093 31.1963C29.4741 31.1343 29.1483 31.0292 28.8399 30.8838C28.6066 30.7626 28.4431 30.6198 28.3493 30.4557C28.2424 30.2475 28.1949 30.0139 28.212 29.7805C28.2291 29.5471 28.3101 29.3229 28.4462 29.1326C28.6149 28.9088 28.8398 28.7337 29.0981 28.6251C29.3938 28.497 29.7133 28.4331 30.0356 28.4376C30.3097 28.4337 30.5831 28.4673 30.8481 28.5376C31.0815 28.6025 31.3016 28.7083 31.4981 28.8501C31.5641 28.8941 31.6188 28.953 31.6581 29.0219C31.6913 29.0913 31.7074 29.1676 31.7049 29.2444C31.7071 29.3621 31.6685 29.477 31.5956 29.5694C31.5661 29.6112 31.5272 29.6454 31.482 29.6693C31.4369 29.6932 31.3867 29.7061 31.3356 29.7069C31.2847 29.7073 31.2342 29.6999 31.1856 29.6851C31.1177 29.6598 31.0527 29.6273 30.9918 29.5882C30.9712 29.5757 30.9112 29.5432 30.8137 29.4913C30.7049 29.4351 30.5894 29.3931 30.4699 29.3663C30.3293 29.334 30.1854 29.3183 30.0412 29.3194C29.8623 29.311 29.6846 29.3532 29.5287 29.4413C29.4704 29.4725 29.4216 29.5189 29.3875 29.5756C29.3534 29.6322 29.3352 29.697 29.3349 29.7632C29.3317 29.8343 29.3564 29.9038 29.4037 29.9569C29.4775 30.0239 29.5649 30.074 29.6599 30.1038C29.8413 30.167 30.0273 30.2161 30.2162 30.2507C30.5437 30.3133 30.8614 30.4196 31.1606 30.5669C31.3593 30.6623 31.5282 30.8104 31.6487 30.9951C31.7477 31.1702 31.7973 31.3689 31.7924 31.5701C31.7967 31.8318 31.7153 32.0877 31.5606 32.2988C31.3947 32.5185 31.1706 32.6874 30.9137 32.7863C30.6061 32.9069 30.2777 32.9655 29.9474 32.9588C29.6339 32.9618 29.3212 32.9252 29.0168 32.8501Z" fill="white"/>
</g>
<defs>
<clipPath id="clip0_590:1427">
<rect width="32" height="32" fill="white" transform="translate(10 10)"/>
</clipPath>
</defs>
</svg>
