<svg width="22" height="22" viewBox="0 0 22 22" fill="none" xmlns="http://www.w3.org/2000/svg">
<path fill-rule="evenodd" clip-rule="evenodd" d="M10.9996 8.83789C9.78047 8.83789 8.78955 9.82972 8.78955 11.0489C8.78955 12.2671 9.78047 13.2581 10.9996 13.2581C12.2188 13.2581 13.2106 12.2671 13.2106 11.0489C13.2106 9.82972 12.2188 8.83789 10.9996 8.83789ZM10.9996 14.6331C9.02238 14.6331 7.41455 13.0252 7.41455 11.0489C7.41455 9.07164 9.02238 7.46289 10.9996 7.46289C12.9769 7.46289 14.5856 9.07164 14.5856 11.0489C14.5856 13.0252 12.9769 14.6331 10.9996 14.6331Z" fill="#96A3AB"/>
<mask id="mask0_206:5593" style="mask-type:alpha" maskUnits="userSpaceOnUse" x="1" y="3" width="20" height="16">
<path fill-rule="evenodd" clip-rule="evenodd" d="M1.83347 3.66687H20.1667V18.4298H1.83347V3.66687Z" fill="white"/>
</mask>
<g mask="url(#mask0_206:5593)">
<path fill-rule="evenodd" clip-rule="evenodd" d="M3.2724 11.0482C4.9774 14.8148 7.84932 17.0542 10.9999 17.0551C14.1505 17.0542 17.0224 14.8148 18.7274 11.0482C17.0224 7.28253 14.1505 5.04311 10.9999 5.04219C7.85024 5.04311 4.9774 7.28253 3.2724 11.0482ZM11.0017 18.4301H10.9981H10.9972C7.20582 18.4274 3.80132 15.7699 1.88915 11.3195C1.8149 11.1463 1.8149 10.9501 1.88915 10.7769C3.80132 6.32736 7.20674 3.66994 10.9972 3.66719C10.999 3.66627 10.999 3.66627 10.9999 3.66719C11.0017 3.66627 11.0017 3.66627 11.0027 3.66719C14.794 3.66994 18.1985 6.32736 20.1107 10.7769C20.1858 10.9501 20.1858 11.1463 20.1107 11.3195C18.1994 15.7699 14.794 18.4274 11.0027 18.4301H11.0017Z" fill="#96A3AB"/>
</g>
</svg>
