<svg width="32" height="32" viewBox="0 0 32 32" fill="none" xmlns="http://www.w3.org/2000/svg">
<circle cx="16" cy="16" r="16" fill="#FFCA3A"/>
<g clip-path="url(#clip0_746:1658)">
<path d="M23.5791 10.3574C23.5791 10.2554 23.5385 10.1576 23.4664 10.0855L19.6425 6.26162C19.5704 6.18948 19.4726 6.14895 19.3706 6.14893H8.81601C8.71401 6.14893 8.61618 6.18945 8.54405 6.26158C8.47192 6.33371 8.4314 6.43153 8.4314 6.53354V25.4566C8.4314 25.5586 8.47192 25.6565 8.54405 25.7286C8.61618 25.8007 8.71401 25.8412 8.81601 25.8412H23.1945C23.2965 25.8412 23.3943 25.8007 23.4664 25.7286C23.5386 25.6565 23.5791 25.5586 23.5791 25.4566V10.3574Z" fill="#F1F1F1"/>
<path d="M23.5664 10.2616C23.5496 10.1949 23.515 10.1341 23.4664 10.0855L19.6425 6.26162C19.5704 6.18948 19.4726 6.14895 19.3706 6.14893V9.7997C19.3706 9.9221 19.4192 10.0395 19.5058 10.1261C19.5923 10.2126 19.7097 10.2612 19.8321 10.2612L23.5664 10.2616Z" fill="#CCCCCC"/>
<path d="M23.5665 10.2618H19.8326C19.7102 10.2618 19.5928 10.2132 19.5063 10.1266C19.4197 10.0401 19.3711 9.9227 19.3711 9.80029V10.1907C19.3711 10.4457 19.5296 10.7676 19.8472 10.7676H23.578V10.3576C23.5805 10.3252 23.5765 10.2927 23.5665 10.2618Z" fill="#E8E8E8"/>
<path d="M8.43118 14.436L7.39233 15.478H8.43118V14.436Z" fill="#FFBB01"/>
<path d="M23.5664 14.436L24.6056 15.478H23.5664V14.436Z" fill="#FFBB01"/>
<path d="M24.3119 22.0068H7.68808C7.58608 22.0068 7.48825 21.9662 7.41612 21.8941C7.34399 21.822 7.30347 21.7241 7.30347 21.6221V15.7245C7.30347 15.6225 7.34399 15.5246 7.41612 15.4525C7.48825 15.3804 7.58608 15.3398 7.68808 15.3398H24.3119C24.4139 15.3398 24.5118 15.3804 24.5839 15.4525C24.656 15.5246 24.6965 15.6225 24.6965 15.7245V21.6218C24.6966 21.6723 24.6867 21.7224 24.6674 21.7691C24.6481 21.8158 24.6197 21.8582 24.584 21.894C24.5483 21.9297 24.5059 21.9581 24.4592 21.9774C24.4125 21.9968 24.3625 22.0068 24.3119 22.0068Z" fill="#FFBB01"/>
<path d="M12.4633 19.9865C12.4604 19.9505 12.4647 19.9143 12.4759 19.88C12.4871 19.8456 12.5051 19.8139 12.5287 19.7865C12.5725 19.7431 12.6417 19.7184 12.7367 19.7134L12.8675 19.7058C12.9005 19.7065 12.9333 19.6999 12.9635 19.6867C12.9937 19.6734 13.0207 19.6536 13.0425 19.6288C13.0848 19.5731 13.106 19.5041 13.1021 19.4342V17.8623C13.1 17.8159 13.1075 17.7697 13.124 17.7263C13.1405 17.683 13.1658 17.6435 13.1983 17.6104C13.2335 17.578 13.2747 17.553 13.3197 17.5368C13.3647 17.5206 13.4125 17.5136 13.4602 17.5161C13.5069 17.5142 13.5536 17.5215 13.5975 17.5377C13.6414 17.5539 13.6817 17.5786 13.716 17.6104C13.749 17.6432 13.7748 17.6826 13.7916 17.7259C13.8085 17.7693 13.8162 17.8158 13.814 17.8623V19.4231C13.814 19.6795 13.7467 19.879 13.6121 20.0215C13.4775 20.1641 13.2767 20.2443 13.0098 20.2623L12.8867 20.27C12.6044 20.2836 12.4633 20.1891 12.4633 19.9865Z" fill="white"/>
<path d="M14.401 20.1771C14.3692 20.1433 14.3445 20.1033 14.3285 20.0597C14.3124 20.0161 14.3053 19.9697 14.3076 19.9233V17.8625C14.3025 17.8184 14.3075 17.7736 14.3222 17.7317C14.3368 17.6897 14.3608 17.6516 14.3922 17.6202C14.4236 17.5888 14.4617 17.5649 14.5037 17.5502C14.5456 17.5356 14.5903 17.5306 14.6345 17.5356H15.6195C15.92 17.5356 16.1535 17.6119 16.3199 17.7644C16.4863 17.917 16.5697 18.1293 16.5702 18.4014C16.5702 18.6706 16.4861 18.8823 16.3179 19.0364C16.1497 19.1905 15.9169 19.2674 15.6195 19.2671H15.0156V19.921C15.018 19.9679 15.0107 20.0149 14.9942 20.0589C14.9776 20.1029 14.9522 20.143 14.9195 20.1767C14.8844 20.2092 14.8431 20.2343 14.7981 20.2506C14.7531 20.2668 14.7053 20.2739 14.6576 20.2714C14.6106 20.2739 14.5637 20.2668 14.5196 20.2506C14.4755 20.2344 14.4352 20.2094 14.401 20.1771ZM15.5226 18.7364C15.6537 18.7364 15.7503 18.7091 15.8133 18.6552C15.8764 18.6014 15.9076 18.5183 15.9076 18.4052C15.9076 18.1821 15.7794 18.0706 15.5229 18.0706H15.0153V18.7364H15.5226Z" fill="white"/>
<path d="M19.2456 18.7882C19.2708 18.8128 19.2906 18.8426 19.3035 18.8754C19.3164 18.9082 19.3223 18.9434 19.3206 18.9786V19.6482C19.3237 19.7471 19.314 19.846 19.2918 19.9424C19.2757 20.0056 19.2392 20.0618 19.1879 20.1021C19.1197 20.1489 19.0434 20.1829 18.9629 20.2021C18.8534 20.2296 18.7421 20.2496 18.6298 20.2621C18.5168 20.2755 18.4032 20.2826 18.2894 20.2832C17.9946 20.2832 17.7382 20.2273 17.5202 20.1155C17.3085 20.0098 17.1341 19.8421 17.0202 19.6348C16.9048 19.4255 16.8471 19.1773 16.8471 18.8901C16.8409 18.6337 16.9005 18.38 17.0202 18.1532C17.1328 17.9468 17.3043 17.7787 17.5129 17.6701C17.744 17.5531 18.0005 17.495 18.2594 17.5009C18.4227 17.4987 18.5854 17.5201 18.7425 17.5644C18.885 17.6069 19.0194 17.6725 19.1406 17.7586C19.1793 17.7842 19.2115 17.8184 19.2348 17.8586C19.2556 17.9018 19.2655 17.9495 19.2637 17.9974C19.2659 18.0703 19.2428 18.1416 19.1983 18.1994C19.1804 18.2247 19.1568 18.2453 19.1294 18.2597C19.102 18.2741 19.0716 18.2818 19.0406 18.2821C19.0046 18.2829 18.9687 18.2771 18.9348 18.2648C18.8954 18.248 18.8575 18.2281 18.8214 18.2051C18.7361 18.1579 18.6458 18.1204 18.5521 18.0936C18.4637 18.0699 18.3725 18.0582 18.281 18.059C18.0371 18.059 17.8556 18.1269 17.7364 18.2628C17.6171 18.3987 17.5575 18.6078 17.5575 18.8901C17.5575 19.1801 17.6197 19.395 17.7441 19.5348C17.8684 19.6745 18.0589 19.7444 18.3156 19.7444C18.4384 19.7445 18.5609 19.7316 18.681 19.7059V19.2017H18.4041C18.333 19.2062 18.2628 19.1835 18.2079 19.1382C18.1634 19.0893 18.1387 19.0255 18.1387 18.9594C18.1387 18.8932 18.1634 18.8295 18.2079 18.7805C18.2628 18.7351 18.3329 18.7122 18.4041 18.7167H19.0391C19.0765 18.7142 19.1141 18.7192 19.1496 18.7315C19.1851 18.7438 19.2177 18.7631 19.2456 18.7882Z" fill="white"/>
<path d="M8.43115 22.0063H23.5792V22.5052H8.43115V22.0063Z" fill="#E0E0E0"/>
</g>
<defs>
<clipPath id="clip0_746:1658">
<rect width="19.6923" height="19.6923" fill="white" transform="translate(6.15381 6.15381)"/>
</clipPath>
</defs>
</svg>
