<svg width="32" height="32" viewBox="0 0 32 32" fill="none" xmlns="http://www.w3.org/2000/svg">
<circle cx="16" cy="16" r="16" fill="#FF595E"/>
<g clip-path="url(#clip0_746:1657)">
<path d="M23.5792 10.3574C23.5792 10.2554 23.5387 10.1576 23.4665 10.0855L19.6427 6.26162C19.5706 6.18948 19.4727 6.14895 19.3707 6.14893H8.81613C8.71413 6.14893 8.6163 6.18945 8.54417 6.26158C8.47204 6.33371 8.43152 6.43153 8.43152 6.53354V25.4566C8.43152 25.5586 8.47204 25.6565 8.54417 25.7286C8.6163 25.8007 8.71413 25.8412 8.81613 25.8412H23.1946C23.2966 25.8412 23.3944 25.8007 23.4666 25.7286C23.5387 25.6565 23.5792 25.5586 23.5792 25.4566V10.3574Z" fill="#F1F1F1"/>
<path d="M23.5664 10.2616C23.5496 10.1949 23.515 10.1341 23.4664 10.0855L19.6425 6.26162C19.5704 6.18948 19.4726 6.14895 19.3706 6.14893V9.7997C19.3706 9.9221 19.4192 10.0395 19.5058 10.1261C19.5923 10.2126 19.7097 10.2612 19.8321 10.2612L23.5664 10.2616Z" fill="#CCCCCC"/>
<path d="M23.5665 10.2618H19.8326C19.7102 10.2618 19.5928 10.2132 19.5063 10.1266C19.4197 10.0401 19.3711 9.9227 19.3711 9.80029V10.1907C19.3711 10.4457 19.5296 10.7676 19.8472 10.7676H23.578V10.3576C23.5805 10.3252 23.5765 10.2927 23.5665 10.2618Z" fill="#E8E8E8"/>
<path d="M8.43118 14.436L7.39233 15.478H8.43118V14.436Z" fill="#FF282F"/>
<path d="M23.5665 14.436L24.6058 15.478H23.5665V14.436Z" fill="#FF282F"/>
<path d="M24.3119 22.0068H7.68808C7.58608 22.0068 7.48825 21.9662 7.41612 21.8941C7.34399 21.822 7.30347 21.7241 7.30347 21.6221V15.7245C7.30347 15.6225 7.34399 15.5246 7.41612 15.4525C7.48825 15.3804 7.58608 15.3398 7.68808 15.3398H24.3119C24.4139 15.3398 24.5118 15.3804 24.5839 15.4525C24.656 15.5246 24.6965 15.6225 24.6965 15.7245V21.6218C24.6966 21.6723 24.6867 21.7224 24.6674 21.7691C24.6481 21.8158 24.6197 21.8582 24.584 21.894C24.5483 21.9297 24.5059 21.9581 24.4592 21.9774C24.4125 21.9968 24.3625 22.0068 24.3119 22.0068Z" fill="#FF282F"/>
<path d="M12.4634 19.9865C12.4605 19.9505 12.4648 19.9143 12.476 19.88C12.4872 19.8456 12.5052 19.8139 12.5288 19.7865C12.5726 19.7431 12.6419 19.7184 12.7369 19.7134L12.8676 19.7058C12.9006 19.7065 12.9334 19.6999 12.9636 19.6867C12.9939 19.6734 13.0208 19.6536 13.0426 19.6288C13.085 19.5731 13.1061 19.5041 13.1022 19.4342V17.8623C13.1001 17.8159 13.1076 17.7697 13.1241 17.7263C13.1407 17.683 13.1659 17.6435 13.1984 17.6104C13.2336 17.578 13.2749 17.553 13.3199 17.5368C13.3648 17.5206 13.4126 17.5136 13.4603 17.5161C13.5071 17.5142 13.5537 17.5215 13.5976 17.5377C13.6415 17.5539 13.6818 17.5786 13.7161 17.6104C13.7491 17.6432 13.7749 17.6826 13.7918 17.7259C13.8087 17.7693 13.8163 17.8158 13.8142 17.8623V19.4231C13.8142 19.6795 13.7469 19.879 13.6122 20.0215C13.4776 20.1641 13.2769 20.2443 13.0099 20.2623L12.8869 20.27C12.6046 20.2836 12.4634 20.1891 12.4634 19.9865Z" fill="white"/>
<path d="M14.4011 20.1771C14.3693 20.1433 14.3446 20.1033 14.3286 20.0597C14.3125 20.0161 14.3054 19.9697 14.3077 19.9233V17.8625C14.3027 17.8184 14.3077 17.7736 14.3223 17.7317C14.337 17.6897 14.3609 17.6516 14.3923 17.6202C14.4237 17.5888 14.4618 17.5649 14.5038 17.5502C14.5457 17.5356 14.5905 17.5306 14.6346 17.5356H15.6196C15.9201 17.5356 16.1536 17.6119 16.32 17.7644C16.4864 17.917 16.5699 18.1293 16.5704 18.4014C16.5704 18.6706 16.4863 18.8823 16.3181 19.0364C16.1499 19.1905 15.917 19.2674 15.6196 19.2671H15.0158V19.921C15.0181 19.9679 15.0108 20.0149 14.9943 20.0589C14.9777 20.1029 14.9523 20.143 14.9196 20.1767C14.8845 20.2092 14.8432 20.2343 14.7982 20.2506C14.7532 20.2668 14.7055 20.2739 14.6577 20.2714C14.6108 20.2739 14.5638 20.2668 14.5197 20.2506C14.4756 20.2344 14.4353 20.2094 14.4011 20.1771ZM15.5227 18.7364C15.6538 18.7364 15.7504 18.7091 15.8134 18.6552C15.8765 18.6014 15.9077 18.5183 15.9077 18.4052C15.9077 18.1821 15.7795 18.0706 15.5231 18.0706H15.0154V18.7364H15.5227Z" fill="white"/>
<path d="M19.2457 18.7882C19.271 18.8128 19.2907 18.8426 19.3036 18.8754C19.3166 18.9082 19.3224 18.9434 19.3207 18.9786V19.6482C19.3239 19.7471 19.3142 19.846 19.2919 19.9424C19.2758 20.0056 19.2393 20.0618 19.188 20.1021C19.1198 20.1489 19.0435 20.1829 18.963 20.2021C18.8535 20.2296 18.7422 20.2496 18.6299 20.2621C18.517 20.2755 18.4033 20.2826 18.2896 20.2832C17.9947 20.2832 17.7383 20.2273 17.5203 20.1155C17.3087 20.0098 17.1343 19.8421 17.0203 19.6348C16.9049 19.4255 16.8472 19.1773 16.8472 18.8901C16.841 18.6337 16.9006 18.38 17.0203 18.1532C17.1329 17.9468 17.3045 17.7787 17.513 17.6701C17.7441 17.5531 18.0006 17.495 18.2596 17.5009C18.4228 17.4987 18.5855 17.5201 18.7426 17.5644C18.8851 17.6069 19.0196 17.6725 19.1407 17.7586C19.1794 17.7842 19.2117 17.8184 19.2349 17.8586C19.2558 17.9018 19.2657 17.9495 19.2638 17.9974C19.266 18.0703 19.2429 18.1416 19.1984 18.1994C19.1806 18.2247 19.1569 18.2453 19.1295 18.2597C19.1021 18.2741 19.0717 18.2818 19.0407 18.2821C19.0047 18.2829 18.9688 18.2771 18.9349 18.2648C18.8955 18.248 18.8576 18.2281 18.8215 18.2051C18.7363 18.1579 18.6459 18.1204 18.5523 18.0936C18.4638 18.0699 18.3726 18.0582 18.2811 18.059C18.0373 18.059 17.8557 18.1269 17.7365 18.2628C17.6173 18.3987 17.5576 18.6078 17.5576 18.8901C17.5576 19.1801 17.6198 19.395 17.7442 19.5348C17.8685 19.6745 18.059 19.7444 18.3157 19.7444C18.4385 19.7445 18.561 19.7316 18.6811 19.7059V19.2017H18.4042C18.3331 19.2062 18.263 19.1835 18.208 19.1382C18.1635 19.0893 18.1388 19.0255 18.1388 18.9594C18.1388 18.8932 18.1635 18.8295 18.208 18.7805C18.2629 18.7351 18.3331 18.7122 18.4042 18.7167H19.0392C19.0766 18.7142 19.1142 18.7192 19.1497 18.7315C19.1852 18.7438 19.2178 18.7631 19.2457 18.7882Z" fill="white"/>
<path d="M8.43115 22.0063H23.5792V22.5052H8.43115V22.0063Z" fill="#E0E0E0"/>
</g>
<defs>
<clipPath id="clip0_746:1657">
<rect width="19.6923" height="19.6923" fill="white" transform="translate(6.15381 6.15381)"/>
</clipPath>
</defs>
</svg>
