<svg width="52" height="52" viewBox="0 0 52 52" fill="none" xmlns="http://www.w3.org/2000/svg">
<circle cx="26" cy="26" r="26" fill="#FFCA3A"/>
<g clip-path="url(#clip0_590:1431)">
<path d="M38.3162 16.8306C38.3161 16.6648 38.2503 16.5059 38.133 16.3887L31.9193 10.1749C31.8021 10.0577 31.6432 9.99186 31.4774 9.99182H14.3262C14.1604 9.99182 14.0014 10.0577 13.8842 10.1749C13.767 10.2921 13.7012 10.4511 13.7012 10.6168V41.3668C13.7012 41.5326 13.767 41.6916 13.8842 41.8088C14.0014 41.926 14.1604 41.9918 14.3262 41.9918H37.6912C37.8569 41.9918 38.0159 41.926 38.1331 41.8088C38.2503 41.6916 38.3162 41.5326 38.3162 41.3668V16.8306Z" fill="#F1F1F1"/>
<path d="M38.2954 16.6749C38.2681 16.5666 38.212 16.4677 38.1329 16.3887L31.9192 10.1749C31.802 10.0577 31.643 9.99186 31.4773 9.99182V15.9243C31.4773 16.1232 31.5563 16.314 31.697 16.4547C31.8376 16.5953 32.0284 16.6743 32.2273 16.6743L38.2954 16.6749Z" fill="#CCCCCC"/>
<path d="M38.2958 16.675H32.2283C32.0294 16.675 31.8386 16.596 31.6979 16.4554C31.5573 16.3147 31.4783 16.124 31.4783 15.925V16.5594C31.4783 16.9738 31.7358 17.4969 32.252 17.4969H38.3145V16.8307C38.3185 16.7781 38.3121 16.7252 38.2958 16.675Z" fill="#E8E8E8"/>
<path d="M13.7006 23.4587L12.0125 25.1519H13.7006V23.4587Z" fill="#DD9536"/>
<path d="M38.2957 23.4587L39.9844 25.1519H38.2957V23.4587Z" fill="#DD9536"/>
<path d="M39.5069 35.7606H12.4932C12.3274 35.7606 12.1684 35.6948 12.0512 35.5776C11.934 35.4603 11.8682 35.3014 11.8682 35.1356V25.5519C11.8682 25.3861 11.934 25.2271 12.0512 25.1099C12.1684 24.9927 12.3274 24.9269 12.4932 24.9269H39.5069C39.6727 24.9269 39.8316 24.9927 39.9489 25.1099C40.0661 25.2271 40.1319 25.3861 40.1319 25.5519V35.135C40.132 35.2171 40.1159 35.2985 40.0845 35.3744C40.0531 35.4503 40.0071 35.5192 39.9491 35.5773C39.891 35.6354 39.8221 35.6815 39.7462 35.713C39.6704 35.7444 39.589 35.7606 39.5069 35.7606Z" fill="#FAAF3A"/>
<path d="M20.2531 32.4782C20.2484 32.4197 20.2554 32.3608 20.2736 32.3051C20.2919 32.2493 20.321 32.1977 20.3594 32.1532C20.4306 32.0826 20.5431 32.0426 20.6975 32.0345L20.91 32.022C20.9637 32.0231 21.0169 32.0125 21.066 31.9909C21.1151 31.9693 21.159 31.9373 21.1944 31.897C21.2632 31.8064 21.2975 31.6943 21.2913 31.5807V29.0263C21.2878 28.951 21.2999 28.8758 21.3268 28.8054C21.3537 28.735 21.3948 28.6708 21.4475 28.617C21.5047 28.5644 21.5718 28.5237 21.6449 28.4974C21.718 28.4711 21.7956 28.4597 21.8731 28.4638C21.9491 28.4607 22.0249 28.4726 22.0962 28.4989C22.1676 28.5251 22.233 28.5653 22.2888 28.617C22.3424 28.6703 22.3843 28.7343 22.4117 28.8048C22.4392 28.8753 22.4516 28.9508 22.4481 29.0263V31.5626C22.4481 31.9793 22.3388 32.3034 22.12 32.5351C21.9013 32.7668 21.575 32.8972 21.1413 32.9263L20.9413 32.9388C20.4825 32.9609 20.2531 32.8074 20.2531 32.4782Z" fill="white"/>
<path d="M23.402 32.7875C23.3503 32.7325 23.3102 32.6676 23.2841 32.5967C23.258 32.5259 23.2465 32.4505 23.2502 32.375V29.0263C23.242 28.9545 23.2501 28.8819 23.2739 28.8137C23.2977 28.7455 23.3366 28.6836 23.3877 28.6325C23.4387 28.5815 23.5006 28.5426 23.5688 28.5188C23.637 28.495 23.7097 28.4869 23.7814 28.495H25.382C25.8704 28.495 26.2497 28.619 26.5201 28.8669C26.7906 29.1148 26.9262 29.4598 26.927 29.9019C26.927 30.3394 26.7904 30.6834 26.517 30.9338C26.2437 31.1842 25.8654 31.3092 25.382 31.3088H24.4008V32.3713C24.4046 32.4476 24.3927 32.5238 24.3659 32.5953C24.339 32.6668 24.2977 32.732 24.2445 32.7869C24.1875 32.8397 24.1204 32.8805 24.0473 32.9069C23.9742 32.9333 23.8965 32.9448 23.8189 32.9407C23.7427 32.9448 23.6664 32.9333 23.5947 32.907C23.523 32.8806 23.4575 32.84 23.402 32.7875ZM25.2245 30.4463C25.4376 30.4463 25.5945 30.4019 25.697 30.3144C25.7995 30.2269 25.8501 30.0919 25.8501 29.9082C25.8501 29.5457 25.6418 29.3644 25.2252 29.3644H24.4002V30.4463H25.2245Z" fill="white"/>
<path d="M31.2742 30.5307C31.3152 30.5707 31.3473 30.619 31.3683 30.6723C31.3893 30.7256 31.3988 30.7828 31.3961 30.84V31.9282C31.4012 32.0889 31.3854 32.2496 31.3492 32.4063C31.3231 32.509 31.2638 32.6002 31.1805 32.6657C31.0696 32.7419 30.9457 32.7969 30.8148 32.8282C30.6368 32.8728 30.456 32.9054 30.2736 32.9257C30.09 32.9475 29.9053 32.959 29.7205 32.96C29.2413 32.96 28.8246 32.8692 28.4705 32.6875C28.1265 32.5158 27.8431 32.2432 27.658 31.9063C27.4705 31.5663 27.3767 31.163 27.3767 30.6963C27.3665 30.2796 27.4634 29.8673 27.658 29.4988C27.841 29.1634 28.1197 28.8901 28.4586 28.7138C28.8341 28.5236 29.2509 28.4291 29.6717 28.4388C29.937 28.4352 30.2014 28.47 30.4567 28.5419C30.6882 28.611 30.9067 28.7176 31.1036 28.8575C31.1665 28.8992 31.2189 28.9548 31.2567 29.02C31.2905 29.0903 31.3066 29.1678 31.3036 29.2457C31.3072 29.364 31.2696 29.48 31.1973 29.5738C31.1683 29.6149 31.13 29.6485 31.0854 29.6719C31.0409 29.6952 30.9914 29.7077 30.9411 29.7082C30.8825 29.7096 30.8242 29.7001 30.7692 29.68C30.7052 29.6529 30.6435 29.6205 30.5848 29.5832C30.4464 29.5063 30.2996 29.4455 30.1473 29.4019C30.0037 29.3634 29.8555 29.3444 29.7067 29.3457C29.3105 29.3457 29.0155 29.4561 28.8217 29.6769C28.628 29.8977 28.5311 30.2375 28.5311 30.6963C28.5311 31.1675 28.6321 31.5167 28.8342 31.7438C29.0363 31.9709 29.3459 32.0844 29.763 32.0844C29.9625 32.0846 30.1616 32.0636 30.3567 32.0219V31.2025H29.9067C29.7912 31.21 29.6772 31.1731 29.588 31.0994C29.5156 31.0199 29.4755 30.9163 29.4755 30.8088C29.4755 30.7013 29.5156 30.5977 29.588 30.5182C29.6771 30.4443 29.7911 30.4072 29.9067 30.4144H30.9386C30.9995 30.4103 31.0605 30.4185 31.1182 30.4385C31.1759 30.4585 31.2289 30.4898 31.2742 30.5307Z" fill="white"/>
<path d="M13.7007 35.7606H38.3163V36.5712H13.7007V35.7606Z" fill="#E0E0E0"/>
</g>
<defs>
<clipPath id="clip0_590:1431">
<rect width="32" height="32" fill="white" transform="translate(10 10)"/>
</clipPath>
</defs>
</svg>
