<svg width="110" height="32" viewBox="0 0 110 32" fill="none" xmlns="http://www.w3.org/2000/svg">
<path d="M18.4381 29.7589H14.9029C14.9029 26.6466 12.3429 24.1085 9.2038 24.1085C6.06476 24.1085 3.50476 26.6466 3.50476 29.7589H0C0 24.7128 4.11428 20.6035 9.23428 20.6035C14.3543 20.6035 18.4381 24.7128 18.4381 29.7589Z" fill="#FFCA3A"/>
<path d="M22.7657 12.7172L24.5334 15.7388C21.821 17.31 20.8762 20.7546 22.461 23.4438C24.0457 26.133 27.52 27.0697 30.2324 25.4984L32 28.5199C27.581 31.0582 21.9429 29.5775 19.4133 25.1963C16.8838 20.815 18.3771 15.2251 22.7657 12.7172Z" fill="#1982C4"/>
<path d="M5.48572 18.0352L7.22286 15.0741C7.22286 15.0439 7.25334 15.0439 7.28382 15.0741C9.9962 16.6151 13.4705 15.6784 15.0248 12.9892C16.579 10.3 15.6648 6.85543 12.9829 5.28423C12.9524 5.28423 12.9524 5.254 12.9829 5.22379L14.72 2.26267C14.72 2.23245 14.7505 2.23245 14.7505 2.26267C19.139 4.80076 20.6324 10.3604 18.1029 14.7417C15.5733 19.123 9.90476 20.5733 5.5162 18.0654C5.48572 18.0654 5.48572 18.0352 5.48572 18.0352Z" fill="#FF595E"/>
<path d="M44 10.736H46.952V12.152H47.144C47.432 11.656 47.88 11.232 48.488 10.88C49.096 10.528 49.848 10.352 50.744 10.352C51.496 10.352 52.208 10.512 52.88 10.832C53.568 11.136 54.168 11.568 54.68 12.128C55.208 12.672 55.624 13.328 55.928 14.096C56.232 14.864 56.384 15.704 56.384 16.616C56.384 17.528 56.232 18.368 55.928 19.136C55.624 19.904 55.208 20.568 54.68 21.128C54.168 21.672 53.568 22.104 52.88 22.424C52.208 22.728 51.496 22.88 50.744 22.88C49.848 22.88 49.096 22.704 48.488 22.352C47.88 22 47.432 21.576 47.144 21.08H46.952L47.144 22.76V27.68H44V10.736ZM50.096 19.976C50.512 19.976 50.904 19.896 51.272 19.736C51.656 19.576 51.992 19.352 52.28 19.064C52.568 18.776 52.8 18.424 52.976 18.008C53.152 17.592 53.24 17.128 53.24 16.616C53.24 16.104 53.152 15.64 52.976 15.224C52.8 14.808 52.568 14.456 52.28 14.168C51.992 13.88 51.656 13.656 51.272 13.496C50.904 13.336 50.512 13.256 50.096 13.256C49.68 13.256 49.28 13.336 48.896 13.496C48.528 13.64 48.2 13.856 47.912 14.144C47.624 14.432 47.392 14.784 47.216 15.2C47.04 15.616 46.952 16.088 46.952 16.616C46.952 17.144 47.04 17.616 47.216 18.032C47.392 18.448 47.624 18.8 47.912 19.088C48.2 19.376 48.528 19.6 48.896 19.76C49.28 19.904 49.68 19.976 50.096 19.976Z" fill="#374F5E"/>
<path d="M67.1529 21.08H66.9609C66.6729 21.576 66.2249 22 65.6169 22.352C65.0089 22.704 64.2569 22.88 63.3609 22.88C62.6089 22.88 61.8889 22.728 61.2009 22.424C60.5289 22.104 59.9289 21.672 59.4009 21.128C58.8889 20.568 58.4809 19.904 58.1769 19.136C57.8729 18.368 57.7209 17.528 57.7209 16.616C57.7209 15.704 57.8729 14.864 58.1769 14.096C58.4809 13.328 58.8889 12.672 59.4009 12.128C59.9289 11.568 60.5289 11.136 61.2009 10.832C61.8889 10.512 62.6089 10.352 63.3609 10.352C64.2569 10.352 65.0089 10.528 65.6169 10.88C66.2249 11.232 66.6729 11.656 66.9609 12.152H67.1529L66.9609 10.472V5.312H70.1049V22.496H67.1529V21.08ZM64.0089 19.976C64.4249 19.976 64.8169 19.904 65.1849 19.76C65.5689 19.6 65.9049 19.376 66.1929 19.088C66.4809 18.8 66.7129 18.448 66.8889 18.032C67.0649 17.616 67.1529 17.144 67.1529 16.616C67.1529 16.088 67.0649 15.616 66.8889 15.2C66.7129 14.784 66.4809 14.432 66.1929 14.144C65.9049 13.856 65.5689 13.64 65.1849 13.496C64.8169 13.336 64.4249 13.256 64.0089 13.256C63.5929 13.256 63.1929 13.336 62.8089 13.496C62.4409 13.656 62.1129 13.88 61.8249 14.168C61.5369 14.456 61.3049 14.808 61.1289 15.224C60.9529 15.64 60.8649 16.104 60.8649 16.616C60.8649 17.128 60.9529 17.592 61.1289 18.008C61.3049 18.424 61.5369 18.776 61.8249 19.064C62.1129 19.352 62.4409 19.576 62.8089 19.736C63.1929 19.896 63.5929 19.976 64.0089 19.976Z" fill="#374F5E"/>
<path d="M77.3887 22.496H74.2447V13.424H72.1327V10.736H74.2447V9.584C74.2447 8.864 74.3487 8.232 74.5567 7.688C74.7807 7.128 75.0927 6.664 75.4927 6.296C75.8927 5.912 76.3647 5.624 76.9087 5.432C77.4527 5.224 78.0527 5.12 78.7087 5.12C79.0287 5.12 79.2847 5.136 79.4767 5.168C79.6687 5.2 79.8527 5.248 80.0287 5.312L79.8367 8.264C79.7247 8.216 79.5967 8.176 79.4527 8.144C79.3087 8.112 79.1247 8.096 78.9007 8.096C78.4367 8.096 78.0687 8.248 77.7967 8.552C77.5247 8.84 77.3887 9.248 77.3887 9.776V10.736H84.9727V22.496H81.8287V13.424H77.3887V22.496ZM83.3887 9.032C83.1167 9.032 82.8527 8.984 82.5967 8.888C82.3567 8.776 82.1407 8.632 81.9487 8.456C81.7727 8.264 81.6287 8.048 81.5167 7.808C81.4207 7.568 81.3727 7.304 81.3727 7.016C81.3727 6.728 81.4207 6.464 81.5167 6.224C81.6287 5.984 81.7727 5.776 81.9487 5.6C82.1407 5.408 82.3567 5.264 82.5967 5.168C82.8527 5.056 83.1167 5 83.3887 5C83.9487 5 84.4287 5.2 84.8287 5.6C85.2287 5.984 85.4287 6.456 85.4287 7.016C85.4287 7.576 85.2287 8.056 84.8287 8.456C84.4287 8.84 83.9487 9.032 83.3887 9.032Z" fill="#374F5E"/>
<path d="M93.6618 5.12C94.1098 5.12 94.5258 5.16 94.9098 5.24C95.2938 5.32 95.6378 5.424 95.9418 5.552L95.0538 8.36C94.8938 8.28 94.7178 8.216 94.5258 8.168C94.3498 8.12 94.1258 8.096 93.8538 8.096C93.3898 8.096 93.0218 8.248 92.7498 8.552C92.4778 8.84 92.3418 9.248 92.3418 9.776V10.736H95.2698V13.424H92.3418V22.496H89.1978V13.424H87.0858V10.736H89.1978V9.584C89.1978 8.864 89.3018 8.232 89.5098 7.688C89.7338 7.128 90.0458 6.664 90.4458 6.296C90.8458 5.912 91.3178 5.624 91.8618 5.432C92.4058 5.224 93.0058 5.12 93.6618 5.12Z" fill="#374F5E"/>
<path d="M101.089 21.92L96.1449 10.736H99.7209L102.697 17.864H102.865L105.721 10.736H109.225L101.857 27.68H98.4729L101.089 21.92Z" fill="#374F5E"/>
</svg>
