<svg width="38" height="38" viewBox="0 0 38 38" fill="none" xmlns="http://www.w3.org/2000/svg">
<g clip-path="url(#clip0_411:2806)">
<path d="M23.4536 38.0001C23.4145 38.0001 23.3753 37.998 23.3362 37.9936C22.8883 37.9469 22.5142 37.6337 22.3859 37.2021L19.6242 27.7007C19.4719 27.1821 19.7133 26.6287 20.1982 26.3883C20.3961 26.2894 20.5701 26.1774 20.7419 26.0361C21.0267 25.8012 21.4073 25.7251 21.7617 25.8273C22.4663 26.0349 23.0948 26.0251 23.6232 25.8011C24.1885 25.5728 24.6517 25.1205 25.0105 24.4529C25.1845 24.131 25.5041 23.9147 25.8652 23.8733C26.6436 23.7863 27.2461 23.5341 27.6548 23.1242C27.744 23.0361 27.8375 22.9274 27.9136 22.8197C28.1615 22.475 28.579 22.3021 29.0052 22.3685C29.4249 22.4391 29.7663 22.7425 29.8881 23.1502L33.0718 33.9057C33.2001 34.3384 33.0544 34.8049 32.7043 35.0887C32.3541 35.3703 31.8627 35.416 31.4713 35.1996L26.9047 32.7055L24.4322 37.4174C24.2364 37.7794 23.8581 38.0001 23.4536 38.0001Z" fill="#E63950"/>
<path d="M14.59 38.0001C14.1855 38.0001 13.8071 37.7794 13.6114 37.4173L11.1388 32.7055L6.57225 35.1998C6.18086 35.4162 5.68718 35.3705 5.33929 35.0878C4.98916 34.804 4.84346 34.3376 4.97179 33.9048L8.15757 23.1938C8.27937 22.7861 8.62296 22.4828 9.04264 22.4131C9.45578 22.3403 9.88421 22.5175 10.1321 22.8644C10.2039 22.9666 10.2757 23.0557 10.3496 23.1286C10.7323 23.5255 11.2999 23.7669 12.0936 23.8778C12.4372 23.9245 12.7395 24.13 12.9091 24.4312C13.2852 25.0934 13.7397 25.5392 14.2617 25.7566C14.814 26.0023 15.4555 26.0066 16.184 25.786C16.5428 25.6772 16.932 25.7566 17.2191 25.9958C17.3952 26.1426 17.604 26.2796 17.878 26.4274C18.3434 26.6775 18.5694 27.219 18.4194 27.7246L15.6577 37.2031C15.5294 37.6347 15.1532 37.9468 14.7053 37.9935C14.6661 37.998 14.6292 38.0001 14.59 38.0001Z" fill="#FF6C6C"/>
<path d="M19 28.9445C18.0017 28.9445 17.1125 28.6149 16.2687 28.0595C15.2293 28.2791 14.2529 28.19 13.3809 27.8018C12.5567 27.4582 11.8392 26.8482 11.2585 25.9914C10.2103 25.7685 9.38836 25.339 8.75774 24.6867C8.07961 23.9979 7.66647 23.099 7.47259 22.1521C6.59406 21.5737 5.96781 20.8322 5.609 19.9417C5.25888 19.1055 5.17842 18.1488 5.372 17.1561C4.81093 16.3037 4.52612 15.4023 4.52612 14.4704C4.52612 13.5353 4.82407 12.6198 5.41119 11.7413C5.19594 10.6964 5.2807 9.72763 5.66779 8.85451C6.01138 8.02815 6.62241 7.31053 7.4792 6.72883C7.70099 5.68068 8.13157 4.85871 8.78394 4.22808C9.43193 3.58113 10.2866 3.14624 11.3216 2.94071C11.9001 2.06433 12.6395 1.44024 13.5288 1.08039C14.366 0.732418 15.3229 0.647652 16.3145 0.842272C18.0171 -0.283066 19.9765 -0.291751 21.7292 0.882502C22.7665 0.668287 23.7537 0.756393 24.617 1.13799C25.4433 1.48269 26.161 2.09261 26.7416 2.9494C27.7897 3.1723 28.6117 3.60177 29.2423 4.25414C29.8903 4.90436 30.3231 5.75788 30.5297 6.78969C31.4061 7.36813 32.0323 8.10965 32.3911 8.9991C32.7412 9.83525 32.8217 10.792 32.6281 11.7847C33.1892 12.6371 33.474 13.5385 33.474 14.4704C33.474 15.4055 33.176 16.321 32.5889 17.1995C32.8042 18.2444 32.7194 19.2132 32.3323 20.0863C31.9887 20.9137 31.3755 21.6324 30.5165 22.2141C30.2714 23.3396 29.8578 24.0603 29.2335 24.6964C28.5703 25.3574 27.7135 25.7946 26.6784 26C26.0999 26.8753 25.3606 27.5005 24.4712 27.8603C23.6362 28.2115 22.6837 28.2942 21.6877 28.0985C20.8759 28.6198 19.9762 28.9445 19 28.9445Z" fill="#FABE2C"/>
<path d="M19.0002 28.9447C19.9766 28.9447 20.8763 28.6198 21.688 28.0988C22.684 28.2945 23.6365 28.2118 24.4715 27.8607C25.3609 27.5007 26.1002 26.8756 26.6787 26.0003C27.7138 25.7948 28.5706 25.3578 29.2338 24.6967C29.8551 24.0636 30.2704 23.3461 30.5168 22.2145C31.3758 21.6327 31.989 20.914 32.3326 20.0866C32.7197 19.2135 32.8045 18.2448 32.5892 17.1998C33.1763 16.3213 33.4743 15.4058 33.4743 14.4707C33.4743 13.5389 33.1894 12.6375 32.6284 11.7851C32.8219 10.7924 32.7415 9.83551 32.3914 8.99943C32.0326 8.11005 31.4064 7.36846 30.53 6.79002C30.3234 5.75821 29.8907 4.90469 29.2426 4.25447C28.612 3.6021 27.79 3.17263 26.7419 2.94973C26.1613 2.09294 25.4436 1.48295 24.6173 1.13832C23.754 0.756648 22.7667 0.668617 21.7295 0.882832C20.852 0.295186 19.9232 0.00414681 19.0003 0.000732422V28.9447H19.0002Z" fill="#FF9100"/>
<path d="M19.0002 24.4909C13.4746 24.4909 8.97974 19.996 8.97974 14.4704C8.97974 8.94485 13.4746 4.44995 19.0002 4.44995C24.5258 4.44995 29.0207 8.94485 29.0207 14.4704C29.0207 19.996 24.5258 24.4909 19.0002 24.4909Z" fill="#FED843"/>
<path d="M19.0002 24.4909C24.5258 24.4909 29.0207 19.996 29.0207 14.4704C29.0207 8.94485 24.5258 4.44995 19.0002 4.44995V24.4909Z" fill="#FABE2C"/>
<path d="M20.7767 18.6121L19 17.6889L17.2233 18.6121C16.8515 18.8045 16.397 18.7708 16.0556 18.5251C15.7142 18.2771 15.5424 17.8575 15.612 17.4421L15.9382 15.4643L14.5139 14.0584C14.2038 13.7562 14.109 13.3081 14.2355 12.9212C14.366 12.521 14.7118 12.2274 15.1293 12.1644L17.1081 11.8665L18.004 10.0757C18.3824 9.32112 19.6176 9.32112 19.996 10.0757L20.8919 11.8665L22.8707 12.1644C23.2883 12.2275 23.634 12.5211 23.7645 12.9212C23.895 13.3223 23.7884 13.7627 23.4861 14.0584L22.0618 15.4643L22.388 17.4421C22.4577 17.8575 22.2858 18.2771 21.9444 18.5251C21.6053 18.7708 21.1516 18.8071 20.7767 18.6121Z" fill="#FABE2C"/>
<path d="M19.0002 17.6891L20.7769 18.6121C21.1526 18.8076 21.6062 18.7704 21.9446 18.5251C22.2861 18.2772 22.4578 17.8575 22.3883 17.4421L22.0621 15.4643L23.4864 14.0585C23.7886 13.7628 23.8952 13.3224 23.7647 12.9212C23.6342 12.521 23.2885 12.2275 22.871 12.1645L20.8921 11.8665L19.9962 10.0757C19.807 9.69845 19.4037 9.50977 19.0002 9.50977V17.6891Z" fill="#FF9100"/>
</g>
<defs>
<clipPath id="clip0_411:2806">
<rect width="38" height="38" fill="white"/>
</clipPath>
</defs>
</svg>
