<svg width="22" height="22" viewBox="0 0 22 22" fill="none" xmlns="http://www.w3.org/2000/svg">
<mask id="mask0_206:5591" style="mask-type:alpha" maskUnits="userSpaceOnUse" x="1" y="1" width="20" height="20">
<path fill-rule="evenodd" clip-rule="evenodd" d="M1.83333 1.83337H20.1666V20.1667H1.83333V1.83337Z" fill="white"/>
</mask>
<g mask="url(#mask0_206:5591)">
<path fill-rule="evenodd" clip-rule="evenodd" d="M7.02533 3.20837C4.70708 3.20837 3.20833 4.79696 3.20833 7.25637V14.7437C3.20833 17.2031 4.70708 18.7917 7.02533 18.7917H14.971C17.292 18.7917 18.7917 17.2031 18.7917 14.7437V7.25637C18.7917 4.79696 17.292 3.20837 14.9728 3.20837H7.02533ZM14.971 20.1667H7.02533C3.91966 20.1667 1.83333 17.9869 1.83333 14.7437V7.25637C1.83333 4.01321 3.91966 1.83337 7.02533 1.83337H14.9728C18.0794 1.83337 20.1667 4.01321 20.1667 7.25637V14.7437C20.1667 17.9869 18.0794 20.1667 14.971 20.1667V20.1667Z" fill="#96A3AB"/>
</g>
<path fill-rule="evenodd" clip-rule="evenodd" d="M8.10222 9.99023C7.54306 9.99023 7.09023 10.4431 7.09023 11.0004C7.09023 11.5577 7.54306 12.0106 8.10039 12.0106C8.65681 12.0106 9.11056 11.5577 9.11056 11.0004C9.11056 10.444 8.65772 9.99115 8.10222 9.99023M8.10039 13.3856C6.78498 13.3856 5.71523 12.3149 5.71523 11.0004C5.71523 9.68498 6.78498 8.61523 8.10039 8.61523C9.41764 8.61615 10.4856 9.6859 10.4856 11.0004C10.4856 12.3149 9.41581 13.3856 8.10039 13.3856" fill="#96A3AB"/>
<path fill-rule="evenodd" clip-rule="evenodd" d="M15.5922 13.3857C15.2127 13.3857 14.9047 13.0777 14.9047 12.6982V11.6871H9.80072C9.42122 11.6871 9.11322 11.3801 9.11322 10.9996C9.11322 10.6201 9.42122 10.3121 9.80072 10.3121H15.5922C15.9717 10.3121 16.2797 10.6201 16.2797 10.9996V12.6982C16.2797 13.0777 15.9717 13.3857 15.5922 13.3857" fill="#96A3AB"/>
<path fill-rule="evenodd" clip-rule="evenodd" d="M12.9997 13.3857C12.6202 13.3857 12.3122 13.0777 12.3122 12.6982V10.9996C12.3122 10.6201 12.6202 10.3121 12.9997 10.3121C13.3792 10.3121 13.6872 10.6201 13.6872 10.9996V12.6982C13.6872 13.0777 13.3792 13.3857 12.9997 13.3857" fill="#96A3AB"/>
</svg>
