<svg width="23" height="22" viewBox="0 0 23 22" fill="none" xmlns="http://www.w3.org/2000/svg">
<path d="M18.8333 3.66667H4.16668C3.14918 3.66667 2.34251 4.4825 2.34251 5.5L2.33334 16.5C2.33334 17.5175 3.14918 18.3333 4.16668 18.3333H18.8333C19.8508 18.3333 20.6667 17.5175 20.6667 16.5V5.5C20.6667 4.4825 19.8508 3.66667 18.8333 3.66667ZM17.9167 16.5H5.08334C4.57918 16.5 4.16668 16.0875 4.16668 15.5833V11H18.8333V15.5833C18.8333 16.0875 18.4208 16.5 17.9167 16.5ZM18.8333 7.33334H4.16668V6.41667C4.16668 5.9125 4.57918 5.5 5.08334 5.5H17.9167C18.4208 5.5 18.8333 5.9125 18.8333 6.41667V7.33334Z" fill="white"/>
</svg>
