<svg width="52" height="52" viewBox="0 0 52 52" fill="none" xmlns="http://www.w3.org/2000/svg">
<path d="M10.25 3.25C10.25 1.73864 11.4886 0.5 13 0.5H35.5429L48.25 13.2071V48.75C48.25 50.2614 47.0114 51.5 45.5 51.5H13C11.4886 51.5 10.25 50.2614 10.25 48.75V3.25Z" stroke="white"/>
<path d="M42.25 42.25C42.25 43.1438 41.5188 43.875 40.625 43.875H4.875C3.98125 43.875 3.25 43.1438 3.25 42.25V26C3.25 25.1062 3.98125 24.375 4.875 24.375H40.625C41.5188 24.375 42.25 25.1062 42.25 26V42.25Z" fill="white"/>
<path d="M10.3334 30.7888C10.3334 30.3598 10.6714 29.8918 11.2157 29.8918H14.2171C15.9071 29.8918 17.4281 31.0228 17.4281 33.1906C17.4281 35.2446 15.9071 36.3886 14.2171 36.3886H12.0477V38.1046C12.0477 38.6766 11.6837 39 11.2157 39C10.7867 39 10.3334 38.6766 10.3334 38.1046V30.7888V30.7888ZM12.0477 31.5282V34.7652H14.2171C15.0881 34.7652 15.7771 33.9966 15.7771 33.1906C15.7771 32.2822 15.0881 31.5282 14.2171 31.5282H12.0477Z" fill="#062336"/>
<path d="M19.9729 38.9999C19.5439 38.9999 19.0759 38.7659 19.0759 38.1955V30.8148C19.0759 30.3484 19.5439 30.0088 19.9729 30.0088H22.9482C28.886 30.0088 28.756 38.9999 23.0652 38.9999H19.9729V38.9999ZM20.7919 31.5948V37.4155H22.9482C26.4566 37.4155 26.6126 31.5948 22.9482 31.5948H20.7919V31.5948Z" fill="#062336"/>
<path d="M30.862 31.6988V33.7642H34.1754C34.6434 33.7642 35.1114 34.2322 35.1114 34.6856C35.1114 35.1146 34.6434 35.4656 34.1754 35.4656H30.862V38.194C30.862 38.649 30.5386 38.9983 30.0836 38.9983C29.5116 38.9983 29.1622 38.649 29.1622 38.194V30.8132C29.1622 30.3468 29.5132 30.0072 30.0836 30.0072H34.645C35.217 30.0072 35.555 30.3468 35.555 30.8132C35.555 31.2292 35.217 31.6972 34.645 31.6972H30.862V31.6988Z" fill="#062336"/>
</svg>
