<svg width="101" height="101" viewBox="0 0 101 101" fill="none" xmlns="http://www.w3.org/2000/svg">
<path d="M19.4375 6.3125C19.4375 3.11677 22.0543 0.5 25.25 0.5H69.2304L94.1875 25.4571V94.6875C94.1875 97.8832 91.5707 100.5 88.375 100.5H25.25C22.0543 100.5 19.4375 97.8832 19.4375 94.6875V6.3125Z" stroke="#FF595E"/>
<path d="M82.0625 82.0625C82.0625 83.7984 80.6422 85.2188 78.9062 85.2188H9.46875C7.73281 85.2188 6.3125 83.7984 6.3125 82.0625V50.5C6.3125 48.7641 7.73281 47.3438 9.46875 47.3438H78.9062C80.6422 47.3438 82.0625 48.7641 82.0625 50.5V82.0625Z" fill="#FF595E"/>
<path d="M20.0703 59.8015C20.0703 58.9682 20.7268 58.0592 21.7842 58.0592H27.6137C30.8962 58.0592 33.8505 60.2559 33.8505 64.4664C33.8505 68.4559 30.8962 70.6779 27.6137 70.6779H23.4002V74.0109C23.4002 75.1219 22.6932 75.75 21.7842 75.75C20.9509 75.75 20.0703 75.1219 20.0703 74.0109V59.8015ZM23.4002 61.2375V67.5248H27.6137C29.3055 67.5248 30.6437 66.0319 30.6437 64.4664C30.6437 62.702 29.3055 61.2375 27.6137 61.2375H23.4002Z" fill="white"/>
<path d="M38.793 75.7499C37.9598 75.7499 37.0508 75.2954 37.0508 74.1876V59.8519C37.0508 58.946 37.9598 58.2864 38.793 58.2864H44.5721C56.105 58.2864 55.8525 75.7499 44.7994 75.7499H38.793ZM40.3838 61.3669V72.6726H44.5721C51.3865 72.6726 51.6895 61.3669 44.5721 61.3669H40.3838Z" fill="white"/>
<path d="M59.943 61.569V65.5806H66.3786C67.2876 65.5806 68.1966 66.4896 68.1966 67.3702C68.1966 68.2034 67.2876 68.8852 66.3786 68.8852H59.943V74.1845C59.943 75.0683 59.315 75.7469 58.4312 75.7469C57.3202 75.7469 56.6416 75.0683 56.6416 74.1845V59.8488C56.6416 58.943 57.3234 58.2833 58.4312 58.2833H67.2908C68.4018 58.2833 69.0583 58.943 69.0583 59.8488C69.0583 60.6568 68.4018 61.5658 67.2908 61.5658H59.943V61.569Z" fill="white"/>
</svg>
