<svg width="52" height="52" viewBox="0 0 52 52" fill="none" xmlns="http://www.w3.org/2000/svg">
<circle cx="26" cy="26" r="26" fill="#FF799A"/>
<g clip-path="url(#clip0_590:1430)">
<path d="M38.3181 16.8309C38.3181 16.6652 38.2522 16.5062 38.135 16.3891L31.9213 10.1753C31.8041 10.0581 31.6451 9.99222 31.4794 9.99219H14.3281C14.1624 9.99219 14.0034 10.058 13.8862 10.1752C13.769 10.2925 13.7031 10.4514 13.7031 10.6172V41.3672C13.7031 41.5329 13.769 41.6919 13.8862 41.8091C14.0034 41.9263 14.1624 41.9922 14.3281 41.9922H37.6931C37.8589 41.9922 38.0179 41.9263 38.1351 41.8091C38.2523 41.6919 38.3181 41.5329 38.3181 41.3672V16.8309Z" fill="#F1F1F1"/>
<path d="M38.2947 16.6753C38.2674 16.567 38.2113 16.468 38.1322 16.3891L31.9184 10.1753C31.8013 10.0581 31.6423 9.99222 31.4766 9.99219V15.9247C31.4766 16.1236 31.5556 16.3144 31.6962 16.455C31.8369 16.5957 32.0277 16.6747 32.2266 16.6747L38.2947 16.6753Z" fill="#CCCCCC"/>
<path d="M38.2981 16.6748H32.2305C32.0316 16.6748 31.8408 16.5958 31.7001 16.4551C31.5595 16.3145 31.4805 16.1237 31.4805 15.9248V16.5592C31.4805 16.9736 31.738 17.4967 32.2542 17.4967H38.3168V16.8304C38.3208 16.7778 38.3144 16.725 38.2981 16.6748Z" fill="#E8E8E8"/>
<path d="M13.6998 23.459L12.0117 25.1521H13.6998V23.459Z" fill="#C6406D"/>
<path d="M38.2969 23.459L39.9856 25.1521H38.2969V23.459Z" fill="#C6406D"/>
<path d="M39.5098 35.7603H12.4961C12.3303 35.7603 12.1714 35.6944 12.0542 35.5772C11.9369 35.46 11.8711 35.301 11.8711 35.1353V25.5517C11.8711 25.386 11.9369 25.227 12.0542 25.1098C12.1714 24.9926 12.3303 24.9268 12.4961 24.9268H39.5098C39.6756 24.9268 39.8346 24.9926 39.9518 25.1098C40.069 25.227 40.1348 25.386 40.1348 25.5517V35.1347C40.1349 35.2168 40.1188 35.2981 40.0875 35.374C40.0561 35.4499 40.0101 35.5189 39.952 35.577C39.894 35.6351 39.825 35.6812 39.7492 35.7126C39.6733 35.7441 39.592 35.7603 39.5098 35.7603Z" fill="#FF4D79"/>
<path d="M13.7031 35.7598H38.3188V36.5704H13.7031V35.7598Z" fill="#E0E0E0"/>
<path d="M20.2695 32.7871C20.2172 32.7318 20.1766 32.6664 20.1503 32.595C20.124 32.5235 20.1124 32.4475 20.1164 32.3715V29.0256C20.1082 28.9538 20.1163 28.8811 20.1402 28.8129C20.164 28.7446 20.2029 28.6827 20.2541 28.6316C20.3052 28.5805 20.3672 28.5417 20.4355 28.5179C20.5037 28.4941 20.5765 28.4861 20.6482 28.4944H22.2507C22.7382 28.4944 23.1176 28.6183 23.3889 28.8663C23.6601 29.1142 23.7955 29.4592 23.7951 29.9013C23.7951 30.3388 23.6587 30.6828 23.3857 30.9333C23.1128 31.1837 22.7345 31.3087 22.2507 31.3083H21.267V32.3708C21.271 32.4471 21.2592 32.5235 21.2323 32.595C21.2054 32.6665 21.164 32.7317 21.1107 32.7865C21.0538 32.8392 20.9868 32.88 20.9138 32.9064C20.8408 32.9328 20.7633 32.9443 20.6858 32.9402C20.6096 32.9443 20.5335 32.9328 20.4619 32.9064C20.3903 32.8801 20.3249 32.8395 20.2695 32.7871ZM22.0926 30.4457C22.3051 30.4457 22.4626 30.4013 22.5645 30.3138C22.6664 30.2263 22.7176 30.0913 22.7176 29.9076C22.7176 29.5451 22.5093 29.3638 22.0926 29.3638H21.267V30.4457H22.0926Z" fill="white"/>
<path d="M24.4843 32.7649C24.436 32.712 24.3989 32.6498 24.3753 32.5821C24.3516 32.5144 24.342 32.4427 24.3468 32.3712V29.0255C24.3387 28.9538 24.3468 28.8811 24.3706 28.813C24.3944 28.7448 24.4333 28.6829 24.4843 28.6318C24.5354 28.5807 24.5973 28.5419 24.6655 28.518C24.7336 28.4942 24.8063 28.4861 24.8781 28.4943H26.1411C26.6286 28.4943 27.0486 28.5828 27.401 28.7599C27.7423 28.9255 28.0255 29.1904 28.2135 29.5199C28.401 29.8495 28.4947 30.2414 28.4947 30.6955C28.4947 31.1497 28.402 31.5455 28.2166 31.883C28.0323 32.2132 27.7505 32.4784 27.4098 32.6424C27.0573 32.8174 26.6352 32.9051 26.1436 32.9055H24.8781C24.8063 32.91 24.7345 32.8998 24.6668 32.8756C24.5991 32.8514 24.537 32.8138 24.4843 32.7649ZM26.0599 31.9774C26.4894 31.9774 26.8115 31.872 27.0261 31.6612C27.2406 31.4503 27.3479 31.1285 27.3479 30.6955C27.3479 30.2618 27.2406 29.9408 27.0261 29.7324C26.8115 29.5241 26.4894 29.4199 26.0599 29.4199H25.4974V31.9774H26.0599Z" fill="white"/>
<path d="M29.3396 32.7848C29.2867 32.7303 29.2455 32.6657 29.2185 32.5947C29.1915 32.5238 29.1793 32.4481 29.1827 32.3722V29.0265C29.1746 28.9547 29.1828 28.8821 29.2067 28.8139C29.2306 28.7457 29.2695 28.6838 29.3207 28.6328C29.3718 28.5817 29.4337 28.5428 29.5019 28.519C29.5701 28.4952 29.6428 28.4871 29.7145 28.4953H31.8157C32.0032 28.4953 32.1407 28.5317 32.2282 28.6046C32.3157 28.6776 32.3594 28.7932 32.3594 28.9515C32.3594 29.1057 32.3147 29.2184 32.2251 29.2897C32.1357 29.3603 31.9988 29.3959 31.8157 29.3959H30.3127V30.2084H31.6876C31.8709 30.2084 32.0074 30.2459 32.097 30.3209C32.1865 30.3959 32.2313 30.5107 32.2313 30.6653C32.2313 30.8199 32.1865 30.9324 32.097 31.0028C32.0074 31.0732 31.8709 31.1087 31.6876 31.1091H30.3127V32.3754C30.3166 32.4514 30.305 32.5274 30.2787 32.5989C30.2524 32.6703 30.2119 32.7357 30.1595 32.791C30.0457 32.8907 29.8993 32.9453 29.748 32.9448C29.5967 32.9442 29.4508 32.8884 29.3377 32.7879L29.3396 32.7848Z" fill="white"/>
</g>
<defs>
<clipPath id="clip0_590:1430">
<rect width="32" height="32" fill="white" transform="translate(10 10)"/>
</clipPath>
</defs>
</svg>
