<svg width="615" height="380" viewBox="0 0 615 380" fill="none" xmlns="http://www.w3.org/2000/svg">
<g clip-path="url(#clip0_411:2142)">
<path d="M101.283 124.699H9.73535V295.118H101.283V124.699Z" fill="#EBEBEB"/>
<path d="M105.776 120.015H5.33569V124.699H105.776V120.015Z" fill="#DBDBDB"/>
<path d="M137.322 120.015H105.776V124.699H137.322V120.015Z" fill="#EBEBEB"/>
<path d="M132.267 124.699H101.283V295.118H132.267V124.699Z" fill="#DBDBDB"/>
<path d="M91.3608 142.875H19.7512V183.254H91.3608V142.875Z" stroke="#C7C7C7" stroke-width="0.25" stroke-miterlimit="10"/>
<path d="M59.4407 154.586H45.4932V162.643H59.4407V154.586Z" fill="#C7C7C7"/>
<path d="M63.5593 155.242H49.6118V162.081H63.5593V155.242Z" stroke="#C7C7C7" stroke-width="0.25" stroke-miterlimit="10"/>
<path d="M91.3608 193.935H19.7512V234.315H91.3608V193.935Z" stroke="#C7C7C7" stroke-width="0.25" stroke-miterlimit="10"/>
<path d="M59.4407 205.646H45.4932V213.703H59.4407V205.646Z" fill="#C7C7C7"/>
<path d="M63.5593 206.302H49.6118V213.141H63.5593V206.302Z" stroke="#C7C7C7" stroke-width="0.25" stroke-miterlimit="10"/>
<path d="M91.3608 244.901H19.7512V285.281H91.3608V244.901Z" stroke="#C7C7C7" stroke-width="0.25" stroke-miterlimit="10"/>
<path d="M59.4407 256.706H45.4932V264.763H59.4407V256.706Z" fill="#C7C7C7"/>
<path d="M63.5593 257.268H49.6118V264.107H63.5593V257.268Z" stroke="#C7C7C7" stroke-width="0.25" stroke-miterlimit="10"/>
<path d="M568.945 174.354H477.397V295.118H568.945V174.354Z" fill="#EBEBEB"/>
<path d="M573.345 169.67H472.904V174.354H573.345V169.67Z" fill="#DBDBDB"/>
<path d="M604.891 169.67H573.345V174.354H604.891V169.67Z" fill="#EBEBEB"/>
<path d="M599.929 174.354H568.945V295.118H599.929V174.354Z" fill="#DBDBDB"/>
<path d="M558.929 192.53H487.32V232.909H558.929V192.53Z" fill="#A6A6A6"/>
<path d="M551.909 182.13H497.429V221.667H551.909V182.13Z" fill="#C7C7C7"/>
<path d="M516.712 178.102H497.429V182.13H517.836L516.712 178.102Z" fill="#C7C7C7"/>
<path d="M551.815 221.667H497.336L493.123 185.409H547.603L551.815 221.667Z" fill="#A6A6A6"/>
<path d="M511.938 181.662H492.655L493.123 185.409H513.436L511.938 181.662Z" fill="#A6A6A6"/>
<path d="M524.482 192.53H452.872V232.909H524.482V192.53Z" fill="#EBEBEB" stroke="#C7C7C7" stroke-width="0.25" stroke-miterlimit="10"/>
<path d="M492.562 204.241H478.614V212.298H492.562V204.241Z" fill="#C7C7C7"/>
<path d="M496.68 204.896H482.733V211.736H496.68V204.896Z" stroke="#C7C7C7" stroke-width="0.25" stroke-miterlimit="10"/>
<path d="M558.929 198.526H524.575V232.909H558.929V198.526Z" fill="#DBDBDB"/>
<path d="M558.929 243.59H487.32V283.969H558.929V243.59Z" stroke="#C7C7C7" stroke-width="0.25" stroke-miterlimit="10"/>
<path d="M527.009 255.301H513.062V263.358H527.009V255.301Z" fill="#C7C7C7"/>
<path d="M531.222 255.957H517.274V262.796H531.222V255.957Z" stroke="#C7C7C7" stroke-width="0.25" stroke-miterlimit="10"/>
<path d="M0 295.118L76.29 294.837L152.58 294.744L305.16 294.65L457.646 294.744L533.936 294.837L610.226 295.118L533.936 295.306L457.646 295.399L305.16 295.587L152.58 295.399L76.29 295.306L0 295.118Z" fill="#263238"/>
<path d="M305.16 380C453.378 380 573.532 366.829 573.532 350.582C573.532 334.335 453.378 321.164 305.16 321.164C156.942 321.164 36.7876 334.335 36.7876 350.582C36.7876 366.829 156.942 380 305.16 380Z" fill="#EBEBEB"/>
<path d="M585.327 228.225C584.578 231.504 583.735 234.689 583.642 238.062C583.735 238.25 583.735 238.812 583.642 238.624C583.642 239.186 582.799 239.093 582.799 238.531C582.799 238.156 582.799 237.875 582.799 237.5C580.927 235.158 578.119 233.659 575.872 231.504C574.094 229.818 572.783 227.85 572.034 225.414C570.162 218.95 571.941 212.204 569.694 205.74C567.728 200.212 564.265 195.434 561.363 190.375C558.274 185.035 556.027 179.507 555.747 173.323C555.559 168.545 556.121 162.268 559.772 158.708C563.61 154.961 568.384 157.771 571.285 161.144C579.804 170.888 583.735 183.254 585.327 195.902C586.169 202.929 587.105 209.956 586.918 216.982C586.731 220.917 586.169 224.571 585.327 228.225Z" fill="#FFDC7B"/>
<path d="M583.641 240.592C584.109 234.034 584.016 227.382 583.454 220.823C583.454 220.823 583.454 220.823 583.454 220.73C583.548 215.39 584.016 210.049 583.735 204.709C583.548 198.9 582.612 193.185 581.395 187.47C581.395 187.377 581.301 187.377 581.301 187.47C582.331 192.998 582.986 198.619 583.173 204.241C583.267 207.239 583.267 210.33 583.08 213.328C582.986 214.265 582.893 215.296 582.893 216.326C580.74 201.243 575.217 187.002 566.979 174.26C566.886 174.073 566.605 174.26 566.699 174.448C572.596 184.098 576.902 194.684 579.616 205.646C575.498 198.057 569.32 191.874 564.733 184.566H564.639C568.758 192.717 575.591 199.088 579.897 207.051C580.646 210.33 581.301 213.609 581.769 216.889C582.425 221.386 582.705 225.976 582.799 230.567C580.272 225.883 577.744 221.479 575.685 216.514C575.591 216.42 575.404 216.514 575.498 216.607C577.276 221.76 579.523 227.194 582.799 231.598C582.799 234.877 582.705 238.062 582.518 241.341C582.05 249.961 580.552 258.486 579.897 267.106C579.897 267.387 580.272 267.387 580.272 267.106C582.05 258.58 583.08 249.492 583.641 240.592Z" fill="#263238"/>
<path d="M574.468 173.979C574.468 173.886 574.375 173.979 574.375 173.979C575.966 178.383 576.808 182.786 578.025 187.189C578.119 187.377 578.4 187.377 578.306 187.096C577.838 182.692 576.247 178.195 574.468 173.979Z" fill="#263238"/>
<path d="M614.532 192.342C613.502 194.872 612.285 197.401 610.881 199.837C608.073 204.99 605.078 209.768 604.516 215.764C604.235 218.481 604.235 221.105 603.393 223.728C602.644 225.976 601.521 228.037 600.21 230.005C597.121 234.502 593.283 238.343 590.475 243.028C587.479 247.899 585.327 253.146 584.016 258.674C583.922 258.955 583.454 258.861 583.548 258.58C583.548 258.58 583.548 258.58 583.548 258.486C583.548 258.486 583.548 258.486 583.548 258.392C583.08 245.557 584.11 232.535 588.041 220.168C589.726 214.734 591.879 209.394 594.313 204.241C596.372 199.744 598.993 195.434 602.738 192.155C605.171 190 610.32 185.878 613.783 188.033C615.281 189.063 615.187 190.656 614.532 192.342Z" fill="#FFDC7B"/>
<path d="M601.614 221.479C599.368 225.227 596.747 228.787 594.126 232.253C592.909 233.846 591.598 235.533 590.381 237.125C589.82 237.875 589.164 238.624 588.603 239.467C588.977 238.156 589.258 236.751 589.632 235.439C591.317 228.974 592.909 222.323 595.342 216.139C597.776 210.049 600.959 204.241 604.235 198.619C604.329 198.432 604.048 198.338 603.954 198.526C601.24 203.023 598.432 207.426 596.185 212.204C594.874 214.827 593.845 217.544 592.909 220.355C594.032 214.453 595.342 208.738 597.308 203.023C597.308 202.929 597.215 202.929 597.215 203.023C594.874 208.644 593.096 214.921 592.628 221.011C592.066 222.697 591.598 224.384 591.037 226.07C588.977 233.284 587.199 240.592 585.607 247.899C585.607 243.028 585.982 238.343 586.824 233.565C586.824 233.471 586.637 233.471 586.637 233.565C585.42 238.437 584.858 243.59 585.42 248.649C584.765 251.46 584.203 254.177 583.642 256.987C582.331 262.89 580.833 268.979 580.084 274.975C580.084 275.163 580.272 275.163 580.365 274.975C581.208 271.696 581.769 268.324 582.518 265.044C583.267 261.765 584.016 258.486 584.765 255.113C585.888 250.335 587.011 245.557 588.228 240.779C589.071 238.999 590.568 237.5 591.692 236.001C593.002 234.408 594.219 232.816 595.436 231.129C597.776 228.038 599.836 224.946 601.614 221.573C601.708 221.479 601.614 221.479 601.614 221.479Z" fill="#263238"/>
<path d="M602.082 215.952C599.274 219.512 596.747 223.54 594.781 227.569C594.781 227.663 594.874 227.663 594.874 227.663C597.308 223.822 599.742 219.887 602.176 216.045C602.269 216.045 602.176 215.952 602.082 215.952Z" fill="#263238"/>
<path d="M547.322 204.522C549.007 207.426 550.879 210.893 550.224 214.265C549.756 216.42 548.164 218.2 547.884 220.449C547.228 225.414 552.096 228.6 555.653 230.942C564.452 236.75 576.621 241.903 578.212 253.802C578.306 254.177 578.961 254.083 578.961 253.708V253.614C578.961 253.614 578.961 253.614 578.961 253.521C580.084 247.525 580.084 241.435 578.774 235.439C577.463 229.349 574.749 223.821 571.66 218.481C566.324 209.393 560.708 200.118 552.658 193.185C550.411 191.218 545.918 187.845 544.139 192.155C542.454 196.371 545.263 201.055 547.322 204.522Z" fill="#FFDC7B"/>
<path d="M555.466 223.728C561.363 230.099 570.63 233.659 575.685 240.779C572.689 229.911 567.728 220.074 560.146 211.548C559.959 211.361 560.24 210.986 560.427 211.267C565.95 216.608 570.162 222.885 573.157 229.63C571.847 224.758 569.881 220.168 567.728 215.671C567.635 215.483 567.915 215.39 568.009 215.483C570.817 220.355 572.689 225.789 573.906 231.223C580.552 247.337 581.208 266.169 579.804 283.22C579.804 283.501 579.429 283.501 579.429 283.22C579.804 269.822 579.616 256.238 576.434 243.215C576.34 242.934 576.246 242.653 576.246 242.372C570.724 234.689 561.457 231.129 555.559 223.915C555.278 223.822 555.372 223.728 555.466 223.728Z" fill="#263238"/>
<path d="M554.062 218.294C557.151 221.105 560.146 224.009 563.235 226.82V226.913C559.865 224.665 556.496 221.667 553.875 218.481C553.781 218.388 553.968 218.2 554.062 218.294Z" fill="#263238"/>
<path d="M553.594 206.114C556.402 210.611 559.304 214.827 562.767 218.762C562.767 218.856 562.767 218.856 562.674 218.856C558.929 215.296 555.653 210.893 553.406 206.208C553.406 206.021 553.5 205.927 553.594 206.114Z" fill="#263238"/>
<path d="M567.448 295.212H594.406L590.756 258.861H571.566L567.448 295.212Z" fill="#455A64"/>
<path d="M570.911 264.763H591.317L590.756 258.861H571.566L570.911 264.763Z" fill="#263238"/>
<path d="M568.242 260.7H593.516V254.891H568.242V260.7Z" fill="#455A64"/>
<path d="M161.566 359.951C159.413 360.7 97.258 359.857 94.9178 358.358C93.9817 357.796 93.6073 348.708 93.4201 337.747C93.4201 337.653 93.4201 337.559 93.4201 337.372C93.4201 335.123 93.3265 332.781 93.3265 330.439C93.3265 330.158 93.3265 329.783 93.3265 329.502C93.2329 313.669 93.5137 297.273 93.5137 297.273L135.075 297.648L133.858 329.596L133.765 330.907L133.484 337.559V338.215C133.484 338.215 157.167 349.177 159.507 351.144C161.941 353.018 163.719 359.295 161.566 359.951Z" fill="#DD6A57"/>
<path d="M142.938 342.337C142.751 342.244 142.657 342.244 142.657 342.15C142.657 342.244 142.751 342.244 142.938 342.337Z" fill="#FFDC7B"/>
<path d="M161.566 359.951C159.413 360.7 97.258 359.857 94.9178 358.358C94.0753 357.89 93.7009 350.676 93.5137 341.307C104.934 343.649 149.023 352.643 150.24 348.802C150.708 347.303 146.963 344.773 144.53 343.274C151.082 346.366 158.29 349.926 159.507 350.957C161.941 353.018 163.719 359.295 161.566 359.951Z" fill="#FFDC7B"/>
<path opacity="0.1" d="M122.532 359.857C108.584 359.482 95.9475 359.014 94.9178 358.358C94.0753 357.89 93.7009 350.676 93.5137 341.307C95.105 341.681 97.4452 342.15 100.16 342.618L122.532 359.857Z" fill="black"/>
<path d="M80.783 118.047C80.783 118.047 90.1437 223.166 91.6414 231.129C92.0158 232.909 92.203 242.934 92.3903 255.676C92.6711 283.501 92.4839 333.812 92.4839 333.812H136.292C136.292 333.812 134.982 246.775 133.016 230.754C131.05 214.64 118.694 118.047 118.694 118.047H80.783Z" fill="#37474F"/>
<path d="M134.233 326.129C127.4 325.942 129.365 325.942 122.532 325.848C119.162 325.848 97.1644 325.661 94.0753 326.129C93.9817 326.129 93.9817 326.223 94.0753 326.223C97.1644 326.785 119.162 326.504 122.532 326.504C129.365 326.41 127.4 326.41 134.233 326.223C134.42 326.317 134.42 326.129 134.233 326.129Z" fill="#263238"/>
<path d="M100.721 276.381C100.628 270.01 100.628 263.639 100.534 257.268C100.534 251.085 100.534 244.901 100.16 238.812C99.5981 226.351 97.0707 214.078 95.2922 201.805C93.5136 189.438 92.0159 177.071 90.6118 164.704C89.1141 150.838 87.71 136.879 86.3059 123.013C86.3059 122.919 86.1187 122.919 86.1187 123.013C88.178 147.84 90.5182 172.668 93.8881 197.308C94.7305 203.397 95.6666 209.581 96.6963 215.671C97.726 221.854 98.7556 228.037 99.2237 234.315C99.6917 240.404 99.7853 246.588 99.8789 252.678C99.9725 259.048 99.9725 265.419 100.066 271.696C100.16 285.843 100.347 307.579 100.441 321.632C100.441 321.913 100.909 321.913 100.909 321.632C100.909 309.172 100.815 288.935 100.721 276.381Z" fill="#263238"/>
<path d="M71.5159 118.047C71.5159 118.047 90.0501 223.166 91.6414 231.129C92.0159 232.909 92.2031 242.934 92.3903 255.676L113.171 118.047H71.5159Z" fill="#263238"/>
<path d="M110.737 363.698C108.491 364.26 46.6163 359.014 44.3697 357.327C43.5273 356.672 43.7145 347.584 44.3697 336.622C44.3697 336.529 44.3697 336.435 44.3697 336.248C44.4633 333.999 44.6505 331.657 44.7442 329.315C44.7442 329.034 44.7442 328.659 44.8378 328.378C45.8674 312.544 47.2716 296.243 47.2716 296.243L88.7396 299.615L85.1825 331.376L85.0889 332.594L84.34 339.152L84.2464 339.808C84.2464 339.808 107.087 352.456 109.333 354.517C111.58 356.765 112.984 363.136 110.737 363.698Z" fill="#DD6A57"/>
<path d="M110.737 363.698C108.491 364.26 46.6164 359.014 44.3698 357.327C43.6209 356.765 43.7145 350.113 44.089 341.307C53.6369 343.743 99.8789 355.36 101.283 351.612C101.564 350.769 100.628 349.645 99.2237 348.427C103.998 351.238 108.304 353.767 109.24 354.704C111.58 356.765 112.984 363.136 110.737 363.698Z" fill="#FFDC7B"/>
<path d="M86.1187 336.154L42.4041 334.28C42.4041 334.28 54.3858 238.156 54.573 232.253C54.9474 223.447 59.0662 187.189 62.6232 157.865C62.6232 157.865 55.8835 141.938 68.4269 117.954H118.694C118.694 117.954 115.324 140.814 109.52 155.242C109.52 155.242 105.121 156.647 98.3812 160.394C98.3812 160.394 93.42 225.789 93.2328 233.94C92.8584 250.148 86.1187 336.154 86.1187 336.154Z" fill="#37474F"/>
<path d="M84.9018 328.097C78.0685 327.628 80.0342 327.722 73.2009 327.347C69.831 327.16 47.9269 326.035 44.7443 326.41C44.6507 326.41 44.6507 326.504 44.7443 326.504C47.8333 327.16 69.831 327.909 73.2009 328.003C80.0342 328.19 78.0685 328.097 84.9018 328.19C85.089 328.284 85.089 328.097 84.9018 328.097Z" fill="#263238"/>
<path d="M71.7033 120.108C69.0823 125.73 66.6485 131.632 65.806 137.816C65.338 140.72 65.1508 149.246 67.959 157.396C67.959 157.396 67.5846 162.549 67.2101 165.922C66.8357 169.201 66.4613 172.574 66.0868 175.853C65.338 182.599 64.4955 189.25 63.7467 195.996C62.2489 209.393 60.6576 222.791 59.1599 236.095C57.6622 249.492 56.0709 262.89 54.5731 276.193C53.0754 289.497 51.4841 302.894 50.1736 316.198C49.9864 317.885 49.7992 319.477 49.7056 321.164C49.7056 321.351 49.9864 321.351 49.9864 321.164C51.7649 307.86 53.2626 294.463 54.854 281.065C56.4453 267.761 57.943 254.458 59.5343 241.154C61.1257 227.756 62.6234 214.453 64.2147 201.055C65.7124 187.845 67.3973 174.729 68.7079 161.519C68.8951 159.926 68.8951 158.427 68.8015 156.928C68.8015 156.928 65.9932 147.559 66.3677 141.469C66.7421 135.099 68.2398 130.321 70.4864 124.512C71.048 123.013 71.6097 121.608 72.1713 120.108C72.3585 120.015 71.8905 119.921 71.7033 120.108Z" fill="#263238"/>
<path d="M111.486 154.305C106.993 155.897 102.594 158.052 98.3813 160.394C98.1941 160.488 98.2877 160.769 98.475 160.676C102.874 158.802 107.368 156.928 111.674 154.867C112.048 154.679 111.861 154.211 111.486 154.305Z" fill="#263238"/>
<path d="M105.308 146.997C105.776 144.374 106.057 141.75 106.338 139.034C106.712 134.068 106.806 129.103 106.151 124.137C106.151 123.95 105.87 123.95 105.87 124.137C105.87 130.976 105.683 137.816 104.653 144.655C104.185 147.934 102.5 152.806 105.964 153.368C109.427 153.836 111.674 145.685 112.142 143.343C113.359 137.066 113.359 130.227 112.891 123.856C112.891 123.669 112.61 123.669 112.61 123.856C112.61 129.103 112.329 133.693 111.861 138.565C111.674 140.814 109.802 153.368 105.87 152.525C105.215 152.337 104.84 151.681 104.747 150.745C104.653 149.714 105.121 148.215 105.308 146.997Z" fill="#263238"/>
<path d="M105.964 152.993C105.589 153.836 105.308 154.68 105.121 155.616C104.934 156.272 104.653 157.022 104.747 157.771C104.747 157.865 104.934 157.959 105.027 157.865C105.495 157.303 105.683 156.46 105.964 155.804C106.244 154.961 106.619 154.211 106.9 153.368C106.993 152.806 106.244 152.525 105.964 152.993Z" fill="#263238"/>
<path d="M91.7349 26.7012C83.5911 33.7278 85.8377 43.8461 82.4678 49.4674C80.4084 52.8402 73.5751 56.4004 72.2646 60.3353C70.018 66.7061 75.4473 69.0483 74.2304 72.5148C72.5454 77.4803 65.8993 77.1055 64.6824 85.1627C63.4655 93.2199 72.3582 101.839 93.4199 104.088C114.482 106.43 125.995 98.6538 126.744 91.8146C127.493 84.9753 120.472 82.7268 120.004 77.574C119.724 74.2949 124.029 72.0463 124.217 66.0503C124.404 60.0542 118.6 58.0868 117.758 52.9339C116.915 47.7811 119.63 35.4142 112.141 29.1371C104.653 22.86 95.76 23.2347 91.7349 26.7012Z" fill="#263238"/>
<path d="M92.671 26.8885C90.3308 28.4813 88.5523 30.6361 87.2418 33.1657C85.8377 35.7889 84.9952 38.5996 84.2464 41.4102C83.7783 43.0966 83.4039 44.783 82.655 46.3757C81.9998 47.6874 80.9701 48.8116 79.8468 49.8422C77.6002 51.9033 74.8856 53.496 72.8263 55.7446C70.8605 57.8994 69.3628 60.8974 70.1117 63.8954C70.4861 65.4881 71.6094 66.8935 72.2646 68.3925C72.9199 69.7978 73.1071 71.5779 71.8902 72.7958C70.8605 73.8264 69.2692 74.2948 68.1459 75.138C66.929 75.9812 65.8993 77.0118 65.0569 78.1361C63.2783 80.4783 62.5295 83.3826 63.0911 86.1933C64.308 92.7515 70.4861 96.499 76.1025 98.8412C76.8514 99.1223 77.6938 99.497 78.4427 99.7781C78.5363 99.8718 78.6299 99.6844 78.5363 99.5907C72.8263 97.0611 66.2738 94.0631 64.0272 87.6923C62.9975 84.7879 63.3719 81.7899 64.9633 79.2603C65.7121 78.0424 66.8354 76.9181 67.9587 76.0749C69.082 75.2317 70.3925 74.6696 71.6094 73.9201C72.8263 73.0769 73.4815 71.9526 73.3879 70.4536C73.2943 68.9546 72.5454 67.5493 71.7966 66.2377C71.0477 64.8323 70.2989 63.427 70.4861 61.8343C70.5797 60.3353 71.3285 58.8363 72.171 57.6183C73.9495 55.0887 76.5706 53.496 78.9107 51.5286C81.2509 49.6548 83.1231 47.4063 84.0591 44.4083C84.5272 42.9093 84.808 41.3166 85.1824 39.8175C85.5569 38.4122 85.9313 37.0069 86.3993 35.6953C87.429 32.9783 88.8331 30.355 90.8925 28.3876C91.4541 27.8254 92.0158 27.357 92.671 26.9822C92.8582 26.9822 92.7646 26.8885 92.671 26.8885Z" fill="#263238"/>
<path d="M127.774 86.8491C127.493 85.7248 127.025 84.6943 126.276 83.7574C125.527 82.8205 124.685 82.071 123.842 81.2278C123.093 80.3846 122.345 79.5414 122.157 78.4172C121.877 77.1055 122.438 75.7939 123.093 74.5759C123.749 73.358 124.498 72.2337 124.966 70.9221C125.434 69.7041 125.714 68.2988 125.808 66.9872C125.995 64.1765 125.153 61.5533 123.655 59.1174C122.906 57.8994 122.157 56.8688 121.408 55.6509C120.566 54.3393 120.004 53.0276 119.536 51.5286C118.6 48.3432 118.413 44.9704 117.571 41.785C116.822 38.5059 115.605 35.3205 114.107 32.2288C114.107 32.1351 113.92 32.2288 114.014 32.3225C115.324 35.0394 116.26 37.9438 117.009 40.9418C117.664 43.7525 117.945 46.6568 118.413 49.4675C118.694 50.8728 118.975 52.2781 119.443 53.5897C119.911 54.8077 120.566 56.0256 121.315 57.1499C122.719 59.4921 124.217 61.7406 124.591 64.5513C124.966 67.2682 124.498 69.9852 123.187 72.4211C122.064 74.4823 120.566 76.8245 121.502 79.2603C122.345 81.3215 124.31 82.5394 125.621 84.3195C127.025 86.1933 127.493 88.6292 127.025 90.9714C125.902 96.8738 120.004 99.7781 114.482 100.059C114.294 100.059 114.294 100.34 114.482 100.34C119.256 100.247 124.498 98.1854 126.744 93.6884C127.961 91.5335 128.335 89.0976 127.774 86.8491Z" fill="#263238"/>
<path d="M103.904 77.1992C106.899 85.069 120.941 113.925 131.518 116.174C143.313 118.703 166.153 109.615 180.849 103.245C186.091 100.996 173.267 82.7268 167.463 80.572C164 79.2604 139.756 91.8146 134.42 91.8146C131.425 91.8146 124.591 80.6657 111.112 70.1726C103.623 64.4576 99.879 66.5187 103.904 77.1992Z" fill="#DD6A57"/>
<path d="M177.105 104.369C180.288 103.432 198.073 98.2791 201.63 95.9369C205.187 93.501 215.016 85.9122 213.425 82.9142C211.833 80.0099 208.838 81.9773 208.838 81.9773C208.838 81.9773 212.489 78.0424 210.616 75.2318C208.744 72.4211 204.157 75.7002 204.157 75.7002C204.157 75.7002 207.621 71.3905 205.562 68.7673C203.502 66.144 199.383 70.1726 199.383 70.1726C199.383 70.1726 202.66 66.4251 200.132 64.926C197.043 63.146 191.614 70.7347 187.495 73.0769C186.559 73.6391 167.651 82.5394 167.651 82.5394L177.105 104.369Z" fill="#DD6A57"/>
<path d="M199.758 69.8915C195.826 75.5128 193.112 77.2929 186.934 79.8225C186.84 79.9162 186.84 80.1036 187.027 80.0099C193.393 78.0424 197.043 76.356 200.132 70.0789C200.132 69.7978 199.945 69.7041 199.758 69.8915Z" fill="#263238"/>
<path d="M204.438 75.3254C199.852 80.7594 196.95 82.7268 190.584 85.9122C190.491 85.9122 190.584 86.0996 190.678 86.0996C197.137 83.4763 200.788 81.6962 204.626 75.6065C204.813 75.3254 204.626 75.0444 204.438 75.3254Z" fill="#263238"/>
<path d="M208.463 82.1647C203.596 87.1302 200.507 89.3787 194.048 91.7209C193.861 91.8146 193.954 92.002 194.141 92.002C201.068 90.3156 204.906 87.5049 208.651 82.3521C208.931 81.9773 208.838 81.8836 208.463 82.1647Z" fill="#263238"/>
<path d="M162.034 82.1647C162.034 82.1647 167.183 74.3886 170.178 71.9527C173.173 69.5168 187.683 64.645 188.899 67.7367C190.491 71.6716 182.721 76.1686 178.603 77.855C178.603 77.855 182.347 87.0365 177.386 91.4399C172.518 95.9369 162.034 82.1647 162.034 82.1647Z" fill="#DD6A57"/>
<path d="M189.087 68.9547C187.963 73.6391 182.347 75.5128 178.509 77.4803C178.228 77.6677 178.228 77.9487 178.415 78.1361C179.726 82.071 180.381 88.0671 177.76 91.5335C177.667 91.6272 177.854 91.7209 177.947 91.6272C181.317 88.2545 181.13 82.3521 179.445 78.1361C183.283 76.1687 188.806 74.1075 189.087 68.9547Z" fill="#263238"/>
<path d="M125.621 118.328L131.986 89.5661C131.986 89.5661 121.97 78.3235 111.58 69.3294C101.189 60.3353 96.3219 61.3659 102.5 77.2929C108.772 93.2199 117.852 111.677 125.621 118.328Z" fill="#FFDC7B"/>
<path d="M125.621 118.328L131.986 89.5661C131.986 89.5661 121.97 78.3235 111.58 69.3294C101.189 60.3353 96.3219 61.3659 102.5 77.2929C108.772 93.2199 117.852 111.677 125.621 118.328Z" fill="#FFDC7B"/>
<path d="M128.429 89.004C127.306 92.9389 126.37 96.8738 125.527 100.902C125.153 102.87 124.685 104.931 124.404 106.898C124.03 108.96 123.842 111.021 123.468 113.082C123.468 113.176 123.562 113.176 123.655 113.082C124.404 109.053 125.247 105.025 126.089 100.996C126.931 96.9675 127.68 92.9389 128.523 89.004C128.616 88.9103 128.429 88.9103 128.429 89.004Z" fill="#263238"/>
<path d="M104.747 81.8836C105.027 82.5395 105.215 83.1953 105.308 83.8511C105.308 83.9448 105.308 84.0385 105.308 84.2259C105.121 83.6637 104.84 83.1953 104.653 82.7268C104.747 82.3521 104.747 82.071 104.747 81.8836ZM121.877 80.1036C121.783 80.7594 121.783 81.5089 121.877 82.1647C121.97 82.8205 122.158 83.4764 122.438 84.1322C122.532 83.4764 122.532 82.7268 122.438 82.071C122.345 81.4152 122.158 80.7594 121.877 80.1036ZM116.073 100.715C115.979 101.371 115.979 102.12 116.073 102.776C116.167 103.432 116.354 104.088 116.635 104.744C116.728 104.088 116.728 103.338 116.635 102.682C116.541 102.027 116.354 101.371 116.073 100.715ZM121.502 94.2505C122.158 94.3442 122.906 94.3442 123.562 94.2505C124.217 94.1568 124.872 93.9694 125.527 93.6884C124.872 93.5947 124.123 93.5947 123.468 93.6884C122.813 93.8758 122.158 93.9694 121.502 94.2505ZM100.441 67.3619C101.096 67.4556 101.845 67.4556 102.5 67.3619C103.155 67.2683 103.811 67.0809 104.466 66.7998C103.811 66.7061 103.062 66.7061 102.406 66.7998C101.751 66.8935 101.096 67.0809 100.441 67.3619ZM109.801 94.0631C109.895 94.0631 109.895 94.0631 109.801 94.0631C109.895 94.0631 109.895 94.0631 109.801 94.0631ZM127.212 104.275C126.651 104.65 126.183 105.212 125.808 105.774C125.434 106.336 125.059 106.898 124.779 107.554C125.34 107.18 125.808 106.617 126.183 106.055C126.651 105.493 127.025 104.931 127.212 104.275ZM116.635 89.1913C116.26 88.6292 115.699 88.1608 115.137 87.786C114.575 87.4113 114.014 87.0365 113.358 86.7554C113.733 87.3176 114.295 87.786 114.856 88.1608C115.418 88.5355 115.979 88.9103 116.635 89.1913ZM112.703 73.9201C112.142 74.2949 111.674 74.857 111.299 75.4191C110.925 75.9813 110.55 76.5434 110.269 77.1992C110.831 76.8245 111.299 76.2623 111.674 75.7002C112.142 75.2318 112.516 74.576 112.703 73.9201Z" fill="white"/>
<path d="M102.593 77.2929C108.772 93.2199 117.945 111.677 125.714 118.328L128.335 106.43L100.347 64.645C99.3172 66.3314 99.8789 70.36 102.593 77.2929Z" fill="#263238"/>
<path d="M120.473 125.355C120.473 125.355 100.628 130.039 62.9041 126.854C62.9041 126.854 77.6004 79.8225 89.4885 67.0809C94.9177 61.2722 100.16 62.2091 104.653 65.8629C105.776 66.7998 119.63 84.3195 120.753 90.503C121.783 95.9369 117.384 101.933 117.384 101.933L120.473 125.355Z" fill="#FFDC7B"/>
<path d="M105.308 83.8511C105.402 84.5069 105.402 85.1627 105.308 85.9122C105.027 85.2564 104.84 84.6006 104.747 83.9448C104.653 83.289 104.653 82.6332 104.747 81.8836C105.027 82.5395 105.215 83.1953 105.308 83.8511ZM105.683 115.611C105.589 116.267 105.589 117.017 105.683 117.673C105.776 118.328 105.963 118.984 106.244 119.64C106.338 118.984 106.338 118.235 106.244 117.579C106.151 116.923 105.963 116.267 105.683 115.611ZM115.418 121.701C115.324 122.357 115.324 123.107 115.418 123.762C115.511 124.418 115.699 125.074 115.979 125.73C116.073 125.074 116.073 124.324 115.979 123.669C115.886 123.013 115.699 122.357 115.418 121.701ZM83.7785 93.7821C83.6849 94.4379 83.6849 95.1874 83.7785 95.8432C83.8721 96.499 84.0593 97.1548 84.3401 97.8107C84.4337 97.1548 84.4337 96.4053 84.3401 95.7495C84.2465 95.0937 84.0593 94.4379 83.7785 93.7821ZM116.073 100.715C115.979 101.371 115.979 102.12 116.073 102.776C116.167 103.432 116.354 104.088 116.635 104.744C116.728 104.088 116.728 103.338 116.635 102.682C116.541 102.027 116.354 101.371 116.073 100.715ZM92.7648 88.2544C93.42 88.3481 94.1689 88.3481 94.8242 88.2544C95.4794 88.1608 96.1346 87.9734 96.7899 87.6923C96.1346 87.5986 95.3858 87.5986 94.7305 87.6923C94.0753 87.786 93.42 87.9734 92.7648 88.2544ZM81.0639 108.21C81.7191 108.304 82.468 108.304 83.1232 108.21C83.7785 108.116 84.4337 107.929 85.089 107.648C84.4337 107.554 83.6849 107.554 83.0296 107.648C82.3744 107.742 81.7191 107.929 81.0639 108.21ZM100.628 106.524C101.283 106.617 102.032 106.617 102.687 106.524C103.342 106.43 103.998 106.243 104.653 105.962C103.998 105.868 103.249 105.868 102.594 105.962C101.938 106.149 101.283 106.243 100.628 106.524ZM65.1506 124.887C65.8059 124.98 66.5547 124.98 67.21 124.887C67.8653 124.793 68.5205 124.606 69.1758 124.324C68.5205 124.231 67.7716 124.231 67.1164 124.324C66.4611 124.418 65.8059 124.512 65.1506 124.887ZM100.441 67.3619C101.096 67.4556 101.845 67.4556 102.5 67.3619C103.155 67.2683 103.81 67.0809 104.466 66.7998C103.81 66.7061 103.062 66.7061 102.406 66.7998C101.751 66.8935 101.096 67.0809 100.441 67.3619ZM93.7945 70.9221C93.2328 71.2969 92.7648 71.859 92.3904 72.4211C92.0159 72.9833 91.6415 73.5454 91.3607 74.2012C91.9223 73.8264 92.3904 73.2643 92.7648 72.7022C93.2328 72.2337 93.6072 71.5779 93.7945 70.9221ZM76.1027 96.4053C75.541 96.7801 75.073 97.3422 74.6986 97.9044C74.3242 98.4665 73.9497 99.0286 73.6689 99.6844C74.2305 99.3097 74.6986 98.7476 75.073 98.1854C75.4474 97.6233 75.8219 97.0612 76.1027 96.4053ZM109.895 93.9694C109.333 94.3442 108.865 94.9063 108.491 95.4685C108.116 96.0306 107.742 96.5927 107.461 97.2485C108.023 96.8738 108.491 96.3116 108.865 95.7495C109.333 95.2811 109.708 94.6253 109.895 93.9694ZM93.0456 112.988C92.484 113.363 92.0159 113.925 91.6415 114.487C91.2671 115.049 90.8926 115.611 90.6118 116.267C91.1735 115.893 91.6415 115.33 92.0159 114.768C92.3904 114.206 92.7648 113.644 93.0456 112.988ZM111.673 74.9507C111.486 75.1381 111.393 75.2318 111.299 75.4191C110.925 75.9813 110.55 76.5434 110.269 77.1992C110.831 76.8245 111.299 76.2623 111.673 75.7002C111.767 75.6065 111.861 75.4191 111.954 75.3255C111.861 75.2318 111.767 75.0444 111.673 74.9507ZM116.635 89.1913C116.26 88.6292 115.699 88.1608 115.137 87.786C114.575 87.4113 114.014 87.0365 113.358 86.7554C113.733 87.3176 114.294 87.786 114.856 88.1608C115.418 88.5355 115.979 88.9103 116.635 89.1913ZM73.5753 112.801C73.2009 112.239 72.6392 111.77 72.0776 111.395C71.5159 111.021 70.9543 110.646 70.299 110.365C70.6735 110.927 71.2351 111.395 71.7968 111.77C72.3584 112.145 72.92 112.52 73.5753 112.801ZM117.571 113.55C117.196 112.988 116.635 112.52 116.073 112.145C115.511 111.77 114.95 111.395 114.294 111.114C114.669 111.677 115.231 112.145 115.792 112.52C116.354 112.894 116.915 113.269 117.571 113.55ZM87.1483 84.1322C86.7739 83.57 86.2123 83.1016 85.6506 82.7268C85.089 82.3521 84.5273 81.9773 83.8721 81.6963C84.2465 82.2584 84.8082 82.7268 85.3698 83.1016C85.9315 83.4763 86.4931 83.8511 87.1483 84.1322ZM99.6917 126.292C99.3173 125.73 98.7557 125.261 98.194 124.887C97.6324 124.512 97.0707 124.137 96.4155 123.856C96.7899 124.418 97.3515 124.887 97.9132 125.261C98.4748 125.636 99.0365 126.011 99.6917 126.292ZM95.9474 100.34C95.573 99.7781 95.0114 99.3097 94.4497 98.9349C93.8881 98.5602 93.3264 98.1854 92.6712 97.9044C93.0456 98.4665 93.6073 98.9349 94.1689 99.3097C94.7305 99.7781 95.2922 100.059 95.9474 100.34ZM81.8127 121.139C81.4383 120.577 80.8767 120.108 80.315 119.734C79.7534 119.359 79.1917 118.984 78.5365 118.703C78.9109 119.265 79.4726 119.734 80.0342 120.108C80.5958 120.577 81.1575 120.952 81.8127 121.139Z" fill="white"/>
<path d="M113.546 77.574C114.763 79.1667 115.886 80.9467 116.916 82.6331C116.448 81.6026 116.073 80.6657 115.699 79.6351C115.699 79.6351 115.792 79.5414 115.792 79.6351C116.167 80.3846 116.541 81.0404 116.822 81.7899C117.103 82.4458 117.384 83.1016 117.571 83.8511C118.694 85.9122 120.098 87.9734 120.66 90.3156C121.221 92.3767 121.128 94.6252 120.566 96.6864C120.285 97.717 119.817 98.7475 119.349 99.7781C118.881 100.621 118.413 101.558 117.758 102.214C118.132 104.369 118.413 106.617 118.694 108.772C118.975 110.927 119.349 113.082 119.349 115.237C119.349 115.33 119.162 115.424 119.162 115.237C119.162 115.049 119.069 114.956 119.069 114.768V114.675C118.6 112.707 118.413 110.646 118.132 108.679C117.852 106.617 117.29 102.308 117.29 102.214C117.29 102.12 118.32 100.434 118.694 99.5907C119.162 98.5602 119.537 97.5296 119.817 96.499C120.379 94.4379 120.473 92.3767 119.911 90.3156C119.349 88.1608 118.132 86.0059 117.009 84.0385C115.792 81.9773 114.669 79.8225 113.452 77.7613C113.358 77.574 113.452 77.4803 113.546 77.574Z" fill="#263238"/>
<path d="M86.3993 70.36C76.5706 83.6637 57.7555 115.237 64.1208 122.17C74.5112 133.6 99.4108 143.25 107.18 145.311C110.55 146.248 121.783 121.701 118.6 119.827C114.762 117.579 88.0843 109.334 88.1779 107.086C88.1779 105.774 90.9861 95 93.3263 81.1341C95.7601 65.0197 91.0797 63.9891 86.3993 70.36Z" fill="#DD6A57"/>
<path d="M108.491 117.579C108.491 117.579 114.482 115.611 120.753 112.801C124.31 111.208 130.488 109.053 133.671 109.053C138.351 109.053 157.822 112.145 157.166 116.829C156.605 121.139 140.224 116.361 140.224 116.361C140.224 116.361 157.166 119.64 155.575 124.699C153.89 129.758 136.105 121.889 136.105 121.889C136.105 121.889 153.422 125.73 150.988 130.602C149.116 134.349 132.548 128.166 132.548 128.166C132.548 128.166 147.431 131.538 145.653 135.473C143.687 139.783 128.055 135.099 128.055 135.099C121.783 144.28 112.235 147.84 105.402 144.749C104.278 144.28 108.491 117.579 108.491 117.579Z" fill="#DD6A57"/>
<path d="M134.42 114.862C136.386 115.143 138.445 115.518 140.411 115.986C142.377 116.455 144.342 117.017 146.215 117.766C150.895 119.453 153.61 121.233 153.422 121.139C149.21 118.984 142.189 117.11 140.224 116.548C138.352 115.986 136.386 115.424 134.42 114.862C134.326 114.956 134.326 114.862 134.42 114.862Z" fill="#263238"/>
<path d="M132.454 121.982C134.981 122.544 137.509 122.919 140.036 123.575C142.564 124.231 144.904 124.98 147.338 125.823C147.525 125.917 147.431 126.011 147.244 125.917C144.717 125.261 142.376 124.793 139.849 124.137C137.509 123.388 134.981 122.638 132.454 121.982Z" fill="#263238"/>
<path d="M129.74 127.791C133.671 128.353 137.509 129.665 141.16 131.07C141.347 131.164 141.253 131.257 140.972 131.164C137.228 130.039 134.233 129.103 129.646 127.885C129.646 127.885 129.646 127.697 129.74 127.791Z" fill="#263238"/>
<path d="M124.497 111.208C125.433 110.552 126.557 110.178 127.68 109.709C128.71 109.334 129.739 108.96 130.769 108.678C133.109 108.116 135.449 108.023 137.79 108.397C145.559 109.709 149.584 111.489 153.984 113.269C154.077 113.269 154.077 113.457 153.984 113.457C149.584 112.239 144.81 110.365 138.164 109.428C135.824 109.053 133.577 108.96 131.237 109.522C130.02 109.803 128.897 110.178 127.774 110.552C126.744 110.927 125.714 111.302 124.685 111.583C124.497 111.489 124.404 111.302 124.497 111.208Z" fill="#263238"/>
<path d="M61.5935 117.579L88.9268 106.43C88.9268 106.43 92.4839 91.8146 93.9816 78.1361C95.4793 64.5513 91.9223 60.9911 82.2807 75.1381C72.7328 89.3787 62.7168 107.367 61.5935 117.579Z" fill="#FFDC7B"/>
<path d="M83.5913 74.6696C83.4041 74.3885 83.3105 74.0138 83.3105 73.7327C83.4041 73.5453 83.5913 73.358 83.6849 73.2643C83.6849 73.7327 83.6849 74.2012 83.5913 74.6696ZM83.7785 93.782C83.6849 94.4379 83.6849 95.1874 83.7785 95.8432C83.8721 96.499 84.0593 97.1548 84.3402 97.8106C84.4338 97.1548 84.4338 96.4053 84.3402 95.7495C84.2466 95.0937 84.0594 94.4379 83.7785 93.782ZM81.0639 108.21C81.7192 108.304 82.468 108.304 83.1233 108.21C83.7785 108.116 84.4338 107.929 85.089 107.648C84.4338 107.554 83.6849 107.554 83.0297 107.648C82.3744 107.742 81.7192 107.929 81.0639 108.21ZM75.1667 86.287C75.0731 86.4743 74.9794 86.6617 74.7922 86.8491C74.8858 86.8491 74.9794 86.8491 75.073 86.8491C75.7283 86.7554 76.3836 86.568 77.0388 86.287C76.4772 86.1933 75.8219 86.1933 75.1667 86.287ZM93.7945 70.9221C93.2329 71.2968 92.7648 71.859 92.3904 72.4211C92.016 72.9832 91.6415 73.5453 91.3607 74.2012C91.9224 73.8264 92.3904 73.2643 92.7648 72.7022C93.2329 72.2337 93.6073 71.5779 93.7945 70.9221ZM76.1027 96.4053C75.5411 96.7801 75.0731 97.3422 74.6986 97.9043C74.3242 98.4665 73.9498 99.0286 73.6689 99.6844C74.2306 99.3097 74.6986 98.7475 75.073 98.1854C75.4475 97.6233 75.8219 97.0611 76.1027 96.4053ZM73.5753 112.801C73.2009 112.239 72.6393 111.77 72.0776 111.395C71.516 111.021 70.9543 110.646 70.2991 110.365C70.6735 110.927 71.2351 111.395 71.7968 111.77C72.3584 112.145 72.9201 112.52 73.5753 112.801ZM87.1484 84.1321C86.774 83.57 86.2123 83.1016 85.6507 82.7268C85.089 82.3521 84.5274 81.9773 83.8721 81.6962C84.2466 82.2584 84.8082 82.7268 85.3699 83.1016C85.9315 83.4763 86.4931 83.8511 87.1484 84.1321Z" fill="white"/>
<path d="M93.7008 86.6617C93.2328 87.4112 92.952 88.2544 92.6711 89.0976C92.5775 89.3787 92.4839 89.6598 92.3903 89.9408C92.6711 88.3481 92.8584 86.7554 93.0456 85.1627C93.0456 85.069 92.8584 84.9753 92.8584 85.1627C92.2031 88.7229 89.0205 105.493 88.8332 106.336C88.7396 106.336 87.8972 106.805 87.8972 106.805C87.8036 106.805 87.8972 106.992 87.9908 106.898L89.1141 106.43C89.4885 105.68 91.9223 92.8452 92.2031 91.3461C92.2031 91.2525 92.2967 91.1588 92.2967 91.1588C92.3903 90.9714 92.4839 90.6903 92.5775 90.5029C92.7648 90.1282 92.8584 89.6598 93.0456 89.285C93.3264 88.4418 93.6072 87.5986 93.7008 86.6617C93.7944 86.6617 93.7008 86.568 93.7008 86.6617Z" fill="#263238"/>
<path d="M88.3652 103.432C87.2419 103.619 86.2122 104.088 85.1826 104.369C84.1529 104.744 83.0296 105.025 81.9999 105.399C79.9405 106.055 77.9748 106.805 75.9154 107.554C71.8903 109.053 67.8652 110.646 64.0273 112.52C63.9337 112.52 64.0273 112.707 64.1209 112.707C68.2396 111.302 72.2647 109.615 76.3835 108.116C78.3492 107.367 80.4086 106.617 82.3743 105.868C83.404 105.493 84.3401 105.118 85.3698 104.744C86.3994 104.275 87.5227 103.994 88.3652 103.432C88.5524 103.432 88.4588 103.432 88.3652 103.432Z" fill="#263238"/>
<path d="M94.3559 65.5823C94.5431 66.6129 99.3171 73.2648 103.997 73.0774C105.495 72.9837 105.589 64.7391 105.589 64.7391L105.776 64.177L107.742 55.6514L97.8194 49.0932L96.4153 48.25C96.4153 48.25 96.0408 50.5922 95.5728 53.5902C95.5728 53.6839 95.5728 53.8713 95.4792 53.965C95.4792 54.1524 95.3856 54.2461 95.3856 54.4334C95.292 54.9019 95.1984 55.3703 95.1984 55.7451C95.1048 56.1198 95.1048 56.4009 95.0112 56.7756C94.9176 57.1504 94.9176 57.5251 94.9176 57.8062C94.4495 61.4601 94.2623 65.2076 94.3559 65.5823Z" fill="#DD6A57"/>
<path d="M95.4792 53.4961C97.8194 60.3353 103.249 63.146 105.776 64.0828L107.742 55.5572L97.8194 48.999L96.4153 48.1558C96.3217 48.2495 95.9473 50.5917 95.4792 53.4961Z" fill="#263238"/>
<path d="M120.004 42.1598C121.97 57.431 113.077 60.3353 109.801 60.7101C106.806 61.0848 96.6026 62.0217 93.0455 47.0315C89.4884 32.0414 95.9473 26.3264 102.781 25.1085C109.614 23.8905 118.039 26.8886 120.004 42.1598Z" fill="#DD6A57"/>
<path d="M117.571 39.8176C117.196 39.8176 116.915 39.7239 116.541 39.7239C116.167 39.7239 115.792 39.7239 115.511 39.4428C115.324 39.2554 115.324 38.9744 115.418 38.787C115.699 38.3185 116.26 38.3185 116.728 38.3185C117.29 38.3185 117.664 38.5059 118.039 38.8807C118.32 39.1617 118.039 39.8176 117.571 39.8176Z" fill="#263238"/>
<path d="M107.087 40.9418C107.461 40.8481 107.742 40.7544 108.116 40.5671C108.491 40.4734 108.865 40.3797 109.052 40.0049C109.146 39.8176 109.146 39.5365 108.959 39.3491C108.584 38.9744 108.023 39.0681 107.555 39.1617C107.087 39.3491 106.712 39.5365 106.431 40.0049C106.151 40.4734 106.619 41.0355 107.087 40.9418Z" fill="#263238"/>
<path d="M109.895 44.4083L109.801 44.502C109.988 45.5326 109.988 46.7505 109.052 47.2189V47.3126C110.269 46.9379 110.176 45.3452 109.895 44.4083Z" fill="#263238"/>
<path d="M108.865 43.3777C107.18 43.4714 107.461 46.8442 109.052 46.7505C110.55 46.7505 110.269 43.3777 108.865 43.3777Z" fill="#263238"/>
<path d="M108.21 43.6588C107.929 43.8462 107.648 44.2209 107.367 44.3146C106.993 44.4083 106.619 44.0335 106.338 43.7525H106.244C106.338 44.4083 106.619 45.0641 107.274 45.0641C107.929 45.0641 108.304 44.502 108.397 43.8462C108.397 43.7525 108.304 43.5651 108.21 43.6588Z" fill="#263238"/>
<path d="M115.699 43.6588C115.699 43.5651 115.699 43.6588 115.699 43.6588C115.886 44.783 116.073 46.001 117.009 46.2821V46.3757C115.886 46.1884 115.511 44.5957 115.699 43.6588Z" fill="#263238"/>
<path d="M116.541 42.4417C118.226 42.1607 118.6 45.5334 117.103 45.8145C115.511 46.0019 115.137 42.7228 116.541 42.4417Z" fill="#263238"/>
<path d="M117.196 42.6282C117.477 42.8156 117.758 43.0966 118.132 43.003C118.507 43.003 118.694 42.6282 118.881 42.2534H118.975C119.068 42.9093 118.975 43.5651 118.32 43.7525C117.758 43.9398 117.29 43.4714 117.103 42.8156C117.009 42.7219 117.103 42.5345 117.196 42.6282Z" fill="#263238"/>
<path d="M110.55 52.9339C110.831 53.1213 111.112 53.4961 111.486 53.4961C111.861 53.4961 112.235 53.3087 112.61 53.215C112.61 53.215 112.703 53.215 112.703 53.3087C112.422 53.6834 111.861 53.9645 111.393 53.9645C110.925 53.8708 110.644 53.4961 110.55 53.1213C110.457 52.9339 110.55 52.9339 110.55 52.9339Z" fill="#263238"/>
<path d="M114.481 48.7179C114.481 48.7179 114.856 50.217 114.95 50.9665C114.95 51.0602 114.762 51.0601 114.575 51.1538C113.265 51.5286 111.954 51.1538 111.018 50.217C110.924 50.1233 111.018 50.0296 111.112 50.1233C112.141 50.7791 113.265 50.7791 114.388 50.6854C114.388 50.498 113.639 48.0621 113.733 48.0621C114.107 47.9684 114.95 48.1558 115.418 48.2495C114.762 45.0641 113.545 41.9724 112.89 38.787C112.89 38.6933 113.077 38.5996 113.077 38.6933C114.575 41.785 115.418 45.5325 116.26 48.8116C116.354 49.1864 114.856 48.8116 114.481 48.7179Z" fill="#263238"/>
<path d="M94.5433 47.5C96.9771 47.4063 96.9771 42.2535 96.9771 42.2535C96.9771 42.2535 101.938 41.6913 102.781 34.3836C102.781 34.3836 103.062 37.7564 101.283 40.5671C101.283 40.5671 109.988 38.5996 112.797 30.9172C112.797 30.9172 111.767 34.8521 110.55 36.3511C110.55 36.3511 114.107 34.9458 115.605 31.6667C115.605 31.6667 117.664 35.6953 118.975 36.8195C118.975 36.8195 116.915 21.4546 102.874 24.7337C102.874 24.7337 93.9816 26.3264 91.6415 33.7278C89.1141 40.9418 94.5433 47.5 94.5433 47.5Z" fill="#263238"/>
<path d="M107.648 50.3106C105.495 50.3106 103.529 48.9053 102.968 46.7505C102.312 44.2209 103.81 41.5976 106.338 40.9418C108.865 40.286 111.486 41.785 112.141 44.3146C112.797 46.8442 111.299 49.4674 108.771 50.1233C108.491 50.217 108.023 50.3106 107.648 50.3106ZM107.555 41.4102C107.18 41.4102 106.899 41.5039 106.525 41.5039C104.278 42.0661 102.968 44.3146 103.623 46.5631C104.185 48.8116 106.431 50.1233 108.678 49.4674C110.924 48.9053 112.235 46.6568 111.58 44.4083C111.112 42.6282 109.427 41.4102 107.555 41.4102Z" fill="#FFDC7B"/>
<path d="M118.507 48.9053C116.728 48.9053 115.043 47.0315 114.669 44.5957C114.482 43.3777 114.762 42.1598 115.23 41.1292C115.792 40.0986 116.635 39.5365 117.571 39.3491C118.507 39.2554 119.536 39.6302 120.285 40.4734C121.034 41.3166 121.502 42.4408 121.689 43.6588C122.064 46.282 120.66 48.6242 118.787 48.8116C118.694 48.9053 118.6 48.9053 118.507 48.9053ZM117.945 40.0049C117.851 40.0049 117.758 40.0049 117.664 40.0049C116.915 40.0986 116.26 40.5671 115.792 41.4102C115.324 42.2534 115.137 43.3777 115.324 44.502C115.605 46.7505 117.103 48.4369 118.694 48.2495C120.285 48.0621 121.315 46.001 121.034 43.7525C120.94 42.6282 120.472 41.5976 119.817 40.9418C119.349 40.3797 118.6 40.0049 117.945 40.0049Z" fill="#FFDC7B"/>
<path d="M112.141 44.8767L111.673 44.4083C112.329 43.7525 113.826 42.7219 115.137 43.7525L114.762 44.2209C113.639 43.3777 112.235 44.8767 112.141 44.8767Z" fill="#FFDC7B"/>
<path d="M92.203 48.8116L91.6414 48.6242C91.735 48.3432 92.671 45.9073 94.0751 45.4388C95.3856 45.0641 102.968 44.6893 103.342 44.6893V45.3452C100.908 45.4388 95.1984 45.7199 94.2624 46.001C93.2327 46.3757 92.3902 48.1558 92.203 48.8116Z" fill="#FFDC7B"/>
<path d="M93.7944 52.7465C94.0752 52.8402 94.2624 52.8402 94.5432 52.9339C94.8241 52.9339 95.0113 52.9339 95.2921 52.9339C95.6665 52.8402 95.9474 52.7465 96.1346 52.6529C96.3218 52.5592 96.509 52.3718 96.6962 52.1844C97.0706 51.716 97.2579 51.3412 97.2579 51.3412L96.2282 47.3126C96.2282 47.3126 92.6711 42.6282 90.5181 43.9398C88.3652 45.0641 91.1734 51.9033 93.7944 52.7465Z" fill="#DD6A57"/>
<path d="M91.3606 45.6262C91.3606 45.6262 91.3606 45.7199 91.3606 45.6262C93.1391 46.3757 94.1688 47.9684 94.9177 49.6548C94.356 48.999 93.6072 48.7179 92.7647 49.3738C92.7647 49.3738 92.7647 49.4674 92.8583 49.4674C93.6072 49.2801 94.0752 49.3738 94.6368 49.9359C95.0113 50.3106 95.2921 50.8728 95.5729 51.3412C95.6665 51.5286 95.9473 51.4349 95.8537 51.2475C95.7601 48.9053 93.7944 45.8136 91.3606 45.6262Z" fill="#263238"/>
<path d="M93.9815 52.0907C94.0751 52.4655 94.4496 52.7465 94.824 52.6529C95.1984 52.5592 95.4792 52.1844 95.3856 51.8097C95.292 51.4349 94.9176 51.1538 94.5432 51.2475C94.1687 51.2475 93.8879 51.6223 93.9815 52.0907Z" fill="white"/>
<path d="M92.4838 51.0601C92.5774 51.3412 92.8582 51.5286 93.1391 51.4349C93.4199 51.3412 93.6071 51.0601 93.5135 50.7791C93.4199 50.498 93.1391 50.3106 92.8582 50.4043C92.5774 50.498 92.3902 50.7791 92.4838 51.0601Z" fill="white"/>
<path d="M105.589 65.3945L103.342 72.3274L94.356 64.2702L92.1094 67.1746C92.1094 67.1746 101.283 80.2909 101.283 79.7288L103.717 73.7327L108.023 77.574L106.993 67.3619L105.589 65.3945Z" fill="#EBEBEB"/>
<path d="M107.742 72.5148C107.555 70.8284 107.367 69.142 107.087 67.4556C107.087 67.3619 106.993 67.3619 106.993 67.4556C106.806 69.142 107.648 75.5128 107.742 77.1055C107.555 76.9181 103.81 73.7327 103.717 73.8264C103.155 74.7633 101.376 79.1667 101.283 79.6351C99.8788 77.574 94.3559 69.9852 92.671 68.0177C92.5774 67.9241 92.5774 68.0177 92.5774 68.1114C93.8879 70.3599 101.189 80.572 101.283 80.4783C101.376 80.572 103.529 75.1381 103.81 74.1075C104.466 74.857 108.303 78.4172 108.303 78.1361C108.21 76.356 108.023 74.2012 107.742 72.5148Z" fill="#263238"/>
<path d="M282.507 80.7594H174.203V219.887H282.507V80.7594Z" fill="#EBEBEB"/>
<path d="M282.507 219.887L228.496 220.074L174.297 220.168H174.016V219.887L173.829 80.7594V80.2909H174.297L282.601 80.3846H282.975V80.7594L282.881 150.37L282.507 219.887ZM282.507 219.887L282.32 150.276L282.226 80.8531L282.601 81.2278L174.297 81.3215L174.765 80.8531L174.578 219.98L174.297 219.699L228.308 219.793L282.507 219.887Z" fill="#DBDBDB"/>
<path d="M185.998 110.552L228.308 110.365L270.619 110.552L228.308 110.646L185.998 110.552Z" fill="#C7C7C7"/>
<path d="M185.998 113.925L228.308 113.831L270.619 113.925L228.308 114.112L185.998 113.925Z" fill="#C7C7C7"/>
<path d="M185.998 117.392L228.308 117.298L270.619 117.392L228.308 117.485L185.998 117.392Z" fill="#C7C7C7"/>
<path d="M185.998 120.858L228.308 120.764L270.619 120.858L228.308 120.952L185.998 120.858Z" fill="#C7C7C7"/>
<path d="M185.998 124.324L228.308 124.231L270.619 124.324L228.308 124.418L185.998 124.324Z" fill="#C7C7C7"/>
<path d="M185.998 127.791L228.308 127.697L270.619 127.791L228.308 127.885L185.998 127.791Z" fill="#C7C7C7"/>
<path d="M185.998 131.257L228.308 131.164L270.619 131.257L228.308 131.351L185.998 131.257Z" fill="#C7C7C7"/>
<path d="M185.998 134.724L228.308 134.536L270.619 134.724L228.308 134.818L185.998 134.724Z" fill="#C7C7C7"/>
<path d="M185.998 138.097L228.308 138.003L270.619 138.097L228.308 138.284L185.998 138.097Z" fill="#C7C7C7"/>
<path d="M185.998 141.563L228.308 141.469L270.619 141.563L228.308 141.657L185.998 141.563Z" fill="#C7C7C7"/>
<path d="M185.998 145.03L228.308 144.936L270.619 145.03L228.308 145.123L185.998 145.03Z" fill="#C7C7C7"/>
<path d="M185.998 148.496L228.308 148.402L270.619 148.496L228.308 148.59L185.998 148.496Z" fill="#C7C7C7"/>
<path d="M185.998 151.963L228.308 151.869L270.619 151.963L228.308 152.056L185.998 151.963Z" fill="#C7C7C7"/>
<path d="M185.998 155.429L228.308 155.335L270.619 155.429L228.308 155.523L185.998 155.429Z" fill="#C7C7C7"/>
<path d="M185.998 158.802L228.308 158.708L270.619 158.802L228.308 158.989L185.998 158.802Z" fill="#C7C7C7"/>
<path d="M201.443 148.402H194.984V162.924H201.443V148.402Z" fill="#FFDC7B"/>
<path d="M213.331 140.626H206.872V162.83H213.331V140.626Z" fill="#FFDC7B"/>
<path d="M225.219 132.007H218.76V162.83H225.219V132.007Z" fill="#FFDC7B"/>
<path d="M237.107 128.259H230.648V162.83H237.107V128.259Z" fill="#FFDC7B"/>
<path d="M248.996 121.701H242.537V162.924H248.996V121.701Z" fill="#FFDC7B"/>
<path d="M260.977 115.143H254.518V162.924H260.977V115.143Z" fill="#FFDC7B"/>
<path d="M188.338 108.116L188.525 121.795L188.619 135.473C188.712 144.561 188.712 153.743 188.712 162.83L188.338 162.456H208.932L229.525 162.549L250.119 162.643L270.712 162.924L250.119 163.205L229.525 163.299L208.932 163.392H188.338H187.964V163.018C187.964 153.93 187.964 144.749 188.057 135.661L188.151 121.795L188.338 108.116Z" fill="#C7C7C7"/>
<path d="M201.443 165.735H194.984V166.297H201.443V165.735Z" fill="#C7C7C7"/>
<path d="M213.331 165.735H206.872V166.297H213.331V165.735Z" fill="#C7C7C7"/>
<path d="M225.219 165.735H218.76V166.297H225.219V165.735Z" fill="#C7C7C7"/>
<path d="M237.107 165.735H230.648V166.297H237.107V165.735Z" fill="#C7C7C7"/>
<path d="M248.996 165.735H242.537V166.297H248.996V165.735Z" fill="#C7C7C7"/>
<path d="M260.977 165.735H254.518V166.297H260.977V165.735Z" fill="#C7C7C7"/>
<path d="M195.733 150.182C198.916 150.182 202.005 149.901 205.094 149.433C208.183 149.058 211.272 148.496 214.361 147.747C220.445 146.341 226.436 144.374 231.959 141.563C237.575 138.846 242.817 135.286 247.404 131.07L248.247 130.32L249.089 129.477L250.68 127.791C251.71 126.573 252.74 125.449 253.676 124.231C255.642 121.795 257.327 119.172 258.918 116.455H259.011C256.203 122.076 252.459 127.229 247.872 131.632C245.626 133.881 243.098 135.848 240.571 137.628C237.95 139.408 235.235 141.001 232.427 142.406C226.717 145.217 220.726 147.184 214.548 148.496C208.276 149.808 202.005 150.463 195.733 150.182Z" fill="#263238"/>
<path d="M260.696 120.952L259.854 121.139L258.731 116.736L254.425 118.141L254.144 117.298L259.386 115.611L260.696 120.952Z" fill="#263238"/>
<path d="M184.269 188.013H272.447V184.453H184.269V188.013Z" fill="#DBDBDB"/>
<path d="M184.292 196.957H233.904V193.397H184.292V196.957Z" fill="#DBDBDB"/>
<path d="M203.552 99.7677H253.164V96.2075H203.552V99.7677Z" fill="#DBDBDB"/>
<path d="M262.007 253.802L155.95 275.631L127.961 139.408L206.685 123.2L239.354 143.531L262.007 253.802Z" fill="#FFDC7B"/>
<path opacity="0.8" d="M262.007 253.802L155.95 275.631L127.961 139.408L206.685 123.2L239.354 143.531L262.007 253.802Z" fill="white"/>
<path d="M206.685 123.2L239.354 143.531L212.02 149.152L206.685 123.2Z" fill="#FFDC7B"/>
<path d="M143.739 163.578L202.695 151.452L201.979 147.965L143.023 160.091L143.739 163.578Z" fill="#DBDBDB"/>
<path d="M145.591 172.427L204.547 160.301L203.831 156.814L144.875 168.94L145.591 172.427Z" fill="#DBDBDB"/>
<path d="M147.351 181.294L206.307 169.168L205.591 165.681L146.635 177.807L147.351 181.294Z" fill="#DBDBDB"/>
<path d="M149.21 190.133L235.58 172.367L234.864 168.88L148.494 186.646L149.21 190.133Z" fill="#DBDBDB"/>
<path d="M151.043 198.889L237.413 181.124L236.697 177.637L150.327 195.402L151.043 198.889Z" fill="#DBDBDB"/>
<path d="M152.803 207.757L239.173 189.992L238.457 186.504L152.087 204.27L152.803 207.757Z" fill="#DBDBDB"/>
<path d="M154.655 216.606L241.025 198.84L240.309 195.353L153.939 213.118L154.655 216.606Z" fill="#DBDBDB"/>
<path d="M156.415 225.473L242.786 207.708L242.07 204.221L155.699 221.986L156.415 225.473Z" fill="#DBDBDB"/>
<path d="M158.248 234.23L244.618 216.465L243.902 212.978L157.532 230.743L158.248 234.23Z" fill="#DBDBDB"/>
<path d="M160.1 243.079L246.47 225.313L245.754 221.826L159.384 239.592L160.1 243.079Z" fill="#DBDBDB"/>
<path d="M161.86 251.947L248.231 234.181L247.515 230.694L161.144 248.459L161.86 251.947Z" fill="#DBDBDB"/>
<path d="M163.693 260.704L250.064 242.938L249.348 239.451L162.977 257.216L163.693 260.704Z" fill="#DBDBDB"/>
<path d="M479.456 154.773C439.767 157.678 400.171 160.582 360.669 163.392C347.096 111.958 361.605 60.429 351.121 8.99409C390.81 6.08975 430.406 3.18541 469.908 0.374756C483.388 51.8097 468.879 103.338 479.456 154.773Z" fill="#EBEBEB"/>
<path d="M479.457 154.773C439.767 157.771 400.265 160.769 360.763 163.674C360.669 163.674 360.575 163.674 360.482 163.674C360.482 163.58 360.388 163.486 360.388 163.393C346.815 111.958 361.231 60.429 350.653 8.99408C350.653 8.80671 350.559 8.71302 350.559 8.52564C350.747 8.52564 350.84 8.52564 351.027 8.52564C390.717 5.71499 430.313 2.81065 469.815 0C469.909 0 470.002 0 470.096 0C470.096 0.0936884 470.189 0.187377 470.189 0.374753C483.669 51.8097 469.066 103.338 479.457 154.773ZM479.457 154.773C468.785 103.338 483.201 51.8097 469.534 0.374753C469.628 0.468442 469.815 0.56213 469.909 0.655819C430.406 3.56016 390.81 6.55819 351.121 9.46253C351.215 9.27515 351.402 9.08777 351.495 8.99408C361.979 60.429 347.47 111.958 360.856 163.393C360.763 163.299 360.575 163.205 360.482 163.111C400.171 160.394 439.767 157.584 479.457 154.773Z" fill="#DBDBDB"/>
<path d="M365.443 31.1045C387.721 29.5118 409.906 27.9191 432.185 26.3264C432.372 27.6381 432.466 28.9497 432.559 30.2613C410.281 31.854 388.096 33.4467 365.817 35.0395C365.63 33.7278 365.536 32.4162 365.443 31.1045Z" fill="#DBDBDB"/>
<path d="M366.098 41.0355C388.377 39.4428 410.749 37.8501 433.027 36.2574C433.121 37.569 433.215 38.8807 433.215 40.1923C410.936 41.785 388.564 43.3777 366.285 44.9704C366.192 43.7525 366.192 42.4408 366.098 41.0355Z" fill="#DBDBDB"/>
<path d="M366.379 51.0601C388.751 49.4674 411.123 47.8747 433.402 46.282C433.402 47.5937 433.495 48.9053 433.495 50.217C411.123 51.8097 388.751 53.4024 366.379 54.9951C366.473 53.6834 366.473 52.3718 366.379 51.0601Z" fill="#DBDBDB"/>
<path d="M366.473 61.0848C399.329 58.7426 432.091 56.4004 464.854 54.0582C464.854 55.3698 464.854 56.6815 464.854 57.9931C432.091 60.3353 399.235 62.6775 366.379 65.0197C366.473 63.7081 366.473 62.3964 366.473 61.0848Z" fill="#DBDBDB"/>
<path d="M366.285 71.1095C399.141 68.7673 431.998 66.425 464.854 64.0828C464.854 65.3945 464.854 66.7061 464.76 68.0177C431.904 70.36 399.048 72.7022 366.192 75.0444C366.285 73.7327 366.285 72.4211 366.285 71.1095Z" fill="#DBDBDB"/>
<path d="M366.098 81.1341C398.954 78.7919 431.81 76.4497 464.666 74.1075C464.666 75.4191 464.573 76.7308 464.573 78.0424C431.717 80.3846 398.861 82.7268 366.004 85.069C366.004 83.7574 366.098 82.4458 366.098 81.1341Z" fill="#DBDBDB"/>
<path d="M365.817 91.1588C398.673 88.8166 431.53 86.4743 464.386 84.1321C464.386 85.4438 464.292 86.7554 464.292 88.067C431.436 90.4093 398.58 92.7515 365.724 95.0937C365.817 93.782 365.817 92.4704 365.817 91.1588Z" fill="#DBDBDB"/>
<path d="M365.724 101.09C398.58 98.7475 431.436 96.4053 464.199 94.0631C464.199 95.3747 464.199 96.6864 464.105 97.998C431.249 100.34 398.486 102.682 365.63 105.025C365.724 103.807 365.724 102.495 365.724 101.09Z" fill="#DBDBDB"/>
<path d="M365.724 111.114C398.486 108.772 431.342 106.43 464.105 104.088C464.105 105.399 464.105 106.711 464.105 108.023C431.342 110.365 398.58 112.707 365.817 115.049C365.724 113.738 365.724 112.426 365.724 111.114Z" fill="#DBDBDB"/>
<path d="M366.004 121.139C398.673 118.797 431.436 116.455 464.198 114.112C464.198 115.424 464.292 116.736 464.292 118.047C431.53 120.39 398.861 122.732 366.192 125.074C366.098 123.762 366.004 122.451 366.004 121.139Z" fill="#DBDBDB"/>
<path d="M366.566 131.164C399.142 128.822 431.81 126.479 464.479 124.137C464.573 125.449 464.667 126.76 464.76 128.072C432.091 130.414 399.516 132.756 366.941 135.099C366.847 133.787 366.66 132.475 366.566 131.164Z" fill="#DBDBDB"/>
<path d="M367.596 141.188C400.077 138.846 432.653 136.504 465.228 134.162C465.322 135.473 465.509 136.785 465.603 138.097C433.027 140.439 400.545 142.781 368.064 145.123C367.97 143.812 367.783 142.5 367.596 141.188Z" fill="#DBDBDB"/>
<path d="M462.607 209.862C421.607 202.929 381.169 195.996 341.105 188.969C346.253 138.097 371.995 87.3176 370.685 36.4448C411.685 43.3777 452.123 50.3107 492.187 57.3373C486.945 108.21 461.297 159.083 462.607 209.862Z" fill="#FFDC7B"/>
<path opacity="0.8" d="M462.607 209.862C421.607 202.929 381.169 195.996 341.105 188.969C346.253 138.097 371.995 87.3176 370.685 36.4448C411.685 43.3777 452.123 50.3107 492.187 57.3373C486.945 108.21 461.297 159.083 462.607 209.862Z" fill="white"/>
<path d="M380.701 60.9911C402.886 64.8323 424.977 68.7673 446.975 72.6085C446.788 73.9201 446.507 75.2317 446.226 76.5434C424.322 72.7022 402.231 68.7673 380.139 64.926C380.42 63.6144 380.607 62.3028 380.701 60.9911Z" fill="#DBDBDB"/>
<path d="M379.297 70.9221C401.294 74.7633 423.292 78.6982 445.103 82.5394C444.822 83.8511 444.541 85.1627 444.26 86.4744C422.45 82.6331 400.546 78.6982 378.548 74.857C378.829 73.5454 379.11 72.2337 379.297 70.9221Z" fill="#DBDBDB"/>
<path d="M377.425 80.7594C399.329 84.6006 421.139 88.5355 442.856 92.3767C442.575 93.6884 442.201 95 441.92 96.3116C420.203 92.4704 398.393 88.5355 376.582 84.6943C376.957 83.3826 377.238 82.071 377.425 80.7594Z" fill="#DBDBDB"/>
<path d="M375.272 90.6903C407.192 96.3116 438.925 102.027 470.658 107.648C470.283 108.96 470.002 110.271 469.628 111.583C437.895 105.962 406.162 100.247 374.336 94.6252C374.71 93.3136 374.991 92.002 375.272 90.6903Z" fill="#DBDBDB"/>
<path d="M372.838 100.528C404.571 106.149 436.304 111.864 467.943 117.485C467.569 118.797 467.194 120.108 466.82 121.42C435.18 115.799 403.541 110.084 371.715 104.463C372.183 103.151 372.557 101.839 372.838 100.528Z" fill="#DBDBDB"/>
<path d="M370.31 110.459C402.043 116.08 433.683 121.795 465.322 127.416C464.947 128.728 464.573 130.039 464.292 131.351C432.653 125.73 401.014 120.015 369.281 114.393C369.562 113.082 369.936 111.77 370.31 110.459Z" fill="#DBDBDB"/>
<path d="M367.596 120.296C399.235 125.917 430.874 131.632 462.607 137.253C462.233 138.565 461.952 139.877 461.578 141.188C429.845 135.567 398.205 129.852 366.566 124.231C366.847 122.919 367.221 121.607 367.596 120.296Z" fill="#DBDBDB"/>
<path d="M364.881 130.227C396.52 135.848 428.253 141.563 460.08 147.184C459.705 148.496 459.425 149.808 459.144 151.119C427.317 145.498 395.584 139.783 363.852 134.162C364.132 132.85 364.507 131.538 364.881 130.227Z" fill="#DBDBDB"/>
<path d="M362.167 140.064C393.9 145.685 425.632 151.4 457.552 157.022C457.272 158.333 456.991 159.645 456.71 160.957C424.696 155.335 392.87 149.62 361.137 143.999C361.511 142.687 361.792 141.376 362.167 140.064Z" fill="#DBDBDB"/>
<path d="M359.639 149.995C391.466 155.616 423.386 161.331 455.493 166.953C455.212 168.264 455.025 169.576 454.744 170.888C422.543 165.266 390.623 159.551 358.703 153.93C358.984 152.618 359.358 151.307 359.639 149.995Z" fill="#DBDBDB"/>
<path d="M357.299 159.832C389.219 165.454 421.327 171.169 453.715 176.79C453.528 178.102 453.34 179.413 453.153 180.725C420.765 175.104 388.564 169.389 356.55 163.767C356.738 162.456 357.018 161.144 357.299 159.832Z" fill="#DBDBDB"/>
<path d="M355.24 169.763C387.347 175.385 419.735 181.1 452.311 186.721C452.123 188.033 452.03 189.344 451.936 190.656C419.267 185.035 386.785 179.32 354.584 173.698C354.772 172.387 355.053 171.075 355.24 169.763Z" fill="#DBDBDB"/>
<path d="M412.995 189.063H203.034V341.4H412.995V189.063Z" fill="#FFD45E"/>
<path d="M277.265 173.23H203.034V189.063H281.477L277.265 173.23Z" fill="#FFD45E"/>
<g opacity="0.1">
<path opacity="0.1" d="M412.995 189.063H203.034V341.4H412.995V189.063Z" fill="black"/>
<path opacity="0.1" d="M277.265 173.23H203.034V189.063H281.477L277.265 173.23Z" fill="black"/>
</g>
<path d="M411.591 284.344C370.591 272.633 330.527 261.016 291.025 249.492C300.948 203.116 328.749 157.584 330.621 110.459C371.621 121.514 411.591 132.569 451.094 143.718C441.078 190.937 413.276 236.844 411.591 284.344Z" fill="#EBEBEB"/>
<path d="M411.591 284.344C370.591 272.727 330.527 261.203 291.025 249.773C290.932 249.773 290.838 249.679 290.744 249.679C290.744 249.586 290.744 249.492 290.838 249.398C300.76 202.929 328.468 157.49 330.247 110.365C330.247 110.178 330.247 110.084 330.247 109.896C330.434 109.896 330.527 109.99 330.715 109.99C371.715 121.045 411.779 132.194 451.187 143.343C451.281 143.343 451.375 143.437 451.468 143.437C451.468 143.531 451.468 143.624 451.375 143.718C441.265 191.031 413.37 236.938 411.591 284.344ZM411.591 284.344C413.183 236.844 440.891 190.843 450.813 143.624C450.906 143.718 451 143.905 451.094 143.999C411.685 132.944 371.621 121.889 330.715 110.833C330.902 110.74 331.089 110.646 331.183 110.552C329.217 157.678 301.322 203.116 291.4 249.492C291.306 249.398 291.212 249.305 291.212 249.117C330.527 260.828 370.591 272.539 411.591 284.344Z" fill="#DBDBDB"/>
<path d="M405.133 198.057C399.048 214.359 380.608 223.447 363.384 218.294C346.067 213.235 337.08 195.996 343.071 179.788C348.968 163.58 366.754 154.398 384.258 159.364C401.669 164.423 411.311 181.755 405.133 198.057Z" fill="#455A64"/>
<path d="M374.055 188.97C366.941 197.027 359.827 205.084 352.9 213.142C342.416 205.272 338.578 191.968 342.977 179.882C348.875 163.768 366.847 154.493 384.165 159.458C401.576 164.424 411.217 181.943 405.133 198.151C394.742 195.06 384.446 191.968 374.055 188.97Z" fill="#DBDBDB"/>
<path d="M374.055 188.97C380.233 197.215 386.318 205.553 392.496 213.891C383.977 219.606 373.119 221.292 363.29 218.388C346.066 213.329 337.08 195.997 342.977 179.882C348.875 163.768 366.847 154.493 384.165 159.458C401.576 164.424 411.217 181.943 405.133 198.151C394.742 195.06 384.445 191.968 374.055 188.97Z" fill="#DBDBDB"/>
<path d="M374.055 188.97C363.196 190.75 352.338 192.624 341.479 194.404C340.731 189.532 341.292 184.567 342.977 179.882C348.874 163.768 366.847 154.493 384.164 159.458C401.575 164.424 411.217 181.943 405.132 198.151C394.742 195.06 384.445 191.968 374.055 188.97Z" fill="#FFDC7B"/>
<path d="M339.982 130.976C356.644 135.567 373.119 140.251 389.5 144.842C389.219 146.06 388.938 147.278 388.564 148.496C372.183 143.812 355.801 139.221 339.233 134.63C339.514 133.319 339.701 132.194 339.982 130.976Z" fill="#DBDBDB"/>
<path d="M336.238 223.728C358.142 230.192 380.139 236.657 402.324 243.215C401.95 244.433 401.669 245.651 401.388 246.775C379.11 240.217 357.018 233.752 335.021 227.288C335.395 226.164 335.77 224.946 336.238 223.728Z" fill="#DBDBDB"/>
<path d="M333.336 232.722C355.427 239.186 377.612 245.745 399.984 252.303C399.703 253.521 399.422 254.739 399.142 255.957C376.676 249.398 354.397 242.84 332.212 236.376C332.587 235.158 332.961 233.94 333.336 232.722Z" fill="#DBDBDB"/>
<path d="M330.808 241.81C353.087 248.368 375.459 254.926 398.112 261.484C397.925 262.702 397.644 263.92 397.457 265.138C374.71 258.486 352.151 251.928 329.872 245.37C330.153 244.152 330.434 242.934 330.808 241.81Z" fill="#DBDBDB"/>
<path d="M323.226 223.821C320.605 223.072 317.891 222.229 315.27 221.479C315.644 220.261 316.112 219.137 316.486 217.919C319.107 218.669 321.822 219.512 324.443 220.261C324.069 221.479 323.601 222.697 323.226 223.821Z" fill="#FFDC7B"/>
<path d="M320.418 232.816C317.703 232.066 315.082 231.223 312.368 230.473C312.742 229.255 313.117 228.131 313.491 226.913C316.112 227.663 318.827 228.506 321.541 229.255C321.073 230.473 320.792 231.691 320.418 232.816Z" fill="#455A64"/>
<path d="M317.891 241.81C315.176 241.06 312.461 240.217 309.84 239.467C310.121 238.25 310.496 237.125 310.87 235.907C313.585 236.657 316.206 237.5 318.92 238.249C318.452 239.467 318.171 240.685 317.891 241.81Z" fill="#DBDBDB"/>
<path d="M412.434 341.307H202.473L186.279 201.711H396.24L412.434 341.307Z" fill="#FFDC7B"/>
<path d="M258.824 187.189H184.687L186.279 201.711H264.722L258.824 187.189Z" fill="#FFDC7B"/>
<path d="M329.872 94.7189C329.498 93.501 329.404 92.1894 329.404 90.9714C329.404 89.7535 329.498 88.4418 329.872 87.2239C330.247 88.4418 330.34 89.7535 330.34 90.9714C330.34 92.283 330.247 93.501 329.872 94.7189Z" fill="#263238"/>
<path d="M322.29 96.9675C321.354 96.0306 320.699 95 320.044 93.9694C319.388 92.8452 318.92 91.7209 318.546 90.503C319.482 91.4398 320.231 92.4704 320.792 93.501C321.448 94.5316 322.009 95.6558 322.29 96.9675Z" fill="#263238"/>
<path d="M316.767 102.682C315.457 102.401 314.427 101.839 313.304 101.183C312.274 100.528 311.151 99.8718 310.308 98.9349C311.619 99.216 312.649 99.7781 313.772 100.434C314.895 100.996 315.925 101.746 316.767 102.682Z" fill="#263238"/>
<path d="M314.895 110.365C313.678 110.74 312.368 110.833 311.151 110.833C309.934 110.833 308.623 110.74 307.406 110.365C308.623 109.99 309.934 109.896 311.151 109.896C312.368 109.896 313.678 109.99 314.895 110.365Z" fill="#263238"/>
<path d="M317.048 117.954C316.112 118.891 315.082 119.546 314.053 120.202C312.929 120.858 311.806 121.326 310.589 121.701C311.525 120.764 312.555 120.015 313.585 119.453C314.708 118.891 315.831 118.328 317.048 117.954Z" fill="#263238"/>
<path d="M322.758 123.481C322.477 124.793 321.916 125.823 321.26 126.948C320.605 127.978 319.95 129.103 319.014 129.946C319.294 128.634 319.856 127.604 320.511 126.479C321.167 125.449 321.822 124.418 322.758 123.481Z" fill="#263238"/>
<path d="M330.528 125.355C330.902 126.573 330.996 127.885 330.996 129.103C330.996 130.321 330.902 131.632 330.528 132.85C330.153 131.632 330.06 130.321 330.06 129.103C330.06 127.885 330.153 126.667 330.528 125.355Z" fill="#263238"/>
<path d="M338.11 123.2C339.046 124.137 339.701 125.168 340.356 126.198C341.011 127.322 341.479 128.447 341.854 129.665C340.918 128.728 340.169 127.697 339.607 126.667C338.952 125.542 338.39 124.418 338.11 123.2Z" fill="#263238"/>
<path d="M343.633 117.485C344.943 117.766 345.973 118.328 347.096 118.984C348.126 119.64 349.249 120.296 350.091 121.233C348.781 120.952 347.751 120.39 346.628 119.734C345.505 119.078 344.475 118.422 343.633 117.485Z" fill="#263238"/>
<path d="M345.505 109.803C346.722 109.428 348.032 109.334 349.249 109.334C350.466 109.334 351.776 109.428 352.993 109.803C351.776 110.178 350.466 110.271 349.249 110.271C348.032 110.271 346.722 110.178 345.505 109.803Z" fill="#263238"/>
<path d="M343.258 102.12C344.194 101.183 345.224 100.528 346.253 99.8718C347.377 99.216 348.5 98.7475 349.717 98.3728C348.781 99.3097 347.751 100.059 346.722 100.621C345.692 101.277 344.569 101.839 343.258 102.12Z" fill="#263238"/>
<path d="M337.548 96.6864C337.829 95.3747 338.391 94.3442 339.046 93.2199C339.701 92.1893 340.356 91.0651 341.292 90.2219C341.012 91.5335 340.45 92.5641 339.795 93.6884C339.233 94.7189 338.578 95.7495 337.548 96.6864Z" fill="#263238"/>
<path d="M333.71 265.232H381.824C381.824 265.232 384.164 260.36 384.164 255.676C384.164 246.026 384.164 217.076 384.164 217.076H336.05C336.05 217.076 336.05 246.4 336.05 256.144C336.144 260.079 333.71 265.232 333.71 265.232Z" fill="#455A64"/>
<path d="M341.947 228.506C347.564 228.037 353.274 227.944 358.89 227.944C364.507 227.944 370.217 228.037 375.833 228.506C370.217 228.974 364.507 229.068 358.89 229.068C353.274 229.068 347.657 228.974 341.947 228.506Z" fill="white"/>
<path d="M341.947 234.877C347.002 234.408 352.15 234.315 357.205 234.315C362.26 234.315 367.408 234.408 372.463 234.877C367.408 235.345 362.26 235.439 357.205 235.439C352.15 235.439 347.096 235.345 341.947 234.877Z" fill="white"/>
<path d="M341.947 241.154C346.44 240.685 350.84 240.592 355.333 240.592C359.826 240.592 364.226 240.685 368.719 241.154C364.226 241.622 359.826 241.716 355.333 241.716C350.934 241.81 346.44 241.622 341.947 241.154Z" fill="white"/>
<path d="M341.947 247.525C347.564 247.056 353.274 246.963 358.89 246.963C364.507 246.963 370.217 247.056 375.833 247.525C370.217 247.993 364.507 248.087 358.89 248.087C353.274 248.087 347.657 247.993 341.947 247.525Z" fill="white"/>
</g>
<defs>
<clipPath id="clip0_411:2142">
<rect width="615" height="380" fill="white"/>
</clipPath>
</defs>
</svg>
