<svg width="16" height="16" viewBox="0 0 16 16" fill="none" xmlns="http://www.w3.org/2000/svg">
<path d="M11.9457 9.54673C11.773 9.71407 11.6937 9.95607 11.733 10.1934L12.3257 13.4734C12.3757 13.7514 12.2583 14.0327 12.0257 14.1934C11.7977 14.3601 11.4943 14.3801 11.2457 14.2467L8.293 12.7067C8.19033 12.6521 8.07633 12.6227 7.95967 12.6194H7.779C7.71633 12.6287 7.655 12.6487 7.599 12.6794L4.64567 14.2267C4.49967 14.3001 4.33433 14.3261 4.17233 14.3001C3.77767 14.2254 3.51433 13.8494 3.579 13.4527L4.17233 10.1727C4.21167 9.9334 4.13233 9.69007 3.95967 9.52007L1.55233 7.18673C1.351 6.9914 1.281 6.69807 1.373 6.4334C1.46233 6.1694 1.69033 5.97673 1.96567 5.9334L5.279 5.45273C5.531 5.42673 5.75233 5.2734 5.86567 5.04673L7.32567 2.0534C7.36033 1.98673 7.405 1.9254 7.459 1.8734L7.519 1.82673C7.55033 1.79207 7.58633 1.7634 7.62633 1.74007L7.699 1.7134L7.81233 1.66673H8.093C8.34367 1.69273 8.56433 1.84273 8.67967 2.06673L10.159 5.04673C10.2657 5.26473 10.473 5.41607 10.7123 5.45273L14.0257 5.9334C14.3057 5.9734 14.5397 6.16673 14.6323 6.4334C14.7197 6.70073 14.6443 6.99407 14.439 7.18673L11.9457 9.54673Z" fill="#96A3AB"/>
</svg>
