<svg width="19" height="19" viewBox="0 0 19 19" fill="none" xmlns="http://www.w3.org/2000/svg">
<path d="M19 14.3874H0V10.8884L3.15649 5.60451C3.33404 5.27883 3.6753 5.07617 4.04621 5.07617H14.9538C15.3247 5.07617 15.666 5.27883 15.8435 5.60447L19 10.8879V14.3874Z" fill="#5484A4"/>
<path d="M1.51998 14.1616V12.2802L4.33461 6.59619H14.6654L17.48 12.2797V14.1616H1.51998Z" fill="#0E3854"/>
<path d="M14.3181 11.3967L13.547 13.0892C13.4402 13.3938 13.1526 13.5978 12.8298 13.5978H6.17016C5.84736 13.5978 5.55978 13.3938 5.45296 13.0892L4.68183 11.3967C4.575 11.0921 4.28742 10.8882 3.96462 10.8882H0V17.0673C0 18.0467 0.79393 18.8406 1.77332 18.8406H17.2266C18.206 18.8406 19 18.0467 19 17.0673V10.8882H15.0353C14.7125 10.8882 14.425 11.0921 14.3181 11.3967Z" fill="#96A3AB"/>
<path d="M12.5378 3.97978H10.9858V7.99657C10.9858 8.13647 10.8724 8.24991 10.7324 8.24991H8.26754C8.12764 8.24991 8.0142 8.13647 8.0142 7.99657V3.97978H6.46212C6.24169 3.97978 6.12642 3.71776 6.27537 3.55526L9.31322 0.241554C9.41364 0.132047 9.58628 0.132047 9.68669 0.241554L12.7245 3.55526C12.8735 3.71772 12.7583 3.97978 12.5378 3.97978Z" fill="#697B86"/>
</svg>
