<svg width="22" height="22" viewBox="0 0 22 22" fill="none" xmlns="http://www.w3.org/2000/svg">
<path d="M6.41669 7.33333C6.41669 4.80203 8.46871 2.75 11 2.75C13.5313 2.75 15.5834 4.80203 15.5834 7.33333C15.5834 9.86464 13.5313 11.9167 11 11.9167C8.46871 11.9167 6.41669 9.86464 6.41669 7.33333ZM11 10.0833C12.5188 10.0833 13.75 8.85212 13.75 7.33333C13.75 5.81455 12.5188 4.58333 11 4.58333C9.48124 4.58333 8.25002 5.81455 8.25002 7.33333C8.25002 8.85212 9.48124 10.0833 11 10.0833Z" fill="#96A3AB"/>
<path d="M5.81457 14.9812C4.4393 16.3565 3.66669 18.2217 3.66669 20.1667H5.50002C5.50002 18.708 6.07948 17.309 7.11093 16.2776C8.14238 15.2461 9.54133 14.6667 11 14.6667C12.4587 14.6667 13.8577 15.2461 14.8891 16.2776C15.9206 17.309 16.5 18.708 16.5 20.1667H18.3334C18.3334 18.2217 17.5607 16.3565 16.1855 14.9812C14.8102 13.606 12.9449 12.8333 11 12.8333C9.0551 12.8333 7.18984 13.606 5.81457 14.9812Z" fill="#96A3AB"/>
</svg>
