<svg width="22" height="22" viewBox="0 0 22 22" fill="none" xmlns="http://www.w3.org/2000/svg">
<path d="M16.4999 11.9166H11.9166V16.4999C11.9166 17.0041 11.5041 17.4166 10.9999 17.4166C10.4958 17.4166 10.0833 17.0041 10.0833 16.4999V11.9166H5.49992C4.99575 11.9166 4.58325 11.5041 4.58325 10.9999C4.58325 10.4958 4.99575 10.0833 5.49992 10.0833H10.0833V5.49992C10.0833 4.99575 10.4958 4.58325 10.9999 4.58325C11.5041 4.58325 11.9166 4.99575 11.9166 5.49992V10.0833H16.4999C17.0041 10.0833 17.4166 10.4958 17.4166 10.9999C17.4166 11.5041 17.0041 11.9166 16.4999 11.9166Z" fill="#8AC926"/>
</svg>
