<svg width="22" height="22" viewBox="0 0 22 22" fill="none" xmlns="http://www.w3.org/2000/svg">
<path d="M16.5 11.9167H11.9166V16.5C11.9166 17.0042 11.5041 17.4167 11 17.4167C10.4958 17.4167 10.0833 17.0042 10.0833 16.5V11.9167H5.49998C4.99581 11.9167 4.58331 11.5042 4.58331 11C4.58331 10.4959 4.99581 10.0834 5.49998 10.0834H10.0833V5.50004C10.0833 4.99587 10.4958 4.58337 11 4.58337C11.5041 4.58337 11.9166 4.99587 11.9166 5.50004V10.0834H16.5C17.0041 10.0834 17.4166 10.4959 17.4166 11C17.4166 11.5042 17.0041 11.9167 16.5 11.9167Z" fill="white"/>
</svg>
