<svg width="22" height="22" viewBox="0 0 22 22" fill="none" xmlns="http://www.w3.org/2000/svg">
<path d="M18.3333 18.3333H3.66665C2.65412 18.3333 1.83331 17.5125 1.83331 16.5V5.49996C1.83331 4.48744 2.65412 3.66663 3.66665 3.66663H18.3333C19.3458 3.66663 20.1666 4.48744 20.1666 5.49996V16.5C20.1666 17.5125 19.3458 18.3333 18.3333 18.3333ZM3.66665 5.49996V16.5H18.3333V5.49996H3.66665ZM14.2083 14.6666C12.9427 14.6666 11.9166 13.6406 11.9166 12.375C11.9166 11.1093 12.9427 10.0833 14.2083 10.0833C15.474 10.0833 16.5 11.1093 16.5 12.375C16.5 12.9827 16.2585 13.5656 15.8288 13.9954C15.399 14.4252 14.8161 14.6666 14.2083 14.6666ZM10.5416 14.6666C9.27599 14.6666 8.24998 13.6406 8.24998 12.375C8.24998 11.1093 9.27599 10.0833 10.5416 10.0833C11.0392 10.0837 11.5227 10.2487 11.9166 10.5526C11.3403 10.9808 11.0006 11.6565 11.0006 12.3745C11.0006 13.0925 11.3403 13.7682 11.9166 14.1964C11.5228 14.5006 11.0393 14.666 10.5416 14.6666Z" fill="#062336"/>
</svg>
