<svg width="22" height="22" viewBox="0 0 22 22" fill="none" xmlns="http://www.w3.org/2000/svg">
<path d="M18.3334 18.3333H3.66671C2.65419 18.3333 1.83337 17.5125 1.83337 16.5V5.49996C1.83337 4.48744 2.65419 3.66663 3.66671 3.66663H18.3334C19.3459 3.66663 20.1667 4.48744 20.1667 5.49996V16.5C20.1667 17.5125 19.3459 18.3333 18.3334 18.3333ZM3.66671 5.49996V16.5H18.3334V5.49996H3.66671ZM14.2084 14.6666C12.9427 14.6666 11.9167 13.6406 11.9167 12.375C11.9167 11.1093 12.9427 10.0833 14.2084 10.0833C15.474 10.0833 16.5 11.1093 16.5 12.375C16.5 12.9827 16.2586 13.5656 15.8288 13.9954C15.3991 14.4252 14.8162 14.6666 14.2084 14.6666ZM10.5417 14.6666C9.27605 14.6666 8.25004 13.6406 8.25004 12.375C8.25004 11.1093 9.27605 10.0833 10.5417 10.0833C11.0393 10.0837 11.5227 10.2487 11.9167 10.5526C11.3404 10.9808 11.0006 11.6565 11.0006 12.3745C11.0006 13.0925 11.3404 13.7682 11.9167 14.1964C11.5229 14.5006 11.0394 14.666 10.5417 14.6666Z" fill="#697B86"/>
</svg>
