<svg width="22" height="22" viewBox="0 0 22 22" fill="none" xmlns="http://www.w3.org/2000/svg">
<path d="M14.6666 20.1667H3.66665C2.65412 20.1667 1.83331 19.3459 1.83331 18.3334V7.33337H3.66665V18.3334H14.6666V20.1667ZM18.3333 16.5H7.33331C6.32079 16.5 5.49998 15.6792 5.49998 14.6667V3.66671C5.49998 2.65419 6.32079 1.83337 7.33331 1.83337H18.3333C19.3458 1.83337 20.1666 2.65419 20.1666 3.66671V14.6667C20.1666 15.6792 19.3458 16.5 18.3333 16.5ZM7.33331 3.66671V14.6667H18.3333V3.66671H7.33331ZM11.9166 12.431L8.51856 9.03196L9.81473 7.73579L11.9166 9.83862L15.8519 5.90337L17.1481 7.19954L11.9166 12.43V12.431Z" fill="#062336"/>
</svg>
