<svg width="22" height="22" viewBox="0 0 22 22" fill="none" xmlns="http://www.w3.org/2000/svg">
<path d="M14.6667 20.1667H3.66671C2.65419 20.1667 1.83337 19.3459 1.83337 18.3334V7.33337H3.66671V18.3334H14.6667V20.1667ZM18.3334 16.5H7.33337C6.32085 16.5 5.50004 15.6792 5.50004 14.6667V3.66671C5.50004 2.65419 6.32085 1.83337 7.33337 1.83337H18.3334C19.3459 1.83337 20.1667 2.65419 20.1667 3.66671V14.6667C20.1667 15.6792 19.3459 16.5 18.3334 16.5ZM7.33337 3.66671V14.6667H18.3334V3.66671H7.33337ZM11.9167 12.431L8.51862 9.03196L9.81479 7.73579L11.9167 9.83862L15.852 5.90337L17.1481 7.19954L11.9167 12.43V12.431Z" fill="#697B86"/>
</svg>
