<svg width="52" height="52" viewBox="0 0 52 52" fill="none" xmlns="http://www.w3.org/2000/svg">
<circle cx="26" cy="26" r="26" fill="#1982C4"/>
<g clip-path="url(#clip0_765:1629)">
<path d="M13.7007 23.4587L12.0126 25.1519H13.7007V23.4587Z" fill="#088FAF"/>
<path d="M38.2957 23.4587L39.9844 25.1519H38.2957V23.4587Z" fill="#088FAF"/>
<path d="M38.3162 16.8306C38.3162 16.6648 38.2503 16.5059 38.1331 16.3887L31.9194 10.1749C31.8022 10.0577 31.6432 9.99186 31.4775 9.99182H14.3262C14.1605 9.99182 14.0015 10.0577 13.8843 10.1749C13.7671 10.2921 13.7012 10.4511 13.7012 10.6168V41.3668C13.7012 41.5326 13.7671 41.6916 13.8843 41.8088C14.0015 41.926 14.1605 41.9918 14.3262 41.9918H37.6912C37.857 41.9918 38.016 41.926 38.1332 41.8088C38.2504 41.6916 38.3162 41.5326 38.3162 41.3668V16.8306Z" fill="#F1F1F1"/>
<path d="M38.2954 16.6749C38.2682 16.5666 38.212 16.4677 38.1329 16.3887L31.9192 10.1749C31.802 10.0577 31.643 9.99186 31.4773 9.99182V15.9243C31.4773 16.1232 31.5563 16.314 31.697 16.4547C31.8376 16.5953 32.0284 16.6743 32.2273 16.6743L38.2954 16.6749Z" fill="#CCCCCC"/>
<path d="M38.2957 16.675H32.2282C32.0293 16.675 31.8385 16.596 31.6979 16.4554C31.5572 16.3147 31.4782 16.124 31.4782 15.925V16.5594C31.4782 16.9738 31.7357 17.4969 32.252 17.4969H38.3145V16.8307C38.3184 16.7781 38.3121 16.7252 38.2957 16.675Z" fill="#E8E8E8"/>
<path d="M39.5069 35.7606H12.4931C12.3273 35.7606 12.1684 35.6948 12.0512 35.5776C11.934 35.4603 11.8681 35.3014 11.8681 35.1356V25.5519C11.8681 25.3861 11.934 25.2271 12.0512 25.1099C12.1684 24.9927 12.3273 24.9269 12.4931 24.9269H39.5069C39.6726 24.9269 39.8316 24.9927 39.9488 25.1099C40.066 25.2271 40.1319 25.3861 40.1319 25.5519V35.135C40.1319 35.2171 40.1158 35.2985 40.0845 35.3744C40.0531 35.4503 40.0071 35.5192 39.949 35.5773C39.891 35.6354 39.822 35.6815 39.7462 35.713C39.6703 35.7444 39.589 35.7606 39.5069 35.7606Z" fill="#29ABE1"/>
<path d="M13.7006 35.7606H38.3162V36.5712H13.7006V35.7606Z" fill="#E0E0E0"/>
<path d="M17.4674 32.7657C17.4191 32.7127 17.382 32.6505 17.3584 32.5829C17.3347 32.5152 17.3251 32.4434 17.3299 32.3719V29.0263C17.3218 28.9545 17.3299 28.8819 17.3537 28.8137C17.3775 28.7455 17.4164 28.6836 17.4674 28.6325C17.5185 28.5815 17.5804 28.5426 17.6486 28.5188C17.7168 28.495 17.7894 28.4869 17.8612 28.495H19.1249C19.6133 28.495 20.0333 28.5836 20.3849 28.7607C20.7262 28.9262 21.0094 29.1912 21.1974 29.5207C21.3849 29.8502 21.4787 30.2421 21.4787 30.6963C21.4787 31.1505 21.386 31.5463 21.2006 31.8838C21.0162 32.214 20.7344 32.4792 20.3937 32.6432C20.042 32.8182 19.6199 32.9057 19.1274 32.9057H17.8612C17.7895 32.9101 17.7177 32.9 17.65 32.8759C17.5823 32.8519 17.5202 32.8144 17.4674 32.7657ZM19.0431 31.9782C19.4726 31.9782 19.7947 31.8728 20.0093 31.6619C20.2239 31.4511 20.3312 31.1292 20.3312 30.6963C20.3312 30.2625 20.2239 29.9415 20.0093 29.7332C19.7947 29.5248 19.4726 29.4207 19.0431 29.4207H18.4806V31.9782H19.0431Z" fill="white"/>
<path d="M23.0864 32.6812C22.7588 32.5001 22.4922 32.2261 22.3201 31.8937C22.1432 31.5193 22.0514 31.1104 22.0514 30.6962C22.0514 30.2821 22.1432 29.8732 22.3201 29.4987C22.4918 29.1667 22.7585 28.8934 23.0864 28.7137C23.4508 28.5329 23.8521 28.4387 24.2589 28.4387C24.6657 28.4387 25.067 28.5329 25.4314 28.7137C25.7587 28.8933 26.0244 29.1673 26.1939 29.5C26.3694 29.8749 26.4601 30.2839 26.4595 30.6978C26.459 31.1118 26.3672 31.5205 26.1908 31.895C26.0187 32.2274 25.7521 32.5014 25.4245 32.6825C25.0621 32.8658 24.6616 32.9613 24.2554 32.9613C23.8493 32.9613 23.4488 32.8658 23.0864 32.6825V32.6812ZM25.0401 31.725C25.2276 31.4892 25.3214 31.1462 25.3214 30.6962C25.3214 30.2462 25.2266 29.9044 25.037 29.6706C24.8478 29.4369 24.5885 29.3202 24.2589 29.3206C23.9293 29.321 23.6687 29.4367 23.477 29.6675C23.2895 29.8987 23.1957 30.2417 23.1957 30.6962C23.1957 31.1508 23.2895 31.4948 23.477 31.7281C23.6645 31.9615 23.9251 32.0781 24.2589 32.0781C24.5926 32.0781 24.853 31.9604 25.0401 31.725Z" fill="white"/>
<path d="M28.0699 32.6875C27.741 32.5072 27.4731 32.2331 27.3006 31.9C27.1216 31.5262 27.0287 31.117 27.0287 30.7025C27.0287 30.288 27.1216 29.8789 27.3006 29.505C27.4733 29.1719 27.7411 28.8976 28.0699 28.7169C28.4708 28.5142 28.918 28.4207 29.3664 28.4459C29.8149 28.4712 30.2488 28.6142 30.6243 28.8606C30.6872 28.9023 30.7396 28.9579 30.7775 29.0231C30.8112 29.0932 30.8273 29.1704 30.8243 29.2481C30.8277 29.3672 30.7889 29.4836 30.715 29.5769C30.6841 29.6184 30.6439 29.6522 30.5977 29.6755C30.5515 29.6989 30.5005 29.7111 30.4487 29.7113C30.3912 29.7121 30.3341 29.7026 30.28 29.6831C30.2188 29.6587 30.1602 29.6284 30.1049 29.5925C29.9761 29.5126 29.8374 29.4495 29.6924 29.405C29.5625 29.3674 29.4278 29.3485 29.2924 29.3488C28.9212 29.3488 28.6449 29.4602 28.4637 29.6831C28.2824 29.9061 28.1918 30.2448 28.1918 30.6994C28.1918 31.1577 28.2824 31.4986 28.4637 31.7219C28.6449 31.9452 28.9212 32.0567 29.2924 32.0563C29.4159 32.0555 29.5384 32.0343 29.6549 31.9938C29.7718 31.9544 29.9218 31.8925 30.1049 31.8094C30.1924 31.7631 30.2575 31.7319 30.2987 31.715C30.3468 31.6977 30.3976 31.6894 30.4487 31.6906C30.5005 31.6907 30.5516 31.7028 30.5978 31.7262C30.644 31.7495 30.6842 31.7834 30.715 31.825C30.7889 31.9181 30.8277 32.0343 30.8243 32.1531C30.8267 32.2298 30.8106 32.3059 30.7775 32.375C30.7405 32.4417 30.6879 32.4985 30.6243 32.5406C30.2147 32.8231 29.7268 32.9698 29.2293 32.96C28.8259 32.9702 28.4266 32.8763 28.0699 32.6875Z" fill="white"/>
<path d="M35.0387 32.4157C35.0391 32.4863 35.0246 32.5563 34.996 32.6209C34.9675 32.6856 34.9256 32.7434 34.873 32.7907C34.8245 32.8411 34.7662 32.8813 34.7018 32.9088C34.6374 32.9363 34.5681 32.9505 34.498 32.9507C34.4245 32.9501 34.352 32.933 34.286 32.9005C34.22 32.868 34.1621 32.8211 34.1168 32.7632L33.0412 31.475L31.9499 32.7594C31.9054 32.8167 31.8486 32.8633 31.7837 32.8958C31.7188 32.9282 31.6475 32.9457 31.5749 32.9469C31.5046 32.9466 31.4351 32.932 31.3707 32.9039C31.3062 32.8759 31.2481 32.835 31.1999 32.7838C31.1479 32.7362 31.1062 32.6782 31.0777 32.6137C31.0492 32.5491 31.0344 32.4794 31.0343 32.4088C31.0358 32.2841 31.0824 32.1642 31.1656 32.0713L32.3662 30.6832L31.1968 29.3263C31.1115 29.234 31.0627 29.1138 31.0593 28.9882C31.0593 28.918 31.074 28.8487 31.1026 28.7846C31.1311 28.7205 31.1728 28.6632 31.2249 28.6163C31.2743 28.5659 31.3333 28.5259 31.3983 28.4985C31.4633 28.4712 31.5331 28.457 31.6037 28.4569C31.6772 28.4577 31.7496 28.4749 31.8156 28.5074C31.8816 28.5398 31.9394 28.5866 31.9849 28.6444L33.0418 29.8944L34.0924 28.6444C34.1347 28.5863 34.1902 28.539 34.2543 28.5064C34.3184 28.4738 34.3893 28.4569 34.4612 28.4569C34.5316 28.457 34.6013 28.4712 34.6663 28.4986C34.7312 28.5259 34.79 28.5659 34.8393 28.6163C34.8914 28.6632 34.9331 28.7205 34.9617 28.7846C34.9902 28.8487 35.0049 28.918 35.0049 28.9882C35.0035 29.113 34.9569 29.2332 34.8737 29.3263L33.7043 30.6832L34.8987 32.0713C34.9871 32.1643 35.0371 32.2873 35.0387 32.4157Z" fill="white"/>
</g>
<defs>
<clipPath id="clip0_765:1629">
<rect width="32" height="32" fill="white" transform="translate(10 10)"/>
</clipPath>
</defs>
</svg>
