<svg width="24" height="24" viewBox="0 0 24 24" fill="none" xmlns="http://www.w3.org/2000/svg">
<mask id="mask0_465:1074" style="mask-type:alpha" maskUnits="userSpaceOnUse" x="3" y="2" width="18" height="20">
<path fill-rule="evenodd" clip-rule="evenodd" d="M3 2.0116H20.0522V21.8651H3V2.0116Z" fill="white"/>
</mask>
<g mask="url(#mask0_465:1074)">
<path fill-rule="evenodd" clip-rule="evenodd" d="M7.57307 3.5116C5.91607 3.5116 4.54007 4.8536 4.50107 6.5086V17.2276C4.46507 18.9286 5.80507 20.3286 7.49007 20.3656H15.5731C17.2421 20.3056 18.5631 18.9286 18.5521 17.2326V8.3396L13.9181 3.5116H7.58507H7.57307ZM7.58507 21.8656H7.45907C4.94707 21.8116 2.94707 19.7236 3.00107 17.2116V6.4906C3.06007 4.0096 5.10807 2.0116 7.57007 2.0116H7.58807H14.2371C14.4411 2.0116 14.6361 2.0946 14.7781 2.2416L19.8441 7.5186C19.9771 7.6576 20.0521 7.8446 20.0521 8.0376V17.2276C20.0681 19.7366 18.1121 21.7756 15.5991 21.8656H7.58507Z" fill="#8AC926"/>
</g>
<path fill-rule="evenodd" clip-rule="evenodd" d="M19.2976 8.98424H16.5436C14.7126 8.97924 13.2256 7.48724 13.2256 5.65924V2.75024C13.2256 2.33624 13.5616 2.00024 13.9756 2.00024C14.3896 2.00024 14.7256 2.33624 14.7256 2.75024V5.65924C14.7256 6.66324 15.5416 7.48124 16.5456 7.48424H19.2976C19.7116 7.48424 20.0476 7.82024 20.0476 8.23424C20.0476 8.64824 19.7116 8.98424 19.2976 8.98424Z" fill="#8AC926"/>
<path fill-rule="evenodd" clip-rule="evenodd" d="M11.1426 16.7002C10.7286 16.7002 10.3926 16.3642 10.3926 15.9502V9.90918C10.3926 9.49518 10.7286 9.15918 11.1426 9.15918C11.5566 9.15918 11.8926 9.49518 11.8926 9.90918V15.9502C11.8926 16.3642 11.5566 16.7002 11.1426 16.7002Z" fill="#8AC926"/>
<path fill-rule="evenodd" clip-rule="evenodd" d="M11.1413 16.6991C10.9423 16.6991 10.7503 16.6201 10.6103 16.4781L8.26525 14.1241C7.97325 13.8301 7.97425 13.3551 8.26725 13.0631C8.56125 12.7711 9.03625 12.7711 9.32825 13.0651L11.1413 14.8871L12.9543 13.0651C13.2463 12.7711 13.7213 12.7711 14.0153 13.0631C14.3083 13.3551 14.3093 13.8301 14.0173 14.1241L11.6723 16.4781C11.5323 16.6201 11.3403 16.6991 11.1413 16.6991Z" fill="#8AC926"/>
</svg>
