<svg width="32" height="32" viewBox="0 0 32 32" fill="none" xmlns="http://www.w3.org/2000/svg">
<g clip-path="url(#clip0_604:1556)">
<path d="M28.3163 6.83057C28.3163 6.66482 28.2504 6.50588 28.1332 6.3887L21.9194 0.174946C21.8022 0.0577279 21.6433 -0.00814331 21.4775 -0.00817871H4.32629C4.16053 -0.00817871 4.00156 0.0576693 3.88435 0.17488C3.76714 0.29209 3.70129 0.451061 3.70129 0.616821V31.3668C3.70129 31.5326 3.76714 31.6916 3.88435 31.8088C4.00156 31.926 4.16053 31.9918 4.32629 31.9918H27.6913C27.8571 31.9918 28.016 31.926 28.1332 31.8088C28.2504 31.6916 28.3163 31.5326 28.3163 31.3668V6.83057Z" fill="#F1F1F1"/>
<path d="M28.2955 6.67495C28.2683 6.56658 28.2121 6.46765 28.133 6.3887L21.9193 0.174946C21.8021 0.0577279 21.6432 -0.00814331 21.4774 -0.00817871V5.92432C21.4774 6.12323 21.5564 6.314 21.6971 6.45465C21.8377 6.5953 22.0285 6.67432 22.2274 6.67432L28.2955 6.67495Z" fill="#CCCCCC"/>
<path d="M28.2957 6.67505H22.2282C22.0293 6.67505 21.8385 6.59603 21.6979 6.45538C21.5572 6.31473 21.4782 6.12396 21.4782 5.92505V6.55942C21.4782 6.9738 21.7357 7.49692 22.252 7.49692H28.3145V6.83067C28.3184 6.77807 28.3121 6.7252 28.2957 6.67505Z" fill="#E8E8E8"/>
<path d="M3.7007 13.4587L2.01257 15.1519H3.7007V13.4587Z" fill="#DD9536"/>
<path d="M28.2957 13.4587L29.9844 15.1519H28.2957V13.4587Z" fill="#DD9536"/>
<path d="M29.507 25.7606H2.49323C2.32746 25.7606 2.16849 25.6948 2.05128 25.5776C1.93407 25.4603 1.86823 25.3014 1.86823 25.1356V15.5519C1.86823 15.3861 1.93407 15.2271 2.05128 15.1099C2.16849 14.9927 2.32746 14.9269 2.49323 14.9269H29.507C29.6727 14.9269 29.8317 14.9927 29.9489 15.1099C30.0661 15.2271 30.132 15.3861 30.132 15.5519V25.135C30.1321 25.2171 30.116 25.2985 30.0846 25.3744C30.0532 25.4503 30.0072 25.5192 29.9491 25.5773C29.8911 25.6354 29.8222 25.6815 29.7463 25.713C29.6704 25.7444 29.5891 25.7606 29.507 25.7606Z" fill="#FAAF3A"/>
<path d="M10.253 22.4782C10.2483 22.4197 10.2553 22.3608 10.2735 22.3051C10.2918 22.2493 10.3209 22.1977 10.3593 22.1532C10.4305 22.0826 10.543 22.0426 10.6974 22.0345L10.9099 22.022C10.9635 22.0231 11.0168 22.0125 11.0659 21.9909C11.115 21.9693 11.1588 21.9373 11.1943 21.897C11.263 21.8064 11.2974 21.6943 11.2911 21.5807V19.0263C11.2877 18.951 11.2998 18.8758 11.3267 18.8054C11.3536 18.735 11.3946 18.6708 11.4474 18.617C11.5046 18.5644 11.5717 18.5237 11.6447 18.4974C11.7178 18.4711 11.7954 18.4597 11.873 18.4638C11.949 18.4607 12.0248 18.4726 12.0961 18.4989C12.1674 18.5251 12.2329 18.5653 12.2886 18.617C12.3423 18.6703 12.3842 18.7343 12.4116 18.8048C12.4391 18.8753 12.4515 18.9508 12.448 19.0263V21.5626C12.448 21.9793 12.3386 22.3034 12.1199 22.5351C11.9011 22.7668 11.5749 22.8972 11.1411 22.9263L10.9411 22.9388C10.4824 22.9609 10.253 22.8074 10.253 22.4782Z" fill="white"/>
<path d="M13.4018 22.7875C13.3501 22.7325 13.31 22.6676 13.2839 22.5967C13.2578 22.5259 13.2462 22.4505 13.2499 22.375V19.0263C13.2417 18.9545 13.2499 18.8819 13.2737 18.8137C13.2975 18.7455 13.3364 18.6836 13.3874 18.6325C13.4385 18.5815 13.5004 18.5426 13.5686 18.5188C13.6367 18.495 13.7094 18.4869 13.7812 18.495H15.3818C15.8701 18.495 16.2495 18.619 16.5199 18.8669C16.7903 19.1148 16.9259 19.4598 16.9268 19.9019C16.9268 20.3394 16.7901 20.6834 16.5168 20.9338C16.2434 21.1842 15.8651 21.3092 15.3818 21.3088H14.4005V22.3713C14.4044 22.4476 14.3925 22.5238 14.3656 22.5953C14.3387 22.6668 14.2974 22.732 14.2443 22.7869C14.1872 22.8397 14.1202 22.8805 14.047 22.9069C13.9739 22.9333 13.8963 22.9448 13.8187 22.9407C13.7424 22.9448 13.6661 22.9333 13.5945 22.907C13.5228 22.8806 13.4572 22.84 13.4018 22.7875ZM15.2243 20.4463C15.4374 20.4463 15.5943 20.4019 15.6968 20.3144C15.7993 20.2269 15.8499 20.0919 15.8499 19.9082C15.8499 19.5457 15.6416 19.3644 15.2249 19.3644H14.3999V20.4463H15.2243Z" fill="white"/>
<path d="M21.2742 20.5307C21.3152 20.5707 21.3473 20.619 21.3683 20.6723C21.3893 20.7256 21.3988 20.7828 21.3961 20.84V21.9282C21.4012 22.0889 21.3854 22.2496 21.3492 22.4063C21.3231 22.509 21.2638 22.6002 21.1805 22.6657C21.0696 22.7419 20.9457 22.7969 20.8148 22.8282C20.6368 22.8728 20.456 22.9054 20.2736 22.9257C20.09 22.9475 19.9053 22.959 19.7205 22.96C19.2413 22.96 18.8246 22.8692 18.4705 22.6875C18.1265 22.5158 17.8431 22.2432 17.658 21.9063C17.4705 21.5663 17.3767 21.163 17.3767 20.6963C17.3665 20.2796 17.4634 19.8673 17.658 19.4988C17.841 19.1634 18.1197 18.8901 18.4586 18.7138C18.8341 18.5236 19.2509 18.4291 19.6717 18.4388C19.937 18.4352 20.2014 18.47 20.4567 18.5419C20.6882 18.611 20.9067 18.7176 21.1036 18.8575C21.1665 18.8992 21.2189 18.9548 21.2567 19.02C21.2905 19.0903 21.3066 19.1678 21.3036 19.2457C21.3072 19.364 21.2696 19.48 21.1973 19.5738C21.1683 19.6149 21.13 19.6485 21.0854 19.6719C21.0409 19.6952 20.9914 19.7077 20.9411 19.7082C20.8825 19.7096 20.8242 19.7001 20.7692 19.68C20.7052 19.6529 20.6435 19.6205 20.5848 19.5832C20.4464 19.5063 20.2996 19.4455 20.1473 19.4019C20.0037 19.3634 19.8555 19.3444 19.7067 19.3457C19.3105 19.3457 19.0155 19.4561 18.8217 19.6769C18.628 19.8977 18.5311 20.2375 18.5311 20.6963C18.5311 21.1675 18.6321 21.5167 18.8342 21.7438C19.0363 21.9709 19.3459 22.0844 19.763 22.0844C19.9625 22.0846 20.1616 22.0636 20.3567 22.0219V21.2025H19.9067C19.7912 21.21 19.6772 21.1731 19.588 21.0994C19.5156 21.0199 19.4755 20.9163 19.4755 20.8088C19.4755 20.7013 19.5156 20.5977 19.588 20.5182C19.6771 20.4443 19.7911 20.4072 19.9067 20.4144H20.9386C20.9995 20.4103 21.0605 20.4185 21.1182 20.4385C21.1759 20.4585 21.2289 20.4898 21.2742 20.5307Z" fill="white"/>
<path d="M3.70068 25.7606H28.3163V26.5712H3.70068V25.7606Z" fill="#E0E0E0"/>
</g>
<defs>
<clipPath id="clip0_604:1556">
<rect width="32" height="32" fill="white"/>
</clipPath>
</defs>
</svg>
