<svg width="52" height="52" viewBox="0 0 52 52" fill="none" xmlns="http://www.w3.org/2000/svg">
<circle cx="26" cy="26" r="26" fill="#FFCA3A"/>
<g clip-path="url(#clip0_765:1631)">
<path d="M38.3163 16.8306C38.3162 16.6648 38.2504 16.5059 38.1332 16.3887L31.9194 10.1749C31.8022 10.0577 31.6433 9.99186 31.4775 9.99182H14.3263C14.1605 9.99182 14.0015 10.0577 13.8843 10.1749C13.7671 10.2921 13.7013 10.4511 13.7013 10.6168V41.3668C13.7013 41.5326 13.7671 41.6916 13.8843 41.8088C14.0015 41.926 14.1605 41.9918 14.3263 41.9918H37.6913C37.857 41.9918 38.016 41.926 38.1332 41.8088C38.2504 41.6916 38.3163 41.5326 38.3163 41.3668V16.8306Z" fill="#F1F1F1"/>
<path d="M38.2955 16.6749C38.2682 16.5666 38.2121 16.4677 38.133 16.3887L31.9193 10.1749C31.8021 10.0577 31.6431 9.99186 31.4774 9.99182V15.9243C31.4774 16.1232 31.5564 16.314 31.6971 16.4547C31.8377 16.5953 32.0285 16.6743 32.2274 16.6743L38.2955 16.6749Z" fill="#CCCCCC"/>
<path d="M38.2957 16.675H32.2282C32.0293 16.675 31.8385 16.596 31.6979 16.4554C31.5572 16.3147 31.4782 16.124 31.4782 15.925V16.5594C31.4782 16.9738 31.7357 17.4969 32.252 17.4969H38.3145V16.8307C38.3184 16.7781 38.3121 16.7252 38.2957 16.675Z" fill="#E8E8E8"/>
<path d="M13.7007 23.4587L12.0125 25.1519H13.7007V23.4587Z" fill="#DD9536"/>
<path d="M38.2957 23.4587L39.9844 25.1519H38.2957V23.4587Z" fill="#DD9536"/>
<path d="M39.507 35.7606H12.4932C12.3275 35.7606 12.1685 35.6948 12.0513 35.5776C11.9341 35.4603 11.8682 35.3014 11.8682 35.1356V25.5519C11.8682 25.3861 11.9341 25.2271 12.0513 25.1099C12.1685 24.9927 12.3275 24.9269 12.4932 24.9269H39.507C39.6727 24.9269 39.8317 24.9927 39.9489 25.1099C40.0661 25.2271 40.132 25.3861 40.132 25.5519V35.135C40.1321 35.2171 40.116 35.2985 40.0846 35.3744C40.0532 35.4503 40.0072 35.5192 39.9491 35.5773C39.8911 35.6354 39.8222 35.6815 39.7463 35.713C39.6704 35.7444 39.5891 35.7606 39.507 35.7606Z" fill="#FAAF3A"/>
<path d="M20.253 32.4782C20.2483 32.4197 20.2553 32.3608 20.2736 32.3051C20.2918 32.2493 20.3209 32.1977 20.3593 32.1532C20.4305 32.0826 20.543 32.0426 20.6974 32.0345L20.9099 32.022C20.9636 32.0231 21.0168 32.0125 21.0659 31.9909C21.1151 31.9693 21.1589 31.9373 21.1943 31.897C21.2631 31.8064 21.2974 31.6943 21.2912 31.5807V29.0263C21.2877 28.951 21.2998 28.8758 21.3267 28.8054C21.3536 28.735 21.3947 28.6708 21.4474 28.617C21.5046 28.5644 21.5717 28.5237 21.6448 28.4974C21.7179 28.4711 21.7955 28.4597 21.873 28.4638C21.949 28.4607 22.0248 28.4726 22.0961 28.4989C22.1675 28.5251 22.2329 28.5653 22.2887 28.617C22.3423 28.6703 22.3842 28.7343 22.4116 28.8048C22.4391 28.8753 22.4515 28.9508 22.448 29.0263V31.5626C22.448 31.9793 22.3387 32.3034 22.1199 32.5351C21.9012 32.7668 21.5749 32.8972 21.1412 32.9263L20.9412 32.9388C20.4824 32.9609 20.253 32.8074 20.253 32.4782Z" fill="white"/>
<path d="M23.4018 32.7875C23.3501 32.7325 23.31 32.6676 23.2839 32.5967C23.2578 32.5259 23.2463 32.4505 23.25 32.375V29.0263C23.2418 28.9545 23.2499 28.8819 23.2737 28.8137C23.2975 28.7455 23.3364 28.6836 23.3875 28.6325C23.4385 28.5815 23.5004 28.5426 23.5686 28.5188C23.6368 28.495 23.7095 28.4869 23.7812 28.495H25.3818C25.8702 28.495 26.2495 28.619 26.5199 28.8669C26.7904 29.1148 26.926 29.4598 26.9268 29.9019C26.9268 30.3394 26.7902 30.6834 26.5168 30.9338C26.2435 31.1842 25.8652 31.3092 25.3818 31.3088H24.4006V32.3713C24.4044 32.4476 24.3926 32.5238 24.3657 32.5953C24.3388 32.6668 24.2975 32.732 24.2443 32.7869C24.1873 32.8397 24.1202 32.8805 24.0471 32.9069C23.974 32.9333 23.8963 32.9448 23.8187 32.9407C23.7425 32.9448 23.6662 32.9333 23.5945 32.907C23.5228 32.8806 23.4573 32.84 23.4018 32.7875ZM25.2243 30.4463C25.4375 30.4463 25.5943 30.4019 25.6968 30.3144C25.7993 30.2269 25.85 30.0919 25.85 29.9082C25.85 29.5457 25.6416 29.3644 25.225 29.3644H24.4V30.4463H25.2243Z" fill="white"/>
<path d="M31.2742 30.5307C31.3153 30.5707 31.3473 30.619 31.3683 30.6723C31.3894 30.7256 31.3988 30.7828 31.3961 30.84V31.9282C31.4012 32.0889 31.3855 32.2496 31.3492 32.4063C31.3231 32.509 31.2638 32.6002 31.1805 32.6657C31.0697 32.7419 30.9457 32.7969 30.8149 32.8282C30.6369 32.8728 30.456 32.9054 30.2736 32.9257C30.09 32.9475 29.9054 32.959 29.7205 32.96C29.2413 32.96 28.8247 32.8692 28.4705 32.6875C28.1265 32.5158 27.8431 32.2432 27.658 31.9063C27.4705 31.5663 27.3767 31.163 27.3767 30.6963C27.3666 30.2796 27.4634 29.8673 27.658 29.4988C27.841 29.1634 28.1197 28.8901 28.4586 28.7138C28.8342 28.5236 29.2509 28.4291 29.6717 28.4388C29.937 28.4352 30.2014 28.47 30.4567 28.5419C30.6882 28.611 30.9067 28.7176 31.1036 28.8575C31.1665 28.8992 31.2189 28.9548 31.2567 29.02C31.2906 29.0903 31.3067 29.1678 31.3036 29.2457C31.3072 29.364 31.2697 29.48 31.1974 29.5738C31.1684 29.6149 31.13 29.6485 31.0854 29.6719C31.0409 29.6952 30.9914 29.7077 30.9411 29.7082C30.8826 29.7096 30.8243 29.7001 30.7692 29.68C30.7052 29.6529 30.6436 29.6205 30.5849 29.5832C30.4464 29.5063 30.2996 29.4455 30.1474 29.4019C30.0037 29.3634 29.8555 29.3444 29.7067 29.3457C29.3105 29.3457 29.0155 29.4561 28.8217 29.6769C28.628 29.8977 28.5311 30.2375 28.5311 30.6963C28.5311 31.1675 28.6322 31.5167 28.8342 31.7438C29.0363 31.9709 29.3459 32.0844 29.763 32.0844C29.9626 32.0846 30.1616 32.0636 30.3567 32.0219V31.2025H29.9067C29.7912 31.21 29.6773 31.1731 29.588 31.0994C29.5157 31.0199 29.4756 30.9163 29.4756 30.8088C29.4756 30.7013 29.5157 30.5977 29.588 30.5182C29.6772 30.4443 29.7912 30.4072 29.9067 30.4144H30.9386C30.9995 30.4103 31.0606 30.4185 31.1182 30.4385C31.1759 30.4585 31.2289 30.4898 31.2742 30.5307Z" fill="white"/>
<path d="M13.7007 35.7606H38.3163V36.5712H13.7007V35.7606Z" fill="#E0E0E0"/>
</g>
<defs>
<clipPath id="clip0_765:1631">
<rect width="32" height="32" fill="white" transform="translate(10 10)"/>
</clipPath>
</defs>
</svg>
