<svg width="22" height="22" viewBox="0 0 22 22" fill="none" xmlns="http://www.w3.org/2000/svg">
<mask id="mask0_790:1624" style="mask-type:alpha" maskUnits="userSpaceOnUse" x="1" y="1" width="20" height="20">
<path fill-rule="evenodd" clip-rule="evenodd" d="M1.83325 1.83337H20.1665V20.1667H1.83325V1.83337Z" fill="white"/>
</mask>
<g mask="url(#mask0_790:1624)">
<path fill-rule="evenodd" clip-rule="evenodd" d="M7.02525 3.20837C4.707 3.20837 3.20825 4.79696 3.20825 7.25637V14.7437C3.20825 17.2031 4.707 18.7917 7.02525 18.7917H14.9709C17.2919 18.7917 18.7916 17.2031 18.7916 14.7437V7.25637C18.7916 4.79696 17.2919 3.20837 14.9728 3.20837H7.02525ZM14.9709 20.1667H7.02525C3.91959 20.1667 1.83325 17.9869 1.83325 14.7437V7.25637C1.83325 4.01321 3.91959 1.83337 7.02525 1.83337H14.9728C18.0793 1.83337 20.1666 4.01321 20.1666 7.25637V14.7437C20.1666 17.9869 18.0793 20.1667 14.9709 20.1667V20.1667Z" fill="#697B86"/>
</g>
<path fill-rule="evenodd" clip-rule="evenodd" d="M8.10209 9.99023C7.54292 9.99023 7.09009 10.4431 7.09009 11.0004C7.09009 11.5577 7.54292 12.0106 8.10025 12.0106C8.65667 12.0106 9.11042 11.5577 9.11042 11.0004C9.11042 10.444 8.65759 9.99115 8.10209 9.99023M8.10025 13.3856C6.78484 13.3856 5.71509 12.3149 5.71509 11.0004C5.71509 9.68498 6.78484 8.61523 8.10025 8.61523C9.4175 8.61615 10.4854 9.6859 10.4854 11.0004C10.4854 12.3149 9.41567 13.3856 8.10025 13.3856" fill="#697B86"/>
<path fill-rule="evenodd" clip-rule="evenodd" d="M15.592 13.3857C15.2125 13.3857 14.9045 13.0777 14.9045 12.6982V11.6871H9.80054C9.42104 11.6871 9.11304 11.3801 9.11304 10.9996C9.11304 10.6201 9.42104 10.3121 9.80054 10.3121H15.592C15.9715 10.3121 16.2795 10.6201 16.2795 10.9996V12.6982C16.2795 13.0777 15.9715 13.3857 15.592 13.3857" fill="#697B86"/>
<path fill-rule="evenodd" clip-rule="evenodd" d="M12.9995 13.3857C12.62 13.3857 12.312 13.0777 12.312 12.6982V10.9996C12.312 10.6201 12.62 10.3121 12.9995 10.3121C13.379 10.3121 13.687 10.6201 13.687 10.9996V12.6982C13.687 13.0777 13.379 13.3857 12.9995 13.3857" fill="#697B86"/>
</svg>
