<svg width="22" height="22" viewBox="0 0 22 22" fill="none" xmlns="http://www.w3.org/2000/svg">
<mask id="mask0_465:1263" style="mask-type:alpha" maskUnits="userSpaceOnUse" x="1" y="1" width="20" height="20">
<path fill-rule="evenodd" clip-rule="evenodd" d="M1.83301 1.83337H20.1662V20.1667H1.83301V1.83337Z" fill="white"/>
</mask>
<g mask="url(#mask0_465:1263)">
<path fill-rule="evenodd" clip-rule="evenodd" d="M7.02501 3.20837C4.70676 3.20837 3.20801 4.79696 3.20801 7.25637V14.7437C3.20801 17.2031 4.70676 18.7917 7.02501 18.7917H14.9707C17.2917 18.7917 18.7913 17.2031 18.7913 14.7437V7.25637C18.7913 4.79696 17.2917 3.20837 14.9725 3.20837H7.02501ZM14.9707 20.1667H7.02501C3.91934 20.1667 1.83301 17.9869 1.83301 14.7437V7.25637C1.83301 4.01321 3.91934 1.83337 7.02501 1.83337H14.9725C18.0791 1.83337 20.1663 4.01321 20.1663 7.25637V14.7437C20.1663 17.9869 18.0791 20.1667 14.9707 20.1667Z" fill="#697B86"/>
</g>
<path fill-rule="evenodd" clip-rule="evenodd" d="M8.10184 9.99023C7.54268 9.99023 7.08984 10.4431 7.08984 11.0004C7.08984 11.5577 7.54268 12.0106 8.10001 12.0106C8.65643 12.0106 9.11018 11.5577 9.11018 11.0004C9.11018 10.444 8.65734 9.99115 8.10184 9.99023ZM8.10001 13.3856C6.78459 13.3856 5.71484 12.3149 5.71484 11.0004C5.71484 9.68498 6.78459 8.61523 8.10001 8.61523C9.41726 8.61615 10.4852 9.6859 10.4852 11.0004C10.4852 12.3149 9.41543 13.3856 8.10001 13.3856Z" fill="#697B86"/>
<path fill-rule="evenodd" clip-rule="evenodd" d="M15.5923 13.3857C15.2128 13.3857 14.9048 13.0777 14.9048 12.6982V11.6871H9.80078C9.42128 11.6871 9.11328 11.3801 9.11328 10.9996C9.11328 10.6201 9.42128 10.3121 9.80078 10.3121H15.5923C15.9718 10.3121 16.2798 10.6201 16.2798 10.9996V12.6982C16.2798 13.0777 15.9718 13.3857 15.5923 13.3857Z" fill="#697B86"/>
<path fill-rule="evenodd" clip-rule="evenodd" d="M12.999 13.3857C12.6195 13.3857 12.3115 13.0777 12.3115 12.6982V10.9996C12.3115 10.6201 12.6195 10.3121 12.999 10.3121C13.3785 10.3121 13.6865 10.6201 13.6865 10.9996V12.6982C13.6865 13.0777 13.3785 13.3857 12.999 13.3857Z" fill="#697B86"/>
</svg>
