<svg width="22" height="22" viewBox="0 0 22 22" fill="none" xmlns="http://www.w3.org/2000/svg">
<path d="M17.1206 17.9732L11.8819 12.7335C9.55139 14.3903 6.34009 13.9851 4.49432 11.8012C2.64856 9.61731 2.78409 6.38338 4.80611 4.36159C6.82759 2.33892 10.0618 2.2028 12.2461 4.04847C14.4304 5.89414 14.8359 9.10575 13.1789 11.4364L18.4177 16.6761L17.1215 17.9723L17.1206 17.9732ZM8.69461 4.58341C6.95633 4.58302 5.45666 5.80321 5.10354 7.50524C4.75043 9.20727 5.64092 10.9233 7.23589 11.6145C8.83086 12.3056 10.6919 11.7818 11.6923 10.3603C12.6927 8.93876 12.5575 7.01013 11.3685 5.74209L11.9231 6.29209L11.2979 5.66876L11.2869 5.65776C10.6011 4.96767 9.66755 4.58079 8.69461 4.58341Z" fill="#96A3AB"/>
</svg>
