<svg width="22" height="22" viewBox="0 0 22 22" fill="none" xmlns="http://www.w3.org/2000/svg">
<path d="M11.9167 9.16667V12.8333H17.4167V9.16667H11.9167ZM10.0833 9.16667H4.58333V12.8333H10.0833V9.16667ZM11.9167 17.4167H17.4167V14.6667H11.9167V17.4167ZM10.0833 17.4167V14.6667H4.58333V17.4167H10.0833ZM11.9167 4.58333V7.33333H17.4167V4.58333H11.9167ZM10.0833 4.58333H4.58333V7.33333H10.0833V4.58333ZM17.4167 2.75C18.4292 2.75 19.25 3.57081 19.25 4.58333V17.4167C19.25 18.4292 18.4292 19.25 17.4167 19.25H4.58333C3.57081 19.25 2.75 18.4292 2.75 17.4167V4.58333C2.75 3.57081 3.57081 2.75 4.58333 2.75H17.4167Z" fill="#697B86"/>
</svg>
