<svg width="16" height="16" viewBox="0 0 16 16" fill="none" xmlns="http://www.w3.org/2000/svg">
<path d="M8.59809 14.6454C8.24428 14.6464 7.90479 14.5057 7.65542 14.2547L2.43076 9.03138C2.15507 8.75661 2.01374 8.37477 2.04409 7.98672L2.37742 3.60938C2.42504 2.9505 2.95037 2.42716 3.60942 2.38205L7.98676 2.04872C8.02142 2.04138 8.05542 2.04138 8.09009 2.04138C8.4432 2.04096 8.78184 2.1816 9.03076 2.43205L14.2554 7.65472C14.5056 7.90478 14.6461 8.244 14.6461 8.59772C14.6461 8.95143 14.5056 9.29065 14.2554 9.54072L9.54076 14.2547C9.29131 14.5056 8.95187 14.6463 8.59809 14.6454ZM5.76942 4.43605C5.16597 4.43622 4.63786 4.84168 4.48182 5.4246C4.32578 6.00753 4.5807 6.62259 5.10336 6.92422C5.62603 7.22584 6.28612 7.13882 6.71276 6.71205L6.71742 6.70805L6.72209 6.70338L6.71676 6.70805C7.09571 6.32576 7.20762 5.75309 7.00046 5.25626C6.7933 4.75942 6.30771 4.43589 5.76942 4.43605Z" fill="#697B86"/>
</svg>
