<svg width="22" height="22" viewBox="0 0 22 22" fill="none" xmlns="http://www.w3.org/2000/svg">
<path d="M11 21.0833L2.29166 16.0416V5.95829L11 0.916626L19.7083 5.95829V16.0416L11 21.0833ZM11 3.03596L4.12499 7.01521V14.9847L11 18.9649L17.875 14.9847V7.01521L11 3.03504V3.03596ZM11 14.6666C10.0278 14.6639 9.09602 14.2778 8.40674 13.5923C7.35829 12.5435 7.0448 10.9665 7.61243 9.59647C8.18006 8.22645 9.51704 7.33329 11 7.33329C11.9719 7.3359 12.9035 7.72198 13.5923 8.40763C15.0237 9.83946 15.0237 12.1605 13.5923 13.5923C12.9033 14.2777 11.9718 14.6637 11 14.6666ZM11 9.16662C10.1253 9.16644 9.37237 9.78413 9.20156 10.6419C9.03076 11.4997 9.4897 12.3587 10.2977 12.6936C11.1057 13.0285 12.0377 12.7459 12.5238 12.0188C13.0098 11.2916 12.9145 10.3224 12.2962 9.70379C11.9531 9.35892 11.4864 9.16551 11 9.16662Z" fill="#697B86"/>
</svg>
