<svg width="22" height="22" viewBox="0 0 22 22" fill="none" xmlns="http://www.w3.org/2000/svg">
<path d="M6.41663 7.33333C6.41663 4.80203 8.46865 2.75 11 2.75C13.5313 2.75 15.5833 4.80203 15.5833 7.33333C15.5833 9.86464 13.5313 11.9167 11 11.9167C8.46865 11.9167 6.41663 9.86464 6.41663 7.33333ZM11 10.0833C12.5187 10.0833 13.75 8.85212 13.75 7.33333C13.75 5.81455 12.5187 4.58333 11 4.58333C9.48118 4.58333 8.24996 5.81455 8.24996 7.33333C8.24996 8.85212 9.48118 10.0833 11 10.0833Z" fill="#062336"/>
<path d="M5.81451 14.9812C4.43924 16.3565 3.66663 18.2217 3.66663 20.1667H5.49996C5.49996 18.708 6.07942 17.309 7.11087 16.2776C8.14232 15.2461 9.54127 14.6667 11 14.6667C12.4586 14.6667 13.8576 15.2461 14.889 16.2776C15.9205 17.309 16.5 18.708 16.5 20.1667H18.3333C18.3333 18.2217 17.5607 16.3565 16.1854 14.9812C14.8101 13.606 12.9449 12.8333 11 12.8333C9.05504 12.8333 7.18978 13.606 5.81451 14.9812Z" fill="#062336"/>
</svg>
