<svg width="22" height="22" viewBox="0 0 22 22" fill="none" xmlns="http://www.w3.org/2000/svg">
<path d="M18.3333 18.3333H3.66659C2.65406 18.3333 1.83325 17.5125 1.83325 16.5V5.5C1.83325 4.48748 2.65406 3.66666 3.66659 3.66666H18.3333C19.3458 3.66666 20.1666 4.48748 20.1666 5.5V16.5C20.1666 17.5125 19.3458 18.3333 18.3333 18.3333ZM3.66659 5.5V16.5H18.3333V5.5H3.66659ZM14.2083 14.6667C12.9426 14.6667 11.9166 13.6406 11.9166 12.375C11.9166 11.1093 12.9426 10.0833 14.2083 10.0833C15.4739 10.0833 16.4999 11.1093 16.4999 12.375C16.4999 12.9828 16.2585 13.5657 15.8287 13.9954C15.3989 14.4252 14.816 14.6667 14.2083 14.6667ZM10.5416 14.6667C9.27593 14.6667 8.24992 13.6406 8.24992 12.375C8.24992 11.1093 9.27593 10.0833 10.5416 10.0833C11.0392 10.0837 11.5226 10.2487 11.9166 10.5527C11.3402 10.9809 11.0005 11.6565 11.0005 12.3745C11.0005 13.0925 11.3402 13.7682 11.9166 14.1964C11.5227 14.5007 11.0393 14.666 10.5416 14.6667Z" fill="#96A3AB"/>
</svg>
